{
.appVersion = 3436;
.formatVersion = 3;
DisplayStrings = (
ov
);
axes = (
{
default = 400;
max = 900;
min = 100;
name = Weight;
tag = wght;
},
{
default = 16;
max = 48;
min = 16;
name = "Optical size";
tag = opsz;
}
);
customParameters = (
{
name = vendorID;
value = UNDR;
},
{
name = panose;
value = (
2,
0,
5,
3,
0,
0,
0,
2,
0,
4
);
},
{
name = glyphOrder;
value = (
.notdef,
.null,
uni0041,
uni0042,
uni0043,
uni0044,
uni0045,
uni0046,
uni0047,
uni0048,
uni0049,
uni004A,
uni004B,
uni004C,
uni004D,
uni004E,
uni004F,
uni0050,
uni0051,
uni0052,
uni0053,
uni0054,
uni0055,
uni0056,
uni0057,
uni0058,
uni0059,
uniEE03,
uni005A,
uni0061,
uni0062,
uni0063,
uni0064,
uni0065,
uni0066,
uni0067,
uni0068,
uni0069,
uni006A,
uni006B,
uni006C,
uni006D,
uni006E,
uni006F,
uni0070,
uni0071,
uni0072,
uni0073,
uni0074,
uni0075,
uni0076,
uni0077,
uni0078,
uni0079,
uni007A,
uni0024,
uni20AA,
uni0030,
uni0031,
uni0032,
uni0033,
uni0034,
uni0035,
uni0036,
uni0037,
uni0038,
uni0039,
zero.tnum,
one.tnum,
two.tnum,
three.tnum,
four.tnum,
five.tnum,
six.tnum,
seven.tnum,
eight.tnum,
nine.tnum,
uni0026,
uni0021,
uni203C,
uni2049,
uni003F,
uni0028,
uni0029,
uni005B,
uni005D,
uni007B,
uni007D,
uni0040,
uni0028.case,
uni0029.case,
uni005B.case,
uni005D.case,
uni007B.case,
uni007D.case,
uni0040.case,
uni0023,
uni002F,
uni007C,
uni00A6,
uni005C,
uni002D,
uni00AD,
uni2012,
uni25E6,
uni2043,
uni002D.case,
uni2012.case,
uni25E6.case,
uni2043.case,
uni0027,
uni0022,
uni2032,
uni2033,
uni2035,
uni2036,
uni02B9,
uni02BA,
uni002C,
uni002E,
uni003A,
uni003A.case,
uniEE01,
uni003B,
uniE093,
uniE094,
uniE095,
uniE096,
uni00B7,
uni2039,
uni203A,
uni003C,
uni003E,
uni2264,
uni2265,
uni003D,
uni2260,
uni002B,
uni2212,
uni00D7,
uni00F7,
uni00B1,
uni007E,
uni003C.case,
uni003E.case,
uni2264.case,
uni2265.case,
uni003D.case,
uni2260.case,
uni002B.case,
uni2212.case,
uni00D7.case,
uni00F7.case,
uni007E.case,
uni005F,
uni005E,
uni00AE,
uni00A9,
u1F12F,
uni2117,
uni2122,
uni00B0,
uni00B6,
uni204B,
uni221A,
uniE163,

glyphs = (
{
glyphname = .notdef;
layers = (
{
layerId = m01;
shapes = (
{
closed = 1;
nodes = (
(50,0,l),
(450,0,l),
(450,700,l),
(50,700,l)
);
},
{
closed = 1;
nodes = (
(99,50,l),
(99,651,l),
(401,651,l),
(401,50,l)
);
}
);
width = 500;
},
{
layerId = F2C6FA2E-D08A-4B94-92D2-D7CA5820546A;
shapes = (
{
closed = 1;
nodes = (
(50,0,l),
(450,0,l),
(450,700,l),
(50,700,l)
);
},
{
closed = 1;
nodes = (
(99,50,l),
(99,651,l),
(401,651,l),
(401,50,l)
);
}
);
width = 500;
},
{
layerId = F8E60EAC-58E2-4CB8-A8B6-FD6FE89414CC;
shapes = (
{
closed = 1;
nodes = (
(50,0,l),
(450,0,l),
(450,700,l),
(50,700,l)
);
},
{
closed = 1;
nodes = (
(99,50,l),
(99,651,l),
(401,651,l),
(401,50,l)
);
}
);
width = 500;
},
{
layerId = m004;
shapes = (
{
closed = 1;
nodes = (
(37,0,l),
(438,0,l),
(438,700,l),
(37,700,l)
);
},
{
closed = 1;
nodes = (
(87,50,l),
(87,651,l),
(388,651,l),
(388,50,l)
);
}
);
width = 475;
},
{
layerId = m005;
shapes = (
{
closed = 1;
nodes = (
(37,0,l),
(438,0,l),
(438,700,l),
(37,700,l)
);
},
{
closed = 1;
nodes = (
(87,50,l),
(87,651,l),
(388,651,l),
(388,50,l)
);
}
);
width = 475;
},
{
layerId = m006;
shapes = (
{
closed = 1;
nodes = (
(37,0,l),
(438,0,l),
(438,700,l),
(37,700,l)
);
},
{
closed = 1;
nodes = (
(87,50,l),
(87,651,l),
(388,651,l),
(388,50,l)
);
}
);
width = 475;
}
);
},
{
glyphname = uni0041;
kernLeft = uni0041;
kernRight = uni0041;
lastChange = "2026-04-13 07:10:46 +0000";
layers = (
{
layerId = m01;
shapes = (
{
closed = 1;
nodes = (
(314,727,l),
(587,0,l),
(684,0,l),
(411,727,l)
);
},
{
closed = 1;
nodes = (
(309,727,l),
(36,0,l),
(132,0,l),
(405,727,l)
);
},
{
closed = 1;
nodes = (
(155,205,l),
(570,205,l),
(570,284,l),
(155,284,l)
);
}
);
width = 705;
},
{
layerId = F2C6FA2E-D08A-4B94-92D2-D7CA5820546A;
shapes = (
{
closed = 1;
nodes = (
(321,727,l),
(594,0,l),
(618,0,l),
(345,727,l)
);
},
{
closed = 1;
nodes = (
(314,727,l),
(42,0,l),
(66,0,l),
(338,727,l)
);
},
{
closed = 1;
nodes = (
(145,228,l),
(515,228,l),
(515,249,l),
(145,249,l)
);
}
);
width = 651;
},
{
layerId = F8E60EAC-58E2-4CB8-A8B6-FD6FE89414CC;
shapes = (
{
closed = 1;
nodes = (
(517,727,l),
(797,0,l),
(1137,0,l),
(859,727,l)
);
},
{
closed = 1;
nodes = (
(313,727,l),
(35,0,l),
(375,0,l),
(654,727,l)
);
},
{
closed = 1;
nodes = (
(347,125,l),
(853,125,l),
(853,352,l),
(347,352,l)
);
}
);
width = 1152;
},
{
layerId = m004;
shapes = (
{
closed = 1;
nodes = (
(305,727,l),
(578,0,l),
(675,0,l),
(402,727,l)
);
},
{
closed = 1;
nodes = (
(300,727,l),
(27,0,l),
(124,0,l),
(396,727,l)
);
},
{
closed = 1;
nodes = (
(146,205,l),
(561,205,l),
(561,284,l),
(146,284,l)
);
}
);
width = 686;
},
{
layerId = m005;
shapes = (
{
closed = 1;
nodes = (
(311,727,l),
(583,0,l),
(607,0,l),
(335,727,l)
);
},
{
closed = 1;
nodes = (
(304,727,l),
(31,0,l),
(55,0,l),
(327,727,l)
);
},
{
closed = 1;
nodes = (
(134,228,l),
(504,228,l),
(504,249,l),
(134,249,l)
);
}
);
width = 628;
},
{
layerId = m006;
shapes = (
{
closed = 1;
nodes = (
(509,727,l),
(788,0,l),
(1129,0,l),
(850,727,l)
);
},
{
closed = 1;
nodes = (
(305,727,l),
(26,0,l),
(367,0,l),
(645,727,l)
);
},
{
closed = 1;
nodes = (
(339,125,l),
(844,125,l),
(844,352,l),
(339,352,l)
);
}
);
width = 1134;
}
);
note = uni0041;
unicode = 65;
},
{
glyphname = uni0042;
lastChange = "2026-04-09 08:54:05 +0000";
layers = (
{
layerId = m01;
shapes = (
{
closed = 1;
nodes = (
(142,404,l),
(142,648,l),
(345,648,l),
(413,648,o),
(467,593,o),
(467,526,c),
(467,458,o),
(413,404,o),
(345,404,c)
);
},
{
closed = 1;
nodes = (
(67,727,l),
(67,352,l),
(375,352,l),
(479,352,o),
(563,436,o),
(563,539,c),
(563,643,o),
(479,727,o),
(375,727,c)
);
},
{
closed = 1;
nodes = (
(152,80,l),
(152,330,l),
(374,330,l),
(444,330,o),
(502,274,o),
(502,205,c),
(502,136,o),
(444,80,o),
(374,80,c)
);
},
{
closed = 1;
nodes = (
(67,375,l),
(67,0,l),
(411,0,l),
(515,0,o),
(598,84,o),
(598,188,c),
(598,291,o),
(515,375,o),
(411,375,c)
);
},
{
closed = 1;
nodes = (
(67,0,l),
(158,0,l),
(158,727,l),
(67,727,l)
);
}
);
width = 639;
},
{
layerId = F2C6FA2E-D08A-4B94-92D2-D7CA5820546A;
shapes = (
{
closed = 1;
nodes = (
(119,386,l),
(119,705,l),
(354,705,l),
(442,705,o),
(513,634,o),
(513,545,c),
(513,457,o),
(442,386,o),
(354,386,c)
);
},
{
closed = 1;
nodes = (
(97,727,l),
(97,364,l),
(352,364,l),
(453,364,o),
(534,445,o),
(534,545,c),
(534,646,o),
(453,727,o),
(352,727,c)
);
},
{
closed = 1;
nodes = (
(113,23,l),
(113,364,l),
(364,364,l),
(458,364,o),
(538,288,o),
(539,193,c),
(538,99,o),
(458,23,o),
(364,23,c)
);
},
{
closed = 1;
nodes = (
(97,386,l),
(97,0,l),
(369,0,l),
(476,0,o),
(563,86,o),
(563,193,c),
(563,300,o),
(476,386,o),
(369,386,c)
);
},
{
closed = 1;
nodes = (
(97,0,l),
(119,0,l),
(119,727,l),
(97,727,l)
);
}
);
width = 634;
},
{
layerId = F8E60EAC-58E2-4CB8-A8B6-FD6FE89414CC;
shapes = (
{
closed = 1;
nodes = (
(377,460,l),
(377,537,l),
(579,537,l),
(597,537,o),
(611,516,o),
(611,499,c),
(611,482,o),
(597,460,o),
(579,460,c)
);
},
{
closed = 1;
nodes = (
(48,727,l),
(48,364,l),
(713,364,l),
(813,364,o),
(895,445,o),
(895,546,c),
(895,646,o),
(813,727,o),
(713,727,c)
);
},
{
closed = 1;
nodes = (
(388,207,l),
(388,290,l),
(605,290,l),
(624,290,o),
(639,267,o),
(639,249,c),
(639,230,o),
(624,207,o),
(605,207,c)
);
},
{
closed = 1;
nodes = (
(48,387,l),
(48,0,l),
(747,0,l),
(854,0,o),
(940,87,o),
(940,193,c),
(940,300,o),
(854,387,o),
(747,387,c)
);
},
{
closed = 1;
nodes = (
(48,0,l),
(388,0,l),
(388,727,l),
(48,727,l)
);
}
);
width = 961;
},
{
layerId = m004;
shapes = (
{
closed = 1;
nodes = (
(126,404,l),
(126,648,l),
(328,648,l),
(396,648,o),
(451,593,o),
(451,526,c),
(451,458,o),
(396,404,o),
(328,404,c)
);
},
{
closed = 1;
nodes = (
(50,727,l),
(50,352,l),
(358,352,l),
(462,352,o),
(546,436,o),
(546,539,c),
(546,643,o),
(462,727,o),
(358,727,c)
);
},
{
closed = 1;
nodes = (
(135,80,l),
(135,330,l),
(357,330,l),
(428,330,o),
(485,274,o),
(485,205,c),
(485,136,o),
(428,80,o),
(357,80,c)
);
},
{
closed = 1;
nodes = (
(50,375,l),
(50,0,l),
(394,0,l),
(498,0,o),
(581,84,o),
(581,188,c),
(581,291,o),
(498,375,o),
(394,375,c)
);
},
{
closed = 1;
nodes = (
(50,0,l),
(142,0,l),
(142,727,l),
(50,727,l)
);
}
);
width = 608;
},
{
layerId = m005;
shapes = (
{
closed = 1;
nodes = (
(95,386,l),
(95,705,l),
(330,705,l),
(418,705,o),
(489,634,o),
(489,545,c),
(489,457,o),
(418,386,o),
(330,386,c)
);
},
{
closed = 1;
nodes = (
(72,727,l),
(72,364,l),
(328,364,l),
(429,364,o),
(510,445,o),
(510,545,c),
(510,646,o),
(429,727,o),
(328,727,c)
);
},
{
closed = 1;
nodes = (
(89,23,l),
(89,364,l),
(339,364,l),
(434,364,o),
(514,288,o),
(515,193,c),
(514,99,o),
(434,23,o),
(339,23,c)
);
},
{
closed = 1;
nodes = (
(72,386,l),
(72,0,l),
(345,0,l),
(452,0,o),
(538,86,o),
(538,193,c),
(538,300,o),
(452,386,o),
(345,386,c)
);
},
{
closed = 1;
nodes = (
(72,0,l),
(95,0,l),
(95,727,l),
(72,727,l)
);
}
);
width = 589;
},
{
layerId = m006;
shapes = (
{
closed = 1;
nodes = (
(365,460,l),
(365,537,l),
(567,537,l),
(585,537,o),
(599,516,o),
(599,499,c),
(599,482,o),
(585,460,o),
(567,460,c)
);
},
{
closed = 1;
nodes = (
(36,727,l),
(36,364,l),
(701,364,l),
(801,364,o),
(882,445,o),
(882,546,c),
(882,646,o),
(801,727,o),
(701,727,c)
);
},
{
closed = 1;
nodes = (
(376,207,l),
(376,290,l),
(593,290,l),
(612,290,o),
(627,267,o),
(627,249,c),
(627,230,o),
(612,207,o),
(593,207,c)
);
},
{
closed = 1;
nodes = (
(36,387,l),
(36,0,l),
(735,0,l),
(842,0,o),
(928,87,o),
(928,193,c),
(928,300,o),
(842,387,o),
(735,387,c)
);
},
{
closed = 1;
nodes = (
(36,0,l),
(376,0,l),
(376,727,l),
(36,727,l)
);
}
);
width = 939;
}
);
note = uni0042;
unicode = 66;
leftMetricsKey = "=uni0048";
},
{
glyphname = uni0043;
lastChange = "2026-04-09 08:54:05 +0000";
layers = (
{
layerId = m01;
shapes = (
{
closed = 1;
nodes = (
(170,737,o),
(53,598,o),
(53,365,c),
(53,131,o),
(170,-7,o),
(377,-7,c),
(542,-7,o),
(650,81,o),
(687,235,c),
(578,235,l),
(550,130,o),
(482,72,o),
(377,72,c),
(234,72,o),
(160,179,o),
(160,365,c),
(160,551,o),
(234,658,o),
(377,658,c),
(482,658,o),
(550,600,o),
(578,494,c),
(687,494,l),
(650,649,o),
(542,737,o),
(377,737,c)
);
}
);
width = 726;
},
{
layerId = F2C6FA2E-D08A-4B94-92D2-D7CA5820546A;
shapes = (
{
closed = 1;
nodes = (
(172,737,o),
(76,570,o),
(76,364,c),
(76,159,o),
(172,-8,o),
(376,-8,c),
(537,-8,o),
(631,94,o),
(665,238,c),
(642,238,l),
(611,103,o),
(525,12,o),
(378,12,c),
(188,12,o),
(102,168,o),
(102,364,c),
(102,561,o),
(188,716,o),
(378,716,c),
(525,716,o),
(611,625,o),
(642,490,c),
(665,490,l),
(631,634,o),
(537,737,o),
(376,737,c)
);
}
);
width = 734;
},
{
layerId = F8E60EAC-58E2-4CB8-A8B6-FD6FE89414CC;
shapes = (
{
closed = 1;
nodes = (
(179,737,o),
(39,570,o),
(39,365,c),
(39,159,o),
(179,-7,o),
(477,-7,c),
(753,-7,o),
(893,136,o),
(912,321,c),
(583,321,l),
(572,258,o),
(537,212,o),
(477,212,c),
(402,212,o),
(368,280,o),
(368,365,c),
(368,450,o),
(402,518,o),
(477,518,c),
(535,518,o),
(569,476,o),
(581,417,c),
(912,417,l),
(889,598,o),
(749,737,o),
(477,737,c)
);
}
);
width = 936;
},
{
layerId = m004;
shapes = (
{
closed = 1;
nodes = (
(157,737,o),
(40,598,o),
(40,365,c),
(40,131,o),
(157,-7,o),
(364,-7,c),
(529,-7,o),
(637,81,o),
(674,235,c),
(565,235,l),
(537,130,o),
(469,72,o),
(364,72,c),
(221,72,o),
(147,179,o),
(147,365,c),
(147,551,o),
(221,658,o),
(364,658,c),
(469,658,o),
(537,600,o),
(565,494,c),
(674,494,l),
(637,649,o),
(529,737,o),
(364,737,c)
);
}
);
width = 700;
},
{
layerId = m005;
shapes = (
{
closed = 1;
nodes = (
(153,737,o),
(57,570,o),
(57,364,c),
(57,159,o),
(153,-8,o),
(357,-8,c),
(518,-8,o),
(612,94,o),
(646,238,c),
(623,238,l),
(592,103,o),
(506,12,o),
(359,12,c),
(169,12,o),
(82,168,o),
(82,364,c),
(82,561,o),
(169,716,o),
(359,716,c),
(506,716,o),
(592,625,o),
(623,490,c),
(646,490,l),
(612,634,o),
(518,737,o),
(357,737,c)
);
}
);
width = 695;
},
{
layerId = m006;
shapes = (
{
closed = 1;
nodes = (
(169,737,o),
(29,570,o),
(29,365,c),
(29,159,o),
(169,-7,o),
(467,-7,c),
(744,-7,o),
(884,136,o),
(903,321,c),
(573,321,l),
(563,258,o),
(528,212,o),
(467,212,c),
(393,212,o),
(358,280,o),
(358,365,c),
(358,450,o),
(393,518,o),
(467,518,c),
(525,518,o),
(559,476,o),
(572,417,c),
(902,417,l),
(880,598,o),
(739,737,o),
(467,737,c)
);
}
);
width = 915;
}
);
note = uni0043;
unicode = 67;
leftMetricsKey = "=uni004F";
},
{
glyphname = uni0044;
lastChange = "2026-04-09 08:54:05 +0000";
layers = (
{
layerId = m01;
shapes = (
{
closed = 1;
nodes = (
(347,0,ls),
(520,0,o),
(659,134,o),
(659,364,cs),
(659,593,o),
(520,727,o),
(347,727,cs),
(67,727,l),
(67,0,l)
);
},
{
closed = 1;
nodes = (
(158,649,l),
(316,649,ls),
(452,649,o),
(556,571,o),
(556,364,cs),
(556,156,o),
(452,80,o),
(316,80,cs),
(158,80,l)
);
}
);
width = 712;
},
{
layerId = F2C6FA2E-D08A-4B94-92D2-D7CA5820546A;
shapes = (
{
closed = 1;
nodes = (
(341,0,ls),
(513,0,o),
(653,134,o),
(653,364,cs),
(653,593,o),
(513,727,o),
(341,727,cs),
(97,727,l),
(97,0,l)
);
},
{
closed = 1;
nodes = (
(119,705,l),
(341,705,ls),
(481,705,o),
(630,593,o),
(630,364,cs),
(630,134,o),
(480,22,o),
(340,22,cs),
(119,22,l)
);
}
);
width = 729;
},
{
layerId = F8E60EAC-58E2-4CB8-A8B6-FD6FE89414CC;
shapes = (
{
closed = 1;
nodes = (
(605,0,ls),
(803,0,o),
(962,134,o),
(962,364,cs),
(962,593,o),
(803,727,o),
(605,727,cs),
(48,727,l),
(48,0,l)
);
},
{
closed = 1;
nodes = (
(389,501,l),
(482,501,ls),
(561,501,o),
(622,463,o),
(622,364,cs),
(622,265,o),
(561,227,o),
(482,227,cs),
(389,227,l)
);
}
);
width = 1008;
},
{
layerId = m004;
shapes = (
{
closed = 1;
nodes = (
(331,0,ls),
(503,0,o),
(642,134,o),
(642,364,cs),
(642,593,o),
(503,727,o),
(331,727,cs),
(50,727,l),
(50,0,l)
);
},
{
closed = 1;
nodes = (
(141,649,l),
(299,649,ls),
(436,649,o),
(539,571,o),
(539,364,cs),
(539,156,o),
(436,80,o),
(299,80,cs),
(141,80,l)
);
}
);
width = 682;
},
{
layerId = m005;
shapes = (
{
closed = 1;
nodes = (
(317,0,ls),
(489,0,o),
(629,134,o),
(629,364,cs),
(629,593,o),
(489,727,o),
(317,727,cs),
(72,727,l),
(72,0,l)
);
},
{
closed = 1;
nodes = (
(95,705,l),
(317,705,ls),
(457,705,o),
(606,593,o),
(606,364,cs),
(606,134,o),
(456,22,o),
(316,22,cs),
(95,22,l)
);
}
);
width = 685;
},
{
layerId = m006;
shapes = (
{
closed = 1;
nodes = (
(593,0,ls),
(790,0,o),
(950,134,o),
(950,364,cs),
(950,593,o),
(790,727,o),
(593,727,cs),
(36,727,l),
(36,0,l)
);
},
{
closed = 1;
nodes = (
(377,501,l),
(469,501,ls),
(549,501,o),
(610,463,o),
(610,364,cs),
(610,265,o),
(549,227,o),
(469,227,cs),
(377,227,l)
);
}
);
width = 985;
}
);
note = uni0044;
unicode = 68;
leftMetricsKey = "=uni0048";
},
{
glyphname = uni0045;
lastChange = "2026-04-09 08:54:05 +0000";
layers = (
{
layerId = m01;
shapes = (
{
closed = 1;
nodes = (
(67,0,l),
(158,0,l),
(158,727,l),
(67,727,l)
);
},
{
closed = 1;
nodes = (
(91,647,l),
(511,647,l),
(511,727,l),
(91,727,l)
);
},
{
closed = 1;
nodes = (
(89,0,l),
(511,0,l),
(511,80,l),
(89,80,l)
);
},
{
closed = 1;
nodes = (
(84,324,l),
(504,324,l),
(504,404,l),
(84,404,l)
);
}
);
width = 567;
},
{
layerId = F2C6FA2E-D08A-4B94-92D2-D7CA5820546A;
shapes = (
{
closed = 1;
nodes = (
(97,0,l),
(119,0,l),
(119,727,l),
(97,727,l)
);
},
{
closed = 1;
nodes = (
(98,710,l),
(525,710,l),
(525,727,l),
(98,727,l)
);
},
{
closed = 1;
nodes = (
(121,0,l),
(525,0,l),
(525,17,l),
(121,17,l)
);
},
{
closed = 1;
nodes = (
(121,358,l),
(517,358,l),
(517,375,l),
(121,375,l)
);
}
);
width = 600;
},
{
layerId = F8E60EAC-58E2-4CB8-A8B6-FD6FE89414CC;
shapes = (
{
closed = 1;
nodes = (
(48,0,l),
(389,0,l),
(389,727,l),
(48,727,l)
);
},
{
closed = 1;
nodes = (
(105,500,l),
(843,500,l),
(843,727,l),
(105,727,l)
);
},
{
closed = 1;
nodes = (
(105,0,l),
(843,0,l),
(843,227,l),
(105,227,l)
);
},
{
closed = 1;
nodes = (
(105,279,l),
(843,279,l),
(843,448,l),
(105,448,l)
);
}
);
width = 893;
},
{
layerId = m004;
shapes = (
{
closed = 1;
nodes = (
(50,0,l),
(141,0,l),
(141,727,l),
(50,727,l)
);
},
{
closed = 1;
nodes = (
(75,647,l),
(495,647,l),
(495,727,l),
(75,727,l)
);
},
{
closed = 1;
nodes = (
(73,0,l),
(495,0,l),
(495,80,l),
(73,80,l)
);
},
{
closed = 1;
nodes = (
(67,324,l),
(488,324,l),
(488,404,l),
(67,404,l)
);
}
);
width = 537;
},
{
layerId = m005;
shapes = (
{
closed = 1;
nodes = (
(72,0,l),
(95,0,l),
(95,727,l),
(72,727,l)
);
},
{
closed = 1;
nodes = (
(74,710,l),
(500,710,l),
(500,727,l),
(74,727,l)
);
},
{
closed = 1;
nodes = (
(97,0,l),
(500,0,l),
(500,17,l),
(97,17,l)
);
},
{
closed = 1;
nodes = (
(97,358,l),
(493,358,l),
(493,375,l),
(97,375,l)
);
}
);
width = 557;
},
{
layerId = m006;
shapes = (
{
closed = 1;
nodes = (
(36,0,l),
(377,0,l),
(377,727,l),
(36,727,l)
);
},
{
closed = 1;
nodes = (
(93,500,l),
(831,500,l),
(831,727,l),
(93,727,l)
);
},
{
closed = 1;
nodes = (
(93,0,l),
(831,0,l),
(831,227,l),
(93,227,l)
);
},
{
closed = 1;
nodes = (
(93,279,l),
(831,279,l),
(831,448,l),
(93,448,l)
);
}
);
width = 869;
}
);
note = uni0045;
unicode = 69;
leftMetricsKey = "=uni0048";
},
{
glyphname = uni0046;
kernLeft = uni0046;
kernRight = uni0046;
lastChange = "2026-04-09 08:54:05 +0000";
layers = (
{
layerId = m01;
shapes = (
{
closed = 1;
nodes = (
(67,0,l),
(158,0,l),
(158,727,l),
(67,727,l)
);
},
{
closed = 1;
nodes = (
(97,648,l),
(506,648,l),
(506,727,l),
(97,727,l)
);
},
{
closed = 1;
nodes = (
(84,324,l),
(499,324,l),
(499,404,l),
(84,404,l)
);
}
);
width = 560;
},
{
layerId = F2C6FA2E-D08A-4B94-92D2-D7CA5820546A;
shapes = (
{
closed = 1;
nodes = (
(97,0,l),
(119,0,l),
(119,727,l),
(97,727,l)
);
},
{
closed = 1;
nodes = (
(97,710,l),
(517,710,l),
(517,727,l),
(97,727,l)
);
},
{
closed = 1;
nodes = (
(97,358,l),
(510,358,l),
(510,375,l),
(97,375,l)
);
}
);
width = 597;
},
{
layerId = F8E60EAC-58E2-4CB8-A8B6-FD6FE89414CC;
shapes = (
{
closed = 1;
nodes = (
(48,0,l),
(389,0,l),
(389,727,l),
(48,727,l)
);
},
{
closed = 1;
nodes = (
(72,500,l),
(844,500,l),
(844,727,l),
(72,727,l)
);
},
{
closed = 1;
nodes = (
(72,279,l),
(844,279,l),
(844,448,l),
(72,448,l)
);
}
);
width = 881;
},
{
layerId = m004;
shapes = (
{
closed = 1;
nodes = (
(50,0,l),
(141,0,l),
(141,727,l),
(50,727,l)
);
},
{
closed = 1;
nodes = (
(80,648,l),
(489,648,l),
(489,727,l),
(80,727,l)
);
},
{
closed = 1;
nodes = (
(67,324,l),
(482,324,l),
(482,404,l),
(67,404,l)
);
}
);
width = 530;
},
{
layerId = m005;
shapes = (
{
closed = 1;
nodes = (
(72,0,l),
(95,0,l),
(95,727,l),
(72,727,l)
);
},
{
closed = 1;
nodes = (
(72,710,l),
(493,710,l),
(493,727,l),
(72,727,l)
);
},
{
closed = 1;
nodes = (
(72,358,l),
(486,358,l),
(486,375,l),
(72,375,l)
);
}
);
width = 553;
},
{
layerId = m006;
shapes = (
{
closed = 1;
nodes = (
(36,0,l),
(377,0,l),
(377,727,l),
(36,727,l)
);
},
{
closed = 1;
nodes = (
(60,500,l),
(832,500,l),
(832,727,l),
(60,727,l)
);
},
{
closed = 1;
nodes = (
(60,279,l),
(832,279,l),
(832,448,l),
(60,448,l)
);
}
);
width = 860;
}
);
note = uni0046;
unicode = 70;
leftMetricsKey = "=uni0048";
},
{
glyphname = uni0047;
lastChange = "2026-04-10 15:31:20 +0000";
layers = (
{
layerId = m01;
shapes = (
{
closed = 1;
nodes = (
(584,-9,o),
(689,138,o),
(701,325,c),
(702,338,o),
(702,390,o),
(702,402,c),
(612,402,l),
(612,390,o),
(611,338,o),
(610,325,c),
(598,181,o),
(517,70,o),
(377,70,c),
(225,70,o),
(143,202,o),
(143,363,c),
(143,526,o),
(225,657,o),
(377,657,c),
(478,657,o),
(581,598,o),
(592,479,c),
(689,479,l),
(676,613,o),
(565,736,o),
(377,736,c),
(156,736,o),
(53,569,o),
(53,363,c),
(53,158,o),
(156,-9,o),
(377,-9,c)
);
},
{
closed = 1;
nodes = (
(695,325,l),
(695,363,l),
(695,402,l),
(359,402,l),
(359,325,l)
);
}
);
width = 756;
},
{
layerId = F2C6FA2E-D08A-4B94-92D2-D7CA5820546A;
shapes = (
{
closed = 1;
nodes = (
(581,-8,o),
(681,138,o),
(692,325,c),
(693,338,o),
(694,362,o),
(694,375,c),
(673,375,l),
(673,368,o),
(673,336,o),
(671,321,c),
(656,146,o),
(565,12,o),
(386,12,c),
(192,12,o),
(98,167,o),
(98,364,c),
(98,562,o),
(192,716,o),
(386,716,c),
(536,716,o),
(652,604,o),
(652,479,c),
(674,479,l),
(674,607,o),
(569,736,o),
(385,736,c),
(174,736,o),
(76,569,o),
(76,363,c),
(76,158,o),
(175,-8,o),
(385,-8,c)
);
},
{
closed = 1;
nodes = (
(686,355,l),
(686,363,l),
(686,375,l),
(350,375,l),
(350,355,l)
);
}
);
width = 774;
},
{
layerId = F8E60EAC-58E2-4CB8-A8B6-FD6FE89414CC;
shapes = (
{
closed = 1;
nodes = (
(812,-11,o),
(964,138,o),
(982,325,c),
(983,338,o),
(983,422,o),
(983,435,c),
(667,435,l),
(667,428,o),
(666,350,o),
(666,343,c),
(666,238,o),
(593,210,o),
(509,210,c),
(419,210,o),
(370,278,o),
(370,363,c),
(370,449,o),
(404,535,o),
(509,535,c),
(579,535,o),
(597,496,o),
(614,479,c),
(968,479,l),
(917,646,o),
(745,738,o),
(512,738,c),
(190,738,o),
(39,569,o),
(39,363,c),
(39,158,o),
(190,-11,o),
(512,-11,c)
);
},
{
closed = 1;
nodes = (
(953,287,l),
(953,337,l),
(953,435,l),
(458,435,l),
(458,287,l)
);
}
);
width = 1023;
},
{
layerId = m004;
shapes = (
{
closed = 1;
nodes = (
(571,-9,o),
(675,138,o),
(688,325,c),
(689,338,o),
(689,390,o),
(689,402,c),
(598,402,l),
(598,390,o),
(598,338,o),
(597,325,c),
(585,181,o),
(504,70,o),
(364,70,c),
(212,70,o),
(130,202,o),
(130,363,c),
(130,526,o),
(212,657,o),
(364,657,c),
(464,657,o),
(568,598,o),
(578,479,c),
(676,479,l),
(663,613,o),
(552,736,o),
(364,736,c),
(143,736,o),
(40,569,o),
(40,363,c),
(40,158,o),
(143,-9,o),
(364,-9,c)
);
},
{
closed = 1;
nodes = (
(682,325,l),
(682,363,l),
(682,402,l),
(346,402,l),
(346,325,l)
);
}
);
width = 730;
},
{
layerId = m005;
shapes = (
{
closed = 1;
nodes = (
(562,-8,o),
(662,138,o),
(673,325,c),
(674,338,o),
(674,362,o),
(674,375,c),
(654,375,l),
(654,368,o),
(653,336,o),
(652,321,c),
(637,146,o),
(545,12,o),
(367,12,c),
(173,12,o),
(79,167,o),
(79,364,c),
(79,562,o),
(173,716,o),
(366,716,c),
(517,716,o),
(632,604,o),
(632,479,c),
(655,479,l),
(655,607,o),
(550,736,o),
(365,736,c),
(155,736,o),
(57,569,o),
(57,363,c),
(57,158,o),
(156,-8,o),
(366,-8,c)
);
},
{
closed = 1;
nodes = (
(667,355,l),
(667,363,l),
(667,375,l),
(331,375,l),
(331,355,l)
);
}
);
width = 735;
},
{
layerId = m006;
shapes = (
{
closed = 1;
nodes = (
(802,-11,o),
(954,138,o),
(972,325,c),
(973,338,o),
(974,422,o),
(974,435,c),
(657,435,l),
(657,428,o),
(657,350,o),
(656,343,c),
(656,238,o),
(583,210,o),
(500,210,c),
(409,210,o),
(360,278,o),
(360,363,c),
(360,449,o),
(395,535,o),
(500,535,c),
(569,535,o),
(587,496,o),
(604,479,c),
(958,479,l),
(907,646,o),
(736,738,o),
(502,738,c),
(181,738,o),
(29,569,o),
(29,363,c),
(29,158,o),
(181,-11,o),
(502,-11,c)
);
},
{
closed = 1;
nodes = (
(943,287,l),
(943,337,l),
(943,435,l),
(448,435,l),
(448,287,l)
);
}
);
width = 1004;
}
);
note = uni0047;
unicode = 71;
leftMetricsKey = "=uni004F";
},
{
glyphname = uni0048;
lastChange = "2026-04-09 08:54:05 +0000";
layers = (
{
layerId = m01;
shapes = (
{
closed = 1;
nodes = (
(67,0,l),
(158,0,l),
(158,727,l),
(67,727,l)
);
},
{
closed = 1;
nodes = (
(539,0,l),
(630,0,l),
(630,727,l),
(539,727,l)
);
},
{
closed = 1;
nodes = (
(118,324,l),
(596,324,l),
(596,404,l),
(118,404,l)
);
}
);
width = 697;
},
{
layerId = F2C6FA2E-D08A-4B94-92D2-D7CA5820546A;
shapes = (
{
closed = 1;
nodes = (
(97,0,l),
(119,0,l),
(119,727,l),
(97,727,l)
);
},
{
closed = 1;
nodes = (
(568,0,l),
(591,0,l),
(591,727,l),
(568,727,l)
);
},
{
closed = 1;
nodes = (
(104,350,l),
(581,350,l),
(581,369,l),
(104,369,l)
);
}
);
width = 687;
},
{
layerId = F8E60EAC-58E2-4CB8-A8B6-FD6FE89414CC;
shapes = (
{
closed = 1;
nodes = (
(48,0,l),
(388,0,l),
(388,727,l),
(48,727,l)
);
},
{
closed = 1;
nodes = (
(650,0,l),
(990,0,l),
(990,727,l),
(650,727,l)
);
},
{
closed = 1;
nodes = (
(263,239,l),
(740,239,l),
(740,466,l),
(263,466,l)
);
}
);
width = 1038;
},
{
layerId = m004;
shapes = (
{
closed = 1;
nodes = (
(50,0,l),
(142,0,l),
(142,727,l),
(50,727,l)
);
},
{
closed = 1;
nodes = (
(522,0,l),
(613,0,l),
(613,727,l),
(522,727,l)
);
},
{
closed = 1;
nodes = (
(102,324,l),
(579,324,l),
(579,404,l),
(102,404,l)
);
}
);
width = 663;
},
{
layerId = m005;
shapes = (
{
closed = 1;
nodes = (
(72,0,l),
(95,0,l),
(95,727,l),
(72,727,l)
);
},
{
closed = 1;
nodes = (
(544,0,l),
(566,0,l),
(566,727,l),
(544,727,l)
);
},
{
closed = 1;
nodes = (
(80,350,l),
(557,350,l),
(557,369,l),
(80,369,l)
);
}
);
width = 639;
},
{
layerId = m006;
shapes = (
{
closed = 1;
nodes = (
(36,0,l),
(376,0,l),
(376,727,l),
(36,727,l)
);
},
{
closed = 1;
nodes = (
(637,0,l),
(978,0,l),
(978,727,l),
(637,727,l)
);
},
{
closed = 1;
nodes = (
(251,239,l),
(728,239,l),
(728,466,l),
(251,466,l)
);
}
);
width = 1014;
}
);
note = uni0048;
unicode = 72;
},
{
glyphname = uni0049;
lastChange = "2026-04-09 08:54:05 +0000";
layers = (
{
layerId = m01;
shapes = (
{
closed = 1;
nodes = (
(67,0,l),
(158,0,l),
(158,727,l),
(67,727,l)
);
}
);
width = 225;
},
{
layerId = F2C6FA2E-D08A-4B94-92D2-D7CA5820546A;
shapes = (
{
closed = 1;
nodes = (
(97,0,l),
(120,0,l),
(120,727,l),
(97,727,l)
);
}
);
width = 216;
},
{
layerId = F8E60EAC-58E2-4CB8-A8B6-FD6FE89414CC;
shapes = (
{
closed = 1;
nodes = (
(48,0,l),
(388,0,l),
(388,727,l),
(48,727,l)
);
}
);
width = 436;
},
{
layerId = m004;
shapes = (
{
closed = 1;
nodes = (
(50,0,l),
(142,0,l),
(142,727,l),
(50,727,l)
);
}
);
width = 192;
},
{
layerId = m005;
shapes = (
{
closed = 1;
nodes = (
(72,0,l),
(96,0,l),
(96,727,l),
(72,727,l)
);
}
);
width = 168;
},
{
layerId = m006;
shapes = (
{
closed = 1;
nodes = (
(36,0,l),
(376,0,l),
(376,727,l),
(36,727,l)
);
}
);
width = 412;
}
);
note = uni0049;
unicode = 73;
leftMetricsKey = "=uni0048";
},
{
glyphname = uni004A;
lastChange = "2026-04-09 08:54:05 +0000";
layers = (
{
layerId = m01;
shapes = (
{
closed = 1;
nodes = (
(479,727,l),
(387,727,l),
(387,189,l),
(387,119,o),
(331,63,o),
(261,63,c),
(192,63,o),
(135,119,o),
(135,189,c),
(44,189,l),
(44,80,o),
(141,-17,o),
(261,-17,c),
(382,-17,o),
(479,80,o),
(479,201,c)
);
}
);
width = 532;
},
{
layerId = F2C6FA2E-D08A-4B94-92D2-D7CA5820546A;
shapes = (
{
closed = 1;
nodes = (
(431,727,l),
(409,727,l),
(409,178,l),
(409,89,o),
(349,10,o),
(249,10,c),
(158,10,o),
(89,82,o),
(89,178,c),
(67,178,l),
(63,73,o),
(147,-13,o),
(246,-13,c),
(337,-13,o),
(431,52,o),
(431,179,c)
);
}
);
width = 520;
},
{
layerId = F8E60EAC-58E2-4CB8-A8B6-FD6FE89414CC;
shapes = (
{
closed = 1;
nodes = (
(975,727,l),
(631,727,l),
(631,310,l),
(631,255,o),
(579,212,o),
(502,212,c),
(425,212,o),
(374,255,o),
(374,310,c),
(30,310,l),
(38,75,o),
(205,-17,o),
(502,-17,c),
(807,-17,o),
(975,80,o),
(975,326,c)
);
}
);
width = 1001;
},
{
layerId = m004;
shapes = (
{
closed = 1;
nodes = (
(468,727,l),
(376,727,l),
(376,189,l),
(376,119,o),
(320,63,o),
(250,63,c),
(181,63,o),
(124,119,o),
(124,189,c),
(33,189,l),
(33,80,o),
(130,-17,o),
(250,-17,c),
(371,-17,o),
(468,80,o),
(468,201,c)
);
}
);
width = 503;
},
{
layerId = m005;
shapes = (
{
closed = 1;
nodes = (
(416,727,l),
(393,727,l),
(393,178,l),
(393,89,o),
(333,10,o),
(233,10,c),
(142,10,o),
(74,82,o),
(74,178,c),
(51,178,l),
(48,73,o),
(131,-13,o),
(230,-13,c),
(322,-13,o),
(416,52,o),
(416,179,c)
);
}
);
width = 478;
},
{
layerId = m006;
shapes = (
{
closed = 1;
nodes = (
(967,727,l),
(624,727,l),
(624,310,l),
(624,255,o),
(572,212,o),
(495,212,c),
(418,212,o),
(366,255,o),
(366,310,c),
(22,310,l),
(30,75,o),
(198,-17,o),
(495,-17,c),
(799,-17,o),
(967,80,o),
(967,326,c)
);
}
);
width = 980;
}
);
note = uni004A;
unicode = 74;
},
{
glyphname = uni004B;
kernLeft = uni004B;
kernRight = uni004B;
lastChange = "2026-04-14 12:39:21 +0000";
layers = (
{
layerId = m01;
shapes = (
{
closed = 1;
nodes = (
(67,0,l),
(158,0,l),
(158,727,l),
(67,727,l)
);
},
{
closed = 1;
nodes = (
(488,727,l),
(158,398,l),
(277,398,l),
(607,727,l)
);
},
{
closed = 1;
nodes = (
(158,398,l),
(516,0,l),
(635,0,l),
(277,398,l)
);
}
);
width = 671;
},
{
layerId = F2C6FA2E-D08A-4B94-92D2-D7CA5820546A;
shapes = (
{
closed = 1;
nodes = (
(97,0,l),
(119,0,l),
(119,727,l),
(97,727,l)
);
},
{
closed = 1;
nodes = (
(505,727,l),
(119,398,l),
(153,398,l),
(539,727,l)
);
},
{
closed = 1;
nodes = (
(119,398,l),
(534,0,l),
(568,0,l),
(153,398,l)
);
}
);
width = 625;
},
{
layerId = F8E60EAC-58E2-4CB8-A8B6-FD6FE89414CC;
shapes = (
{
closed = 1;
nodes = (
(46,0,l),
(387,0,l),
(387,727,l),
(46,727,l)
);
},
{
closed = 1;
nodes = (
(716,727,l),
(387,398,l),
(756,398,l),
(1086,727,l)
);
},
{
closed = 1;
nodes = (
(387,398,l),
(761,0,l),
(1131,0,l),
(756,398,l)
);
}
);
width = 1158;
},
{
layerId = m004;
shapes = (
{
closed = 1;
nodes = (
(50,0,l),
(141,0,l),
(141,727,l),
(50,727,l)
);
},
{
closed = 1;
nodes = (
(471,727,l),
(141,398,l),
(261,398,l),
(590,727,l)
);
},
{
closed = 1;
nodes = (
(141,398,l),
(500,0,l),
(619,0,l),
(261,398,l)
);
}
);
width = 646;
},
{
layerId = m005;
shapes = (
{
closed = 1;
nodes = (
(72,0,l),
(95,0,l),
(95,727,l),
(72,727,l)
);
},
{
closed = 1;
nodes = (
(481,727,l),
(95,398,l),
(129,398,l),
(515,727,l)
);
},
{
closed = 1;
nodes = (
(95,398,l),
(510,0,l),
(544,0,l),
(129,398,l)
);
}
);
width = 586;
},
{
layerId = m006;
shapes = (
{
closed = 1;
nodes = (
(34,0,l),
(375,0,l),
(375,727,l),
(34,727,l)
);
},
{
closed = 1;
nodes = (
(705,727,l),
(375,398,l),
(745,398,l),
(1074,727,l)
);
},
{
closed = 1;
nodes = (
(375,398,l),
(750,0,l),
(1120,0,l),
(745,398,l)
);
}
);
width = 1140;
}
);
note = uni004B;
unicode = 75;
},
{
glyphname = uni004C;
kernLeft = uni004C;
kernRight = uni004C;
lastChange = "2026-04-09 08:54:05 +0000";
layers = (
{
layerId = m01;
shapes = (
{
closed = 1;
nodes = (
(67,0,l),
(158,0,l),
(158,727,l),
(67,727,l)
);
},
{
closed = 1;
nodes = (
(67,0,l),
(516,0,l),
(516,80,l),
(67,80,l)
);
}
);
width = 549;
},
{
layerId = F2C6FA2E-D08A-4B94-92D2-D7CA5820546A;
shapes = (
{
closed = 1;
nodes = (
(97,0,l),
(119,0,l),
(119,727,l),
(97,727,l)
);
},
{
closed = 1;
nodes = (
(97,0,l),
(517,0,l),
(517,20,l),
(97,20,l)
);
}
);
width = 564;
},
{
layerId = F8E60EAC-58E2-4CB8-A8B6-FD6FE89414CC;
shapes = (
{
closed = 1;
nodes = (
(48,0,l),
(389,0,l),
(389,727,l),
(48,727,l)
);
},
{
closed = 1;
nodes = (
(48,0,l),
(843,0,l),
(843,227,l),
(48,227,l)
);
}
);
width = 869;
},
{
layerId = m004;
shapes = (
{
closed = 1;
nodes = (
(50,0,l),
(141,0,l),
(141,727,l),
(50,727,l)
);
},
{
closed = 1;
nodes = (
(50,0,l),
(499,0,l),
(499,80,l),
(50,80,l)
);
}
);
width = 519;
},
{
layerId = m005;
shapes = (
{
closed = 1;
nodes = (
(72,0,l),
(95,0,l),
(95,727,l),
(72,727,l)
);
},
{
closed = 1;
nodes = (
(72,0,l),
(493,0,l),
(493,20,l),
(72,20,l)
);
}
);
width = 525;
},
{
layerId = m006;
shapes = (
{
closed = 1;
nodes = (
(36,0,l),
(377,0,l),
(377,727,l),
(36,727,l)
);
},
{
closed = 1;
nodes = (
(36,0,l),
(831,0,l),
(831,227,l),
(36,227,l)
);
}
);
width = 840;
}
);
note = uni004C;
unicode = 76;
leftMetricsKey = "=uni0048";
},
{
glyphname = uni004D;
lastChange = "2026-04-09 08:54:05 +0000";
layers = (
{
layerId = m01;
shapes = (
{
closed = 1;
nodes = (
(69,0,l),
(160,0,l),
(160,727,l),
(69,727,l)
);
},
{
closed = 1;
nodes = (
(681,0,l),
(772,0,l),
(772,727,l),
(681,727,l)
);
},
{
closed = 1;
nodes = (
(662,727,l),
(378,0,l),
(471,0,l),
(755,727,l)
);
},
{
closed = 1;
nodes = (
(92,727,l),
(376,0,l),
(469,0,l),
(185,727,l)
);
}
);
width = 841;
},
{
layerId = F2C6FA2E-D08A-4B94-92D2-D7CA5820546A;
shapes = (
{
closed = 1;
nodes = (
(97,0,l),
(119,0,l),
(119,727,l),
(97,727,l)
);
},
{
closed = 1;
nodes = (
(744,0,l),
(767,0,l),
(767,727,l),
(744,727,l)
);
},
{
closed = 1;
nodes = (
(730,727,l),
(423,4,l),
(449,4,l),
(755,727,l)
);
},
{
closed = 1;
nodes = (
(108,727,l),
(414,4,l),
(440,4,l),
(133,727,l)
);
}
);
width = 863;
},
{
layerId = F8E60EAC-58E2-4CB8-A8B6-FD6FE89414CC;
shapes = (
{
closed = 1;
nodes = (
(48,0,l),
(388,0,l),
(388,727,l),
(48,727,l)
);
},
{
closed = 1;
nodes = (
(928,0,l),
(1269,0,l),
(1269,727,l),
(928,727,l)
);
},
{
closed = 1;
nodes = (
(820,727,l),
(547,0,l),
(775,0,l),
(1048,727,l)
);
},
{
closed = 1;
nodes = (
(275,727,l),
(547,0,l),
(775,0,l),
(502,727,l)
);
}
);
width = 1317;
},
{
layerId = m004;
shapes = (
{
closed = 1;
nodes = (
(52,0,l),
(143,0,l),
(143,727,l),
(52,727,l)
);
},
{
closed = 1;
nodes = (
(664,0,l),
(755,0,l),
(755,727,l),
(664,727,l)
);
},
{
closed = 1;
nodes = (
(645,727,l),
(361,0,l),
(454,0,l),
(738,727,l)
);
},
{
closed = 1;
nodes = (
(75,727,l),
(359,0,l),
(452,0,l),
(168,727,l)
);
}
);
width = 807;
},
{
layerId = m005;
shapes = (
{
closed = 1;
nodes = (
(72,0,l),
(95,0,l),
(95,727,l),
(72,727,l)
);
},
{
closed = 1;
nodes = (
(720,0,l),
(743,0,l),
(743,727,l),
(720,727,l)
);
},
{
closed = 1;
nodes = (
(706,727,l),
(399,4,l),
(425,4,l),
(731,727,l)
);
},
{
closed = 1;
nodes = (
(84,727,l),
(390,4,l),
(416,4,l),
(109,727,l)
);
}
);
width = 815;
},
{
layerId = m006;
shapes = (
{
closed = 1;
nodes = (
(36,0,l),
(376,0,l),
(376,727,l),
(36,727,l)
);
},
{
closed = 1;
nodes = (
(916,0,l),
(1257,0,l),
(1257,727,l),
(916,727,l)
);
},
{
closed = 1;
nodes = (
(808,727,l),
(535,0,l),
(762,0,l),
(1036,727,l)
);
},
{
closed = 1;
nodes = (
(262,727,l),
(535,0,l),
(762,0,l),
(490,727,l)
);
}
);
width = 1293;
}
);
note = uni004D;
unicode = 77;
},
{
glyphname = uni004E;
lastChange = "2026-04-09 08:54:05 +0000";
layers = (
{
layerId = m01;
shapes = (
{
closed = 1;
nodes = (
(67,0,l),
(158,0,l),
(158,727,l),
(67,727,l)
);
},
{
closed = 1;
nodes = (
(539,0,l),
(630,0,l),
(630,727,l),
(539,727,l)
);
},
{
closed = 1;
nodes = (
(79,727,l),
(522,0,l),
(618,0,l),
(175,727,l)
);
}
);
width = 697;
},
{
layerId = F2C6FA2E-D08A-4B94-92D2-D7CA5820546A;
shapes = (
{
closed = 1;
nodes = (
(97,0,l),
(119,0,l),
(119,727,l),
(97,727,l)
);
},
{
closed = 1;
nodes = (
(580,0,l),
(602,0,l),
(602,727,l),
(580,727,l)
);
},
{
closed = 1;
nodes = (
(108,727,l),
(563,0,l),
(591,0,l),
(136,727,l)
);
}
);
width = 699;
},
{
layerId = F8E60EAC-58E2-4CB8-A8B6-FD6FE89414CC;
shapes = (
{
closed = 1;
nodes = (
(48,0,l),
(388,0,l),
(388,727,l),
(48,727,l)
);
},
{
closed = 1;
nodes = (
(690,0,l),
(1031,0,l),
(1031,727,l),
(690,727,l)
);
},
{
closed = 1;
nodes = (
(167,727,l),
(650,0,l),
(917,0,l),
(434,727,l)
);
}
);
width = 1078;
},
{
layerId = m004;
shapes = (
{
closed = 1;
nodes = (
(50,0,l),
(142,0,l),
(142,727,l),
(50,727,l)
);
},
{
closed = 1;
nodes = (
(522,0,l),
(613,0,l),
(613,727,l),
(522,727,l)
);
},
{
closed = 1;
nodes = (
(62,727,l),
(505,0,l),
(602,0,l),
(159,727,l)
);
}
);
width = 663;
},
{
layerId = m005;
shapes = (
{
closed = 1;
nodes = (
(72,0,l),
(95,0,l),
(95,727,l),
(72,727,l)
);
},
{
closed = 1;
nodes = (
(555,0,l),
(578,0,l),
(578,727,l),
(555,727,l)
);
},
{
closed = 1;
nodes = (
(84,727,l),
(538,0,l),
(567,0,l),
(112,727,l)
);
}
);
width = 651;
},
{
layerId = m006;
shapes = (
{
closed = 1;
nodes = (
(36,0,l),
(376,0,l),
(376,727,l),
(36,727,l)
);
},
{
closed = 1;
nodes = (
(678,0,l),
(1018,0,l),
(1018,727,l),
(678,727,l)
);
},
{
closed = 1;
nodes = (
(155,727,l),
(638,0,l),
(904,0,l),
(422,727,l)
);
}
);
width = 1054;
}
);
note = uni004E;
unicode = 78;
leftMetricsKey = "=uni0048";
},
{
glyphname = uni004F;
lastChange = "2026-04-14 12:34:43 +0000";
layers = (
{
layerId = m01;
shapes = (
{
closed = 1;
nodes = (
(227,67,o),
(155,199,o),
(155,363,c),
(155,526,o),
(227,658,o),
(380,658,c),
(533,658,o),
(604,526,o),
(604,363,c),
(604,199,o),
(533,67,o),
(380,67,c)
);
},
{
closed = 1;
nodes = (
(157,738,o),
(53,570,o),
(53,363,c),
(53,156,o),
(157,-12,o),
(380,-12,c),
(602,-12,o),
(706,156,o),
(706,363,c),
(706,570,o),
(602,738,o),
(380,738,c)
);
}
);
width = 759;
},
{
layerId = F2C6FA2E-D08A-4B94-92D2-D7CA5820546A;
shapes = (
{
closed = 1;
nodes = (
(200,5,o),
(99,165,o),
(99,363,c),
(99,560,o),
(200,719,o),
(405,719,c),
(610,719,o),
(708,560,o),
(708,363,c),
(708,165,o),
(610,5,o),
(405,5,c)
);
},
{
closed = 1;
nodes = (
(180,738,o),
(76,570,o),
(76,363,c),
(76,155,o),
(180,-12,o),
(402,-12,c),
(624,-12,o),
(730,155,o),
(730,363,c),
(730,570,o),
(624,738,o),
(402,738,c)
);
}
);
width = 806;
},
{
layerId = F8E60EAC-58E2-4CB8-A8B6-FD6FE89414CC;
shapes = (
{
closed = 1;
nodes = (
(404,208,o),
(369,277,o),
(369,363,c),
(369,448,o),
(404,517,o),
(480,517,c),
(555,517,o),
(590,448,o),
(590,363,c),
(590,277,o),
(555,208,o),
(480,208,c)
);
},
{
closed = 1;
nodes = (
(179,738,o),
(39,570,o),
(39,363,c),
(39,156,o),
(179,-12,o),
(480,-12,c),
(780,-12,o),
(920,156,o),
(920,363,c),
(920,570,o),
(780,738,o),
(480,738,c)
);
}
);
width = 960;
},
{
layerId = m004;
shapes = (
{
closed = 1;
nodes = (
(213,67,o),
(142,199,o),
(142,363,c),
(142,526,o),
(213,658,o),
(366,658,c),
(520,658,o),
(591,526,o),
(591,363,c),
(591,199,o),
(520,67,o),
(366,67,c)
);
},
{
closed = 1;
nodes = (
(144,738,o),
(40,570,o),
(40,363,c),
(40,156,o),
(144,-12,o),
(366,-12,c),
(589,-12,o),
(693,156,o),
(693,363,c),
(693,570,o),
(589,738,o),
(366,738,c)
);
}
);
width = 733;
},
{
layerId = m005;
shapes = (
{
closed = 1;
nodes = (
(180,5,o),
(80,165,o),
(80,363,c),
(80,560,o),
(180,719,o),
(386,719,c),
(591,719,o),
(689,560,o),
(689,363,c),
(689,165,o),
(591,5,o),
(386,5,c)
);
},
{
closed = 1;
nodes = (
(161,738,o),
(57,570,o),
(57,363,c),
(57,155,o),
(161,-12,o),
(383,-12,c),
(605,-12,o),
(711,155,o),
(711,363,c),
(711,570,o),
(605,738,o),
(383,738,c)
);
}
);
width = 768;
},
{
layerId = m006;
shapes = (
{
closed = 1;
nodes = (
(395,208,o),
(360,277,o),
(360,363,c),
(360,448,o),
(395,517,o),
(470,517,c),
(545,517,o),
(581,448,o),
(581,363,c),
(581,277,o),
(545,208,o),
(470,208,c)
);
},
{
closed = 1;
nodes = (
(169,738,o),
(29,570,o),
(29,363,c),
(29,156,o),
(169,-12,o),
(470,-12,c),
(770,-12,o),
(911,156,o),
(911,363,c),
(911,570,o),
(770,738,o),
(470,738,c)
);
}
);
width = 940;
}
);
note = uni004F;
unicode = 79;
},
{
glyphname = uni0050;
kernLeft = uni0050;
kernRight = uni0050;
lastChange = "2026-04-09 08:54:05 +0000";
layers = (
{
layerId = m01;
shapes = (
{
closed = 1;
nodes = (
(67,0,l),
(158,0,l),
(158,727,l),
(67,727,l)
);
},
{
closed = 1;
nodes = (
(141,727,l),
(141,648,l),
(337,648,l),
(404,648,o),
(459,593,o),
(459,526,c),
(459,458,o),
(404,404,o),
(337,404,c),
(141,404,l),
(141,324,l),
(354,324,l),
(466,324,o),
(556,414,o),
(556,526,c),
(556,637,o),
(466,727,o),
(354,727,c)
);
}
);
width = 606;
},
{
layerId = F2C6FA2E-D08A-4B94-92D2-D7CA5820546A;
shapes = (
{
closed = 1;
nodes = (
(97,0,l),
(119,0,l),
(119,727,l),
(97,727,l)
);
},
{
closed = 1;
nodes = (
(119,727,l),
(119,708,l),
(333,708,l),
(430,708,o),
(511,633,o),
(511,531,c),
(511,429,o),
(430,354,o),
(333,354,c),
(119,354,l),
(119,335,l),
(336,335,l),
(451,335,o),
(534,419,o),
(534,532,c),
(534,643,o),
(451,727,o),
(336,727,c)
);
}
);
width = 609;
},
{
layerId = F8E60EAC-58E2-4CB8-A8B6-FD6FE89414CC;
shapes = (
{
closed = 1;
nodes = (
(48,0,l),
(388,0,l),
(388,727,l),
(48,727,l)
);
},
{
closed = 1;
nodes = (
(371,727,l),
(371,509,l),
(495,509,l),
(538,509,o),
(586,512,o),
(586,471,c),
(586,431,o),
(538,434,o),
(495,434,c),
(371,434,l),
(371,216,l),
(650,216,l),
(797,216,o),
(915,331,o),
(915,472,c),
(915,613,o),
(797,727,o),
(650,727,c)
);
}
);
width = 952;
},
{
layerId = m004;
shapes = (
{
closed = 1;
nodes = (
(50,0,l),
(141,0,l),
(141,727,l),
(50,727,l)
);
},
{
closed = 1;
nodes = (
(124,727,l),
(124,648,l),
(321,648,l),
(388,648,o),
(442,593,o),
(442,526,c),
(442,458,o),
(388,404,o),
(321,404,c),
(124,404,l),
(124,324,l),
(337,324,l),
(449,324,o),
(539,414,o),
(539,526,c),
(539,637,o),
(449,727,o),
(337,727,c)
);
}
);
width = 577;
},
{
layerId = m005;
shapes = (
{
closed = 1;
nodes = (
(72,0,l),
(95,0,l),
(95,727,l),
(72,727,l)
);
},
{
closed = 1;
nodes = (
(95,727,l),
(95,708,l),
(309,708,l),
(406,708,o),
(487,633,o),
(487,531,c),
(487,429,o),
(406,354,o),
(309,354,c),
(95,354,l),
(95,335,l),
(311,335,l),
(426,335,o),
(510,419,o),
(510,532,c),
(510,643,o),
(426,727,o),
(311,727,c)
);
}
);
width = 566;
},
{
layerId = m006;
shapes = (
{
closed = 1;
nodes = (
(36,0,l),
(376,0,l),
(376,727,l),
(36,727,l)
);
},
{
closed = 1;
nodes = (
(359,727,l),
(359,509,l),
(483,509,l),
(526,509,o),
(574,512,o),
(574,471,c),
(574,431,o),
(526,434,o),
(483,434,c),
(359,434,l),
(359,216,l),
(638,216,l),
(784,216,o),
(903,331,o),
(903,472,c),
(903,613,o),
(784,727,o),
(638,727,c)
);
}
);
width = 931;
}
);
note = uni0050;
unicode = 80;
leftMetricsKey = "=uni0048";
},
{
glyphname = uni0051;
lastChange = "2026-04-09 08:54:05 +0000";
layers = (
{
layerId = m01;
shapes = (
{
closed = 1;
nodes = (
(227,78,o),
(152,210,o),
(152,369,c),
(152,528,o),
(227,660,o),
(381,660,c),
(536,660,o),
(611,528,o),
(611,369,c),
(611,210,o),
(536,78,o),
(381,78,c)
);
},
{
closed = 1;
nodes = (
(158,738,o),
(53,573,o),
(53,369,c),
(53,165,o),
(158,0,o),
(383,0,c),
(607,0,o),
(713,165,o),
(713,369,c),
(713,573,o),
(607,738,o),
(383,738,c)
);
},
{
closed = 1;
nodes = (
(398,0,l),
(751,0,l),
(751,78,l),
(398,78,l)
);
}
);
width = 804;
},
{
layerId = F2C6FA2E-D08A-4B94-92D2-D7CA5820546A;
shapes = (
{
closed = 1;
nodes = (
(199,17,o),
(99,176,o),
(99,369,c),
(99,561,o),
(199,722,o),
(403,722,c),
(608,722,o),
(708,561,o),
(708,369,c),
(708,176,o),
(608,17,o),
(403,17,c)
);
},
{
closed = 1;
nodes = (
(177,738,o),
(76,573,o),
(76,369,c),
(76,165,o),
(177,0,o),
(402,0,c),
(626,0,o),
(730,165,o),
(730,369,c),
(730,573,o),
(626,738,o),
(402,738,c)
);
},
{
closed = 1;
nodes = (
(417,0,l),
(769,0,l),
(769,17,l),
(417,17,l)
);
}
);
width = 845;
},
{
layerId = F8E60EAC-58E2-4CB8-A8B6-FD6FE89414CC;
shapes = (
{
closed = 1;
nodes = (
(399,216,o),
(364,284,o),
(364,369,c),
(364,453,o),
(399,521,o),
(473,521,c),
(547,521,o),
(582,453,o),
(582,369,c),
(582,284,o),
(547,216,o),
(473,216,c)
);
},
{
closed = 1;
nodes = (
(177,738,o),
(39,572,o),
(39,369,c),
(39,165,o),
(177,0,o),
(473,0,c),
(768,0,o),
(907,165,o),
(907,369,c),
(907,572,o),
(768,738,o),
(473,738,c)
);
},
{
closed = 1;
nodes = (
(472,0,l),
(916,0,l),
(916,168,l),
(472,168,l)
);
}
);
width = 955;
},
{
layerId = m004;
shapes = (
{
closed = 1;
nodes = (
(214,78,o),
(139,210,o),
(139,369,c),
(139,528,o),
(214,660,o),
(368,660,c),
(523,660,o),
(598,528,o),
(598,369,c),
(598,210,o),
(523,78,o),
(368,78,c)
);
},
{
closed = 1;
nodes = (
(145,738,o),
(40,573,o),
(40,369,c),
(40,165,o),
(145,0,o),
(370,0,c),
(594,0,o),
(700,165,o),
(700,369,c),
(700,573,o),
(594,738,o),
(370,738,c)
);
},
{
closed = 1;
nodes = (
(385,0,l),
(738,0,l),
(738,78,l),
(385,78,l)
);
}
);
width = 777;
},
{
layerId = m005;
shapes = (
{
closed = 1;
nodes = (
(179,17,o),
(80,176,o),
(80,369,c),
(80,561,o),
(179,722,o),
(384,722,c),
(589,722,o),
(689,561,o),
(689,369,c),
(689,176,o),
(589,17,o),
(384,17,c)
);
},
{
closed = 1;
nodes = (
(158,738,o),
(57,573,o),
(57,369,c),
(57,165,o),
(158,0,o),
(382,0,c),
(607,0,o),
(711,165,o),
(711,369,c),
(711,573,o),
(607,738,o),
(382,738,c)
);
},
{
closed = 1;
nodes = (
(398,0,l),
(750,0,l),
(750,17,l),
(398,17,l)
);
}
);
width = 807;
},
{
layerId = m006;
shapes = (
{
closed = 1;
nodes = (
(389,216,o),
(355,284,o),
(355,369,c),
(355,453,o),
(389,521,o),
(463,521,c),
(538,521,o),
(572,453,o),
(572,369,c),
(572,284,o),
(538,216,o),
(463,216,c)
);
},
{
closed = 1;
nodes = (
(167,738,o),
(29,572,o),
(29,369,c),
(29,165,o),
(167,0,o),
(463,0,c),
(759,0,o),
(897,165,o),
(897,369,c),
(897,572,o),
(759,738,o),
(463,738,c)
);
},
{
closed = 1;
nodes = (
(462,0,l),
(907,0,l),
(907,168,l),
(462,168,l)
);
}
);
width = 936;
}
);
note = uni0051;
unicode = 81;
leftMetricsKey = "=uni004F";
},
{
glyphname = uni0052;
kernLeft = uni0052;
kernRight = uni0052;
lastChange = "2026-04-09 08:54:05 +0000";
layers = (
{
layerId = m01;
shapes = (
{
closed = 1;
nodes = (
(67,0,l),
(158,0,l),
(158,727,l),
(67,727,l)
);
},
{
closed = 1;
nodes = (
(158,727,l),
(158,648,l),
(354,648,l),
(419,648,o),
(471,596,o),
(471,531,c),
(471,467,o),
(419,415,o),
(354,415,c),
(158,415,l),
(158,369,l),
(394,369,l),
(493,369,o),
(573,449,o),
(573,549,c),
(573,647,o),
(493,727,o),
(394,727,c)
);
},
{
closed = 1;
nodes = (
(341,332,l),
(410,332,o),
(471,277,o),
(471,208,c),
(471,0,l),
(567,0,l),
(567,193,l),
(567,216,l),
(567,307,o),
(494,381,o),
(403,381,c),
(158,381,l),
(158,332,l)
);
}
);
width = 611;
},
{
layerId = F2C6FA2E-D08A-4B94-92D2-D7CA5820546A;
shapes = (
{
closed = 1;
nodes = (
(97,0,l),
(119,0,l),
(119,727,l),
(97,727,l)
);
},
{
closed = 1;
nodes = (
(119,727,l),
(119,710,l),
(347,710,l),
(438,710,o),
(511,636,o),
(511,546,c),
(511,455,o),
(438,382,o),
(347,382,c),
(119,382,l),
(119,369,l),
(355,369,l),
(454,369,o),
(534,450,o),
(534,548,c),
(534,647,o),
(454,727,o),
(355,727,c)
);
},
{
closed = 1;
nodes = (
(353,363,l),
(445,363,o),
(511,302,o),
(511,206,c),
(511,0,l),
(534,0,l),
(534,193,l),
(534,216,l),
(534,307,o),
(460,382,o),
(369,382,c),
(119,381,l),
(119,363,l)
);
}
);
width = 597;
},
{
layerId = F8E60EAC-58E2-4CB8-A8B6-FD6FE89414CC;
shapes = (
{
closed = 1;
nodes = (
(48,0,l),
(388,0,l),
(388,727,l),
(48,727,l)
);
},
{
closed = 1;
nodes = (
(376,727,l),
(376,528,l),
(604,528,l),
(623,528,o),
(638,513,o),
(638,494,c),
(638,476,o),
(623,460,o),
(604,460,c),
(376,460,l),
(376,370,l),
(800,370,l),
(899,370,o),
(979,450,o),
(979,548,c),
(979,647,o),
(899,727,o),
(800,727,c)
);
},
{
closed = 1;
nodes = (
(509,287,l),
(611,287,o),
(633,265,o),
(633,163,c),
(633,0,l),
(973,0,l),
(973,193,l),
(973,216,l),
(973,306,o),
(900,381,o),
(808,381,c),
(376,381,l),
(376,287,l)
);
}
);
width = 1010;
},
{
layerId = m004;
shapes = (
{
closed = 1;
nodes = (
(50,0,l),
(141,0,l),
(141,727,l),
(50,727,l)
);
},
{
closed = 1;
nodes = (
(141,727,l),
(141,648,l),
(338,648,l),
(402,648,o),
(454,596,o),
(454,531,c),
(454,467,o),
(402,415,o),
(338,415,c),
(141,415,l),
(141,369,l),
(377,369,l),
(476,369,o),
(556,449,o),
(556,549,c),
(556,647,o),
(476,727,o),
(377,727,c)
);
},
{
closed = 1;
nodes = (
(324,332,l),
(393,332,o),
(454,277,o),
(454,208,c),
(454,0,l),
(551,0,l),
(551,193,l),
(551,216,l),
(551,307,o),
(477,381,o),
(386,381,c),
(141,381,l),
(141,332,l)
);
}
);
width = 585;
},
{
layerId = m005;
shapes = (
{
closed = 1;
nodes = (
(72,0,l),
(95,0,l),
(95,727,l),
(72,727,l)
);
},
{
closed = 1;
nodes = (
(95,727,l),
(95,710,l),
(322,710,l),
(413,710,o),
(487,636,o),
(487,546,c),
(487,455,o),
(413,382,o),
(322,382,c),
(95,382,l),
(95,369,l),
(331,369,l),
(430,369,o),
(510,450,o),
(510,548,c),
(510,647,o),
(430,727,o),
(331,727,c)
);
},
{
closed = 1;
nodes = (
(329,363,l),
(420,363,o),
(487,302,o),
(487,206,c),
(487,0,l),
(510,0,l),
(510,193,l),
(510,216,l),
(510,307,o),
(436,382,o),
(345,382,c),
(95,381,l),
(95,363,l)
);
}
);
width = 557;
},
{
layerId = m006;
shapes = (
{
closed = 1;
nodes = (
(36,0,l),
(376,0,l),
(376,727,l),
(36,727,l)
);
},
{
closed = 1;
nodes = (
(364,727,l),
(364,528,l),
(592,528,l),
(611,528,o),
(626,513,o),
(626,494,c),
(626,476,o),
(611,460,o),
(592,460,c),
(364,460,l),
(364,370,l),
(788,370,l),
(887,370,o),
(967,450,o),
(967,548,c),
(967,647,o),
(887,727,o),
(788,727,c)
);
},
{
closed = 1;
nodes = (
(497,287,l),
(599,287,o),
(621,265,o),
(621,163,c),
(621,0,l),
(961,0,l),
(961,193,l),
(961,216,l),
(961,306,o),
(887,381,o),
(796,381,c),
(364,381,l),
(364,287,l)
);
}
);
width = 990;
}
);
note = uni0052;
unicode = 82;
leftMetricsKey = "=uni0048";
},
{
glyphname = uni0053;
lastChange = "2026-04-09 08:54:05 +0000";
layers = (
{
layerId = m01;
shapes = (
{
closed = 1;
nodes = (
(285,-8,o),
(234,0,o),
(190,17,c),
(147,34,o),
(113,61,o),
(89,97,c),
(65,133,o),
(53,178,o),
(51,232,c),
(140,232,l),
(141,192,o),
(150,161,o),
(166,137,c),
(183,114,o),
(206,97,o),
(235,86,c),
(266,75,o),
(301,69,o),
(344,69,c),
(384,69,o),
(418,75,o),
(445,85,c),
(471,96,o),
(491,110,o),
(504,130,c),
(517,149,o),
(524,172,o),
(524,200,c),
(524,223,o),
(519,242,o),
(509,257,c),
(499,272,o),
(482,286,o),
(458,298,c),
(434,309,o),
(400,319,o),
(357,327,c),
(283,342,l),
(239,351,o),
(202,363,o),
(172,380,c),
(141,397,o),
(116,419,o),
(99,446,c),
(82,474,o),
(74,508,o),
(74,547,c),
(74,585,o),
(84,618,o),
(103,646,c),
(124,675,o),
(152,697,o),
(189,713,c),
(226,728,o),
(270,736,o),
(321,736,c),
(383,736,o),
(434,727,o),
(474,708,c),
(514,689,o),
(544,664,o),
(563,631,c),
(582,598,o),
(592,561,o),
(593,520,c),
(507,520,l),
(505,550,o),
(498,575,o),
(485,595,c),
(472,615,o),
(453,631,o),
(426,642,c),
(400,653,o),
(365,659,o),
(321,659,c),
(286,659,o),
(256,654,o),
(232,644,c),
(208,635,o),
(191,622,o),
(179,606,c),
(168,589,o),
(162,570,o),
(162,547,c),
(162,524,o),
(167,504,o),
(176,489,c),
(185,474,o),
(200,461,o),
(222,449,c),
(245,438,o),
(276,428,o),
(316,420,c),
(390,405,l),
(444,394,o),
(487,380,o),
(520,361,c),
(552,343,o),
(576,321,o),
(591,294,c),
(605,268,o),
(612,237,o),
(612,201,c),
(612,159,o),
(602,122,o),
(581,90,c),
(560,58,o),
(529,34,o),
(489,17,c),
(449,0,o),
(401,-8,o),
(344,-8,c)
);
}
);
width = 653;
},
{
layerId = F2C6FA2E-D08A-4B94-92D2-D7CA5820546A;
shapes = (
{
closed = 1;
nodes = (
(293,-10,o),
(243,-2,o),
(203,13,c),
(163,29,o),
(132,52,o),
(112,83,c),
(91,114,o),
(79,153,o),
(75,200,c),
(99,200,l),
(103,158,o),
(114,123,o),
(134,94,c),
(153,67,o),
(180,46,o),
(217,33,c),
(253,19,o),
(298,12,o),
(353,12,c),
(404,12,o),
(446,19,o),
(481,34,c),
(516,49,o),
(540,69,o),
(557,96,c),
(574,122,o),
(582,152,o),
(582,186,c),
(582,216,o),
(576,241,o),
(564,263,c),
(553,284,o),
(532,303,o),
(504,318,c),
(475,333,o),
(435,346,o),
(385,355,c),
(302,371,l),
(254,379,o),
(215,392,o),
(185,409,c),
(155,425,o),
(134,445,o),
(120,470,c),
(106,495,o),
(99,525,o),
(99,559,c),
(99,593,o),
(108,625,o),
(126,651,c),
(144,678,o),
(170,699,o),
(206,714,c),
(242,729,o),
(285,737,o),
(336,737,c),
(391,737,o),
(437,728,o),
(474,712,c),
(511,695,o),
(539,673,o),
(556,644,c),
(574,616,o),
(584,582,o),
(586,545,c),
(562,545,l),
(560,580,o),
(550,610,o),
(534,636,c),
(517,661,o),
(492,681,o),
(458,694,c),
(426,708,o),
(385,715,o),
(336,715,c),
(290,715,o),
(251,708,o),
(218,695,c),
(186,682,o),
(163,663,o),
(147,640,c),
(131,616,o),
(124,589,o),
(124,559,c),
(124,528,o),
(130,502,o),
(142,480,c),
(154,459,o),
(174,441,o),
(201,427,c),
(230,412,o),
(267,401,o),
(313,392,c),
(393,377,l),
(447,367,o),
(490,353,o),
(522,335,c),
(553,318,o),
(575,298,o),
(588,273,c),
(600,249,o),
(607,220,o),
(607,186,c),
(607,147,o),
(597,114,o),
(578,84,c),
(560,55,o),
(531,32,o),
(494,15,c),
(455,-1,o),
(408,-10,o),
(354,-10,c)
);
}
);
width = 675;
},
{
layerId = F8E60EAC-58E2-4CB8-A8B6-FD6FE89414CC;
shapes = (
{
closed = 1;
nodes = (
(433,-8,o),
(340,2,o),
(265,23,c),
(190,44,o),
(133,72,o),
(94,110,c),
(56,147,o),
(35,192,o),
(31,243,c),
(380,243,l),
(382,221,o),
(391,204,o),
(405,192,c),
(419,181,o),
(438,172,o),
(461,167,c),
(485,163,o),
(516,161,o),
(551,161,c),
(585,161,o),
(613,162,o),
(634,165,c),
(656,169,o),
(672,175,o),
(681,182,c),
(691,189,o),
(697,198,o),
(697,210,c),
(697,220,o),
(692,229,o),
(681,236,c),
(672,243,o),
(656,249,o),
(632,254,c),
(610,259,o),
(578,264,o),
(538,267,c),
(404,279,l),
(335,286,o),
(274,297,o),
(222,316,c),
(170,334,o),
(130,359,o),
(101,390,c),
(72,421,o),
(57,459,o),
(57,502,c),
(57,545,o),
(71,583,o),
(100,617,c),
(127,652,o),
(176,680,o),
(247,702,c),
(317,724,o),
(412,735,o),
(532,735,c),
(631,735,o),
(715,727,o),
(786,711,c),
(857,694,o),
(911,668,o),
(951,634,c),
(991,599,o),
(1015,555,o),
(1022,501,c),
(694,501,l),
(692,516,o),
(686,528,o),
(674,538,c),
(665,548,o),
(649,555,o),
(628,561,c),
(607,566,o),
(579,569,o),
(544,569,c),
(513,569,o),
(488,567,o),
(467,563,c),
(447,559,o),
(433,554,o),
(424,548,c),
(415,541,o),
(410,532,o),
(410,523,c),
(410,513,o),
(414,506,o),
(422,499,c),
(430,493,o),
(443,488,o),
(460,483,c),
(477,479,o),
(499,477,o),
(526,474,c),
(650,463,l),
(743,455,o),
(819,441,o),
(879,423,c),
(938,404,o),
(982,381,o),
(1011,351,c),
(1039,322,o),
(1054,286,o),
(1054,244,c),
(1054,192,o),
(1034,147,o),
(996,110,c),
(957,72,o),
(900,43,o),
(824,22,c),
(748,2,o),
(655,-8,o),
(544,-8,c)
);
}
);
width = 1070;
},
{
layerId = m004;
shapes = (
{
closed = 1;
nodes = (
(272,-8,o),
(221,0,o),
(177,17,c),
(134,34,o),
(100,61,o),
(77,97,c),
(53,133,o),
(40,178,o),
(39,232,c),
(127,232,l),
(128,192,o),
(137,161,o),
(153,137,c),
(170,114,o),
(193,97,o),
(223,86,c),
(253,75,o),
(289,69,o),
(331,69,c),
(371,69,o),
(405,75,o),
(432,85,c),
(458,96,o),
(478,110,o),
(491,130,c),
(505,149,o),
(511,172,o),
(511,200,c),
(511,223,o),
(506,242,o),
(496,257,c),
(487,272,o),
(469,286,o),
(445,298,c),
(421,309,o),
(387,319,o),
(344,327,c),
(270,342,l),
(227,351,o),
(190,363,o),
(159,380,c),
(128,397,o),
(103,419,o),
(86,446,c),
(70,474,o),
(61,508,o),
(61,547,c),
(61,585,o),
(71,618,o),
(91,646,c),
(111,675,o),
(140,697,o),
(176,713,c),
(213,728,o),
(257,736,o),
(308,736,c),
(370,736,o),
(421,727,o),
(462,708,c),
(501,689,o),
(531,664,o),
(550,631,c),
(569,598,o),
(579,561,o),
(581,520,c),
(494,520,l),
(493,550,o),
(485,575,o),
(472,595,c),
(460,615,o),
(441,631,o),
(414,642,c),
(387,653,o),
(352,659,o),
(309,659,c),
(273,659,o),
(243,654,o),
(219,644,c),
(195,635,o),
(178,622,o),
(167,606,c),
(156,589,o),
(150,570,o),
(150,547,c),
(150,524,o),
(154,504,o),
(163,489,c),
(172,474,o),
(187,461,o),
(210,449,c),
(232,438,o),
(263,428,o),
(304,420,c),
(377,405,l),
(431,394,o),
(474,380,o),
(507,361,c),
(539,343,o),
(563,321,o),
(578,294,c),
(592,268,o),
(599,237,o),
(599,201,c),
(599,159,o),
(589,122,o),
(568,90,c),
(548,58,o),
(517,34,o),
(476,17,c),
(436,0,o),
(388,-8,o),
(332,-8,c)
);
}
);
width = 626;
},
{
layerId = m005;
shapes = (
{
closed = 1;
nodes = (
(275,-10,o),
(224,-2,o),
(184,13,c),
(144,29,o),
(114,52,o),
(93,83,c),
(72,114,o),
(60,153,o),
(56,200,c),
(81,200,l),
(84,158,o),
(96,123,o),
(115,94,c),
(134,67,o),
(162,46,o),
(198,33,c),
(234,19,o),
(279,12,o),
(334,12,c),
(385,12,o),
(428,19,o),
(462,34,c),
(497,49,o),
(522,69,o),
(538,96,c),
(555,122,o),
(564,152,o),
(564,186,c),
(564,216,o),
(558,241,o),
(545,263,c),
(534,284,o),
(513,303,o),
(485,318,c),
(456,333,o),
(416,346,o),
(366,355,c),
(283,371,l),
(235,379,o),
(196,392,o),
(166,409,c),
(136,425,o),
(115,445,o),
(101,470,c),
(87,495,o),
(80,525,o),
(80,559,c),
(80,593,o),
(89,625,o),
(107,651,c),
(125,678,o),
(152,699,o),
(187,714,c),
(223,729,o),
(266,737,o),
(317,737,c),
(373,737,o),
(418,728,o),
(456,712,c),
(493,695,o),
(520,673,o),
(538,644,c),
(555,616,o),
(565,582,o),
(567,545,c),
(543,545,l),
(541,580,o),
(532,610,o),
(515,636,c),
(498,661,o),
(473,681,o),
(440,694,c),
(407,708,o),
(366,715,o),
(317,715,c),
(271,715,o),
(232,708,o),
(200,695,c),
(168,682,o),
(144,663,o),
(128,640,c),
(113,616,o),
(105,589,o),
(105,559,c),
(105,528,o),
(111,502,o),
(123,480,c),
(135,459,o),
(155,441,o),
(183,427,c),
(211,412,o),
(248,401,o),
(294,392,c),
(374,377,l),
(428,367,o),
(472,353,o),
(503,335,c),
(534,318,o),
(556,298,o),
(569,273,c),
(581,249,o),
(588,220,o),
(588,186,c),
(588,147,o),
(578,114,o),
(560,84,c),
(541,55,o),
(512,32,o),
(475,15,c),
(436,-1,o),
(390,-10,o),
(335,-10,c)
);
}
);
width = 637;
},
{
layerId = m006;
shapes = (
{
closed = 1;
nodes = (
(425,-8,o),
(332,2,o),
(257,23,c),
(182,44,o),
(125,72,o),
(87,110,c),
(48,147,o),
(27,192,o),
(23,243,c),
(372,243,l),
(375,221,o),
(383,204,o),
(397,192,c),
(411,181,o),
(430,172,o),
(453,167,c),
(478,163,o),
(508,161,o),
(544,161,c),
(577,161,o),
(605,162,o),
(626,165,c),
(648,169,o),
(664,175,o),
(673,182,c),
(684,189,o),
(689,198,o),
(689,210,c),
(689,220,o),
(684,229,o),
(674,236,c),
(664,243,o),
(648,249,o),
(625,254,c),
(603,259,o),
(571,264,o),
(531,267,c),
(396,279,l),
(327,286,o),
(266,297,o),
(214,316,c),
(163,334,o),
(123,359,o),
(93,390,c),
(64,421,o),
(49,459,o),
(49,502,c),
(49,545,o),
(64,583,o),
(92,617,c),
(119,652,o),
(169,680,o),
(239,702,c),
(310,724,o),
(404,735,o),
(525,735,c),
(623,735,o),
(707,727,o),
(778,711,c),
(849,694,o),
(903,668,o),
(944,634,c),
(984,599,o),
(1007,555,o),
(1014,501,c),
(686,501,l),
(684,516,o),
(678,528,o),
(667,538,c),
(657,548,o),
(641,555,o),
(620,561,c),
(599,566,o),
(571,569,o),
(537,569,c),
(505,569,o),
(480,567,o),
(460,563,c),
(440,559,o),
(425,554,o),
(416,548,c),
(407,541,o),
(402,532,o),
(402,523,c),
(402,513,o),
(406,506,o),
(414,499,c),
(423,493,o),
(435,488,o),
(452,483,c),
(469,479,o),
(491,477,o),
(518,474,c),
(642,463,l),
(735,455,o),
(811,441,o),
(871,423,c),
(930,404,o),
(974,381,o),
(1003,351,c),
(1032,322,o),
(1046,286,o),
(1046,244,c),
(1046,192,o),
(1026,147,o),
(988,110,c),
(949,72,o),
(892,43,o),
(816,22,c),
(740,2,o),
(647,-8,o),
(537,-8,c)
);
}
);
width = 1054;
}
);
note = uni0053;
unicode = 83;
},
{
glyphname = uni0054;
kernLeft = uni0054;
kernRight = uni0054;
lastChange = "2026-04-14 12:35:33 +0000";
layers = (
{
layerId = m01;
shapes = (
{
closed = 1;
nodes = (
(286,0,l),
(377,0,l),
(377,727,l),
(286,727,l)
);
},
{
closed = 1;
nodes = (
(47,648,l),
(615,648,l),
(615,727,l),
(47,727,l)
);
}
);
width = 648;
},
{
layerId = F2C6FA2E-D08A-4B94-92D2-D7CA5820546A;
shapes = (
{
closed = 1;
nodes = (
(314,0,l),
(337,0,l),
(337,727,l),
(314,727,l)
);
},
{
closed = 1;
nodes = (
(70,708,l),
(581,708,l),
(581,727,l),
(70,727,l)
);
}
);
width = 643;
},
{
layerId = F8E60EAC-58E2-4CB8-A8B6-FD6FE89414CC;
shapes = (
{
closed = 1;
nodes = (
(265,0,l),
(606,0,l),
(606,727,l),
(265,727,l)
);
},
{
closed = 1;
nodes = (
(38,500,l),
(833,500,l),
(833,727,l),
(38,727,l)
);
}
);
width = 851;
},
{
layerId = m004;
shapes = (
{
closed = 1;
nodes = (
(274,0,l),
(365,0,l),
(365,727,l),
(274,727,l)
);
},
{
closed = 1;
nodes = (
(36,648,l),
(604,648,l),
(604,727,l),
(36,727,l)
);
}
);
width = 624;
},
{
layerId = m005;
shapes = (
{
closed = 1;
nodes = (
(297,0,l),
(319,0,l),
(319,727,l),
(297,727,l)
);
},
{
closed = 1;
nodes = (
(53,708,l),
(564,708,l),
(564,727,l),
(53,727,l)
);
}
);
width = 606;
},
{
layerId = m006;
shapes = (
{
closed = 1;
nodes = (
(256,0,l),
(597,0,l),
(597,727,l),
(256,727,l)
);
},
{
closed = 1;
nodes = (
(28,500,l),
(824,500,l),
(824,727,l),
(28,727,l)
);
}
);
width = 831;
}
);
note = uni0054;
unicode = 84;
},
{
glyphname = uni0055;
lastChange = "2026-04-09 08:54:05 +0000";
layers = (
{
layerId = m01;
shapes = (
{
closed = 1;
nodes = (
(646,727,l),
(555,727,l),
(555,267,l),
(555,161,o),
(478,74,o),
(357,74,c),
(236,74,o),
(158,161,o),
(158,267,c),
(158,727,l),
(67,727,l),
(67,256,l),
(67,108,o),
(181,-11,o),
(357,-11,c),
(532,-11,o),
(646,108,o),
(646,256,c)
);
}
);
width = 699;
},
{
layerId = F2C6FA2E-D08A-4B94-92D2-D7CA5820546A;
shapes = (
{
closed = 1;
nodes = (
(608,727,l),
(585,727,l),
(585,245,l),
(585,116,o),
(481,12,o),
(352,12,c),
(224,12,o),
(119,116,o),
(119,245,c),
(119,727,l),
(97,727,l),
(97,245,l),
(97,103,o),
(211,-11,o),
(352,-11,c),
(494,-11,o),
(608,103,o),
(608,245,c)
);
}
);
width = 696;
},
{
layerId = F8E60EAC-58E2-4CB8-A8B6-FD6FE89414CC;
shapes = (
{
closed = 1;
nodes = (
(984,727,l),
(644,727,l),
(644,313,l),
(644,260,o),
(592,217,o),
(516,217,c),
(440,217,o),
(388,260,o),
(388,313,c),
(388,727,l),
(48,727,l),
(48,331,l),
(48,85,o),
(214,-11,o),
(516,-11,c),
(818,-11,o),
(984,85,o),
(984,331,c)
);
}
);
width = 1012;
},
{
layerId = m004;
shapes = (
{
closed = 1;
nodes = (
(630,727,l),
(539,727,l),
(539,267,l),
(539,161,o),
(461,74,o),
(340,74,c),
(219,74,o),
(141,161,o),
(141,267,c),
(141,727,l),
(50,727,l),
(50,256,l),
(50,108,o),
(164,-11,o),
(340,-11,c),
(516,-11,o),
(630,108,o),
(630,256,c)
);
}
);
width = 664;
},
{
layerId = m005;
shapes = (
{
closed = 1;
nodes = (
(583,727,l),
(561,727,l),
(561,245,l),
(561,116,o),
(457,12,o),
(328,12,c),
(200,12,o),
(95,116,o),
(95,245,c),
(95,727,l),
(72,727,l),
(72,245,l),
(72,103,o),
(187,-11,o),
(328,-11,c),
(469,-11,o),
(583,103,o),
(583,245,c)
);
}
);
width = 646;
},
{
layerId = m006;
shapes = (
{
closed = 1;
nodes = (
(972,727,l),
(632,727,l),
(632,313,l),
(632,260,o),
(580,217,o),
(504,217,c),
(428,217,o),
(376,260,o),
(376,313,c),
(376,727,l),
(36,727,l),
(36,331,l),
(36,85,o),
(202,-11,o),
(504,-11,c),
(806,-11,o),
(972,85,o),
(972,331,c)
);
}
);
width = 986;
}
);
note = uni0055;
unicode = 85;
},
{
glyphname = uni0056;
kernLeft = uni0054;
kernRight = uni0054;
lastChange = "2026-04-10 15:44:45 +0000";
layers = (
{
layerId = m01;
shapes = (
{
closed = 1;
nodes = (
(559,727,l),
(303,0,l),
(405,0,l),
(661,727,l)
);
},
{
closed = 1;
nodes = (
(36,727,l),
(292,0,l),
(394,0,l),
(138,727,l)
);
}
);
width = 683;
},
{
layerId = F2C6FA2E-D08A-4B94-92D2-D7CA5820546A;
shapes = (
{
closed = 1;
nodes = (
(588,727,l),
(327,0,l),
(353,0,l),
(615,727,l)
);
},
{
closed = 1;
nodes = (
(56,727,l),
(317,0,l),
(344,0,l),
(82,727,l)
);
}
);
width = 662;
},
{
layerId = F8E60EAC-58E2-4CB8-A8B6-FD6FE89414CC;
shapes = (
{
closed = 1;
nodes = (
(678,727,l),
(394,0,l),
(735,0,l),
(1018,727,l)
);
},
{
closed = 1;
nodes = (
(36,727,l),
(320,0,l),
(667,0,l),
(382,727,l)
);
}
);
width = 1034;
},
{
layerId = m004;
shapes = (
{
closed = 1;
nodes = (
(550,727,l),
(294,0,l),
(396,0,l),
(652,727,l)
);
},
{
closed = 1;
nodes = (
(27,727,l),
(283,0,l),
(385,0,l),
(130,727,l)
);
}
);
width = 664;
},
{
layerId = m005;
shapes = (
{
closed = 1;
nodes = (
(574,727,l),
(313,0,l),
(339,0,l),
(600,727,l)
);
},
{
closed = 1;
nodes = (
(42,727,l),
(303,0,l),
(330,0,l),
(68,727,l)
);
}
);
width = 632;
},
{
layerId = m006;
shapes = (
{
closed = 1;
nodes = (
(669,727,l),
(385,0,l),
(726,0,l),
(1010,727,l)
);
},
{
closed = 1;
nodes = (
(27,727,l),
(311,0,l),
(658,0,l),
(373,727,l)
);
}
);
width = 1015;
}
);
note = uni0056;
unicode = 86;
},
{
glyphname = uni0057;
kernLeft = uni0054;
kernRight = uni0054;
lastChange = "2026-04-10 15:52:16 +0000";
layers = (
{
layerId = m01;
shapes = (
{
closed = 1;
nodes = (
(901,727,l),
(702,0,l),
(795,0,l),
(994,727,l)
);
},
{
closed = 1;
nodes = (
(36,727,l),
(234,0,l),
(327,0,l),
(128,727,l)
);
},
{
closed = 1;
nodes = (
(467,727,l),
(246,0,l),
(338,0,l),
(560,727,l)
);
},
{
closed = 1;
nodes = (
(469,727,l),
(691,0,l),
(784,0,l),
(562,727,l)
);
}
);
width = 1015;
},
{
layerId = F2C6FA2E-D08A-4B94-92D2-D7CA5820546A;
shapes = (
{
closed = 1;
nodes = (
(952,727,l),
(753,0,l),
(778,0,l),
(977,727,l)
);
},
{
closed = 1;
nodes = (
(54,727,l),
(253,0,l),
(278,0,l),
(79,727,l)
);
},
{
closed = 1;
nodes = (
(499,727,l),
(266,0,l),
(291,0,l),
(524,727,l)
);
},
{
closed = 1;
nodes = (
(507,727,l),
(740,0,l),
(765,0,l),
(532,727,l)
);
}
);
width = 1022;
},
{
layerId = F8E60EAC-58E2-4CB8-A8B6-FD6FE89414CC;
shapes = (
{
closed = 1;
nodes = (
(1124,727,l),
(935,0,l),
(1276,0,l),
(1464,727,l)
);
},
{
closed = 1;
nodes = (
(33,727,l),
(220,0,l),
(561,0,l),
(374,727,l)
);
},
{
closed = 1;
nodes = (
(630,727,l),
(384,0,l),
(618,0,l),
(864,727,l)
);
},
{
closed = 1;
nodes = (
(636,727,l),
(879,0,l),
(1112,0,l),
(868,727,l)
);
}
);
width = 1477;
},
{
layerId = m004;
shapes = (
{
closed = 1;
nodes = (
(892,727,l),
(693,0,l),
(786,0,l),
(985,727,l)
);
},
{
closed = 1;
nodes = (
(27,727,l),
(225,0,l),
(319,0,l),
(119,727,l)
);
},
{
closed = 1;
nodes = (
(458,727,l),
(237,0,l),
(330,0,l),
(551,727,l)
);
},
{
closed = 1;
nodes = (
(461,727,l),
(682,0,l),
(775,0,l),
(553,727,l)
);
}
);
width = 996;
},
{
layerId = m005;
shapes = (
{
closed = 1;
nodes = (
(938,727,l),
(739,0,l),
(764,0,l),
(963,727,l)
);
},
{
closed = 1;
nodes = (
(40,727,l),
(239,0,l),
(264,0,l),
(65,727,l)
);
},
{
closed = 1;
nodes = (
(485,727,l),
(252,0,l),
(278,0,l),
(511,727,l)
);
},
{
closed = 1;
nodes = (
(493,727,l),
(726,0,l),
(751,0,l),
(518,727,l)
);
}
);
width = 994;
},
{
layerId = m006;
shapes = (
{
closed = 1;
nodes = (
(1116,727,l),
(927,0,l),
(1268,0,l),
(1456,727,l)
);
},
{
closed = 1;
nodes = (
(25,727,l),
(212,0,l),
(553,0,l),
(365,727,l)
);
},
{
closed = 1;
nodes = (
(622,727,l),
(375,0,l),
(609,0,l),
(856,727,l)
);
},
{
closed = 1;
nodes = (
(627,727,l),
(871,0,l),
(1103,0,l),
(860,727,l)
);
}
);
width = 1460;
}
);
note = uni0057;
unicode = 87;
},
{
glyphname = uni0058;
lastChange = "2026-04-14 12:40:03 +0000";
layers = (
{
layerId = m01;
shapes = (
{
closed = 1;
nodes = (
(37,727,l),
(554,0,l),
(667,0,l),
(150,727,l)
);
},
{
closed = 1;
nodes = (
(554,727,l),
(37,0,l),
(150,0,l),
(667,727,l)
);
}
);
width = 689;
},
{
layerId = F2C6FA2E-D08A-4B94-92D2-D7CA5820546A;
shapes = (
{
closed = 1;
nodes = (
(57,727,l),
(574,0,l),
(602,0,l),
(85,727,l)
);
},
{
closed = 1;
nodes = (
(574,727,l),
(57,0,l),
(85,0,l),
(602,727,l)
);
}
);
width = 651;
},
{
layerId = F8E60EAC-58E2-4CB8-A8B6-FD6FE89414CC;
shapes = (
{
closed = 1;
nodes = (
(39,727,l),
(695,0,l),
(1036,0,l),
(380,727,l)
);
},
{
closed = 1;
nodes = (
(695,727,l),
(39,0,l),
(380,0,l),
(1036,727,l)
);
}
);
width = 1055;
},
{
layerId = m004;
shapes = (
{
closed = 1;
nodes = (
(27,727,l),
(544,0,l),
(657,0,l),
(140,727,l)
);
},
{
closed = 1;
nodes = (
(544,727,l),
(27,0,l),
(140,0,l),
(657,727,l)
);
}
);
width = 669;
},
{
layerId = m005;
shapes = (
{
closed = 1;
nodes = (
(43,727,l),
(560,0,l),
(588,0,l),
(71,727,l)
);
},
{
closed = 1;
nodes = (
(560,727,l),
(43,0,l),
(71,0,l),
(588,727,l)
);
}
);
width = 621;
},
{
layerId = m006;
shapes = (
{
closed = 1;
nodes = (
(29,727,l),
(685,0,l),
(1026,0,l),
(370,727,l)
);
},
{
closed = 1;
nodes = (
(685,727,l),
(29,0,l),
(370,0,l),
(1026,727,l)
);
}
);
width = 1033;
}
);
note = uni0058;
unicode = 88;
},
{
glyphname = uni0059;
kernLeft = uni0054;
kernRight = uni0054;
lastChange = "2026-04-10 15:44:59 +0000";
layers = (
{
layerId = m01;
shapes = (
{
closed = 1;
nodes = (
(36,727,l),
(297,290,l),
(388,290,l),
(127,727,l)
);
},
{
closed = 1;
nodes = (
(559,727,l),
(297,290,l),
(388,290,l),
(650,727,l)
);
},
{
closed = 1;
nodes = (
(297,0,l),
(388,0,l),
(388,330,l),
(297,330,l)
);
}
);
width = 671;
},
{
layerId = F2C6FA2E-D08A-4B94-92D2-D7CA5820546A;
shapes = (
{
closed = 1;
nodes = (
(57,727,l),
(324,290,l),
(346,290,l),
(85,727,l)
);
},
{
closed = 1;
nodes = (
(585,727,l),
(324,290,l),
(346,290,l),
(613,727,l)
);
},
{
closed = 1;
nodes = (
(324,0,l),
(346,0,l),
(346,307,l),
(324,307,l)
);
}
);
width = 662;
},
{
layerId = F8E60EAC-58E2-4CB8-A8B6-FD6FE89414CC;
shapes = (
{
closed = 1;
nodes = (
(33,727,l),
(382,290,l),
(721,290,l),
(374,727,l)
);
},
{
closed = 1;
nodes = (
(726,727,l),
(382,290,l),
(721,290,l),
(1067,727,l)
);
},
{
closed = 1;
nodes = (
(381,0,l),
(722,0,l),
(722,330,l),
(381,330,l)
);
}
);
width = 1080;
},
{
layerId = m004;
shapes = (
{
closed = 1;
nodes = (
(27,727,l),
(288,290,l),
(379,290,l),
(118,727,l)
);
},
{
closed = 1;
nodes = (
(550,727,l),
(288,290,l),
(379,290,l),
(641,727,l)
);
},
{
closed = 1;
nodes = (
(288,0,l),
(379,0,l),
(379,330,l),
(288,330,l)
);
}
);
width = 652;
},
{
layerId = m005;
shapes = (
{
closed = 1;
nodes = (
(43,727,l),
(309,290,l),
(332,290,l),
(71,727,l)
);
},
{
closed = 1;
nodes = (
(571,727,l),
(309,290,l),
(332,290,l),
(599,727,l)
);
},
{
closed = 1;
nodes = (
(309,0,l),
(332,0,l),
(332,307,l),
(309,307,l)
);
}
);
width = 632;
},
{
layerId = m006;
shapes = (
{
closed = 1;
nodes = (
(25,727,l),
(374,290,l),
(713,290,l),
(365,727,l)
);
},
{
closed = 1;
nodes = (
(718,727,l),
(374,290,l),
(713,290,l),
(1059,727,l)
);
},
{
closed = 1;
nodes = (
(373,0,l),
(714,0,l),
(714,330,l),
(373,330,l)
);
}
);
width = 1062;
}
);
note = uni0059;
unicode = 89;
},
{
glyphname = uni005A;
lastChange = "2026-04-09 08:54:05 +0000";
layers = (
{
layerId = m01;
shapes = (
{
closed = 1;
nodes = (
(53,648,l),
(581,648,l),
(581,727,l),
(53,727,l)
);
},
{
closed = 1;
nodes = (
(53,0,l),
(581,0,l),
(581,80,l),
(53,80,l)
);
},
{
closed = 1;
nodes = (
(473,648,l),
(53,80,l),
(161,80,l),
(581,648,l)
);
}
);
width = 620;
},
{
layerId = F2C6FA2E-D08A-4B94-92D2-D7CA5820546A;
shapes = (
{
closed = 1;
nodes = (
(87,706,l),
(587,706,l),
(587,727,l),
(87,727,l)
);
},
{
closed = 1;
nodes = (
(76,0,l),
(593,0,l),
(593,21,l),
(76,21,l)
);
},
{
closed = 1;
nodes = (
(558,706,l),
(76,21,l),
(106,21,l),
(587,706,l)
);
}
);
width = 660;
},
{
layerId = F8E60EAC-58E2-4CB8-A8B6-FD6FE89414CC;
shapes = (
{
closed = 1;
nodes = (
(49,500,l),
(788,500,l),
(788,727,l),
(49,727,l)
);
},
{
closed = 1;
nodes = (
(49,0,l),
(799,0,l),
(799,227,l),
(49,227,l)
);
},
{
closed = 1;
nodes = (
(426,500,l),
(49,227,l),
(410,227,l),
(788,500,l)
);
}
);
width = 828;
},
{
layerId = m004;
shapes = (
{
closed = 1;
nodes = (
(40,648,l),
(568,648,l),
(568,727,l),
(40,727,l)
);
},
{
closed = 1;
nodes = (
(40,0,l),
(568,0,l),
(568,80,l),
(40,80,l)
);
},
{
closed = 1;
nodes = (
(460,648,l),
(40,80,l),
(147,80,l),
(568,648,l)
);
}
);
width = 592;
},
{
layerId = m005;
shapes = (
{
closed = 1;
nodes = (
(68,706,l),
(568,706,l),
(568,727,l),
(68,727,l)
);
},
{
closed = 1;
nodes = (
(57,0,l),
(574,0,l),
(574,21,l),
(57,21,l)
);
},
{
closed = 1;
nodes = (
(538,706,l),
(57,21,l),
(87,21,l),
(568,706,l)
);
}
);
width = 620;
},
{
layerId = m006;
shapes = (
{
closed = 1;
nodes = (
(37,500,l),
(776,500,l),
(776,727,l),
(37,727,l)
);
},
{
closed = 1;
nodes = (
(37,0,l),
(787,0,l),
(787,227,l),
(37,227,l)
);
},
{
closed = 1;
nodes = (
(414,500,l),
(37,227,l),
(398,227,l),
(776,500,l)
);
}
);
width = 803;
}
);
note = uni005A;
unicode = 90;
},
{
glyphname = uni0061;
kernLeft = uni0061;
kernRight = uni0061;
lastChange = "2026-04-14 12:53:20 +0000";
layers = (
{
layerId = m01;
shapes = (
{
closed = 1;
nodes = (
(496,0,l),
(496,341,l),
(496,355,ls),
(497,441,o),
(498,551,o),
(286,551,cs),
(140,551,o),
(91,484,o),
(79,392,c),
(169,392,l),
(176,443,o),
(203,489,o),
(286,489,cs),
(386,488,o),
(405,424,o),
(405,358,cs),
(405,341,l),
(343,346,o),
(252,343,o),
(202,331,cs),
(98,309,o),
(30,216,o),
(50,124,cs),
(70,31,o),
(174,-26,o),
(278,-4,cs),
(336,9,o),
(374,34,o),
(405,99,c),
(405,0,l)
);
},
{
closed = 1;
nodes = (
(230,64,o),
(167,86,o),
(153,141,c),
(139,218,o),
(185,253,o),
(258,266,cs),
(293,273,o),
(356,273,o),
(400,270,c),
(400,219,ls),
(400,184,o),
(392,147,o),
(369,120,cs),
(350,98,o),
(327,81,o),
(303,77,cs)
);
}
);
width = 545;
},
{
layerId = F2C6FA2E-D08A-4B94-92D2-D7CA5820546A;
shapes = (
{
closed = 1;
nodes = (
(478,0,l),
(478,341,l),
(478,355,ls),
(479,441,o),
(487,551,o),
(294,551,cs),
(161,551,o),
(116,484,o),
(106,392,c),
(133,392,l),
(137,447,o),
(164,532,o),
(293,531,cs),
(458,531,o),
(456,439,o),
(456,355,cs),
(456,341,l),
(389,346,o),
(291,344,o),
(237,333,cs),
(126,310,o),
(53,241,o),
(77,124,cs),
(97,31,o),
(191,-27,o),
(317,-2,c),
(387,19,o),
(428,60,o),
(456,114,c),
(456,0,l)
);
},
{
closed = 1;
nodes = (
(214,-2,o),
(119,40,o),
(100,126,cs),
(74,244,o),
(159,299,o),
(254,318,cs),
(304,327,o),
(394,326,o),
(456,322,c),
(456,217,ls),
(456,146,o),
(449,131,o),
(416,88,c),
(394,60,o),
(370,36,o),
(315,19,c)
);
}
);
width = 559;
},
{
layerId = F8E60EAC-58E2-4CB8-A8B6-FD6FE89414CC;
shapes = (
{
closed = 1;
nodes = (
(819,0,l),
(819,341,l),
(819,356,ls),
(821,423,o),
(817,547,o),
(434,547,cs),
(168,547,o),
(63,476,o),
(58,359,c),
(396,359,l),
(399,410,o),
(420,429,o),
(455,429,cs),
(487,429,o),
(516,413,o),
(516,359,cs),
(516,326,l),
(482,330,o),
(355,342,o),
(242,333,c),
(82,320,o),
(16,250,o),
(39,124,c),
(71,-4,o),
(205,-26,o),
(344,-4,cs),
(424,9,o),
(474,34,o),
(516,99,c),
(516,0,l)
);
},
{
closed = 1;
nodes = (
(416,146,o),
(381,157,o),
(375,184,cs),
(367,220,o),
(392,238,o),
(430,244,cs),
(449,247,o),
(482,247,o),
(505,246,c),
(505,221,ls),
(505,204,o),
(501,186,o),
(488,174,cs),
(479,163,o),
(467,154,o),
(454,152,cs)
);
}
);
width = 848;
},
{
layerId = m004;
shapes = (
{
closed = 1;
nodes = (
(489,0,l),
(489,341,l),
(489,355,ls),
(490,441,o),
(491,551,o),
(279,551,cs),
(132,551,o),
(83,484,o),
(71,392,c),
(162,392,l),
(169,443,o),
(196,489,o),
(279,489,cs),
(379,488,o),
(398,424,o),
(398,358,cs),
(398,341,l),
(336,346,o),
(245,343,o),
(194,331,cs),
(90,309,o),
(22,216,o),
(42,124,cs),
(62,31,o),
(167,-26,o),
(270,-4,cs),
(329,9,o),
(366,34,o),
(398,99,c),
(398,0,l)
);
},
{
closed = 1;
nodes = (
(223,64,o),
(159,86,o),
(145,141,c),
(131,218,o),
(178,253,o),
(251,266,cs),
(286,273,o),
(349,273,o),
(392,270,c),
(392,219,ls),
(392,184,o),
(385,147,o),
(361,120,cs),
(342,98,o),
(320,81,o),
(295,77,cs)
);
}
);
width = 522;
},
{
layerId = m005;
shapes = (
{
closed = 1;
nodes = (
(465,0,l),
(465,341,l),
(465,355,ls),
(466,441,o),
(473,551,o),
(281,551,cs),
(148,551,o),
(103,484,o),
(93,392,c),
(120,392,l),
(124,447,o),
(151,532,o),
(280,531,cs),
(445,531,o),
(442,439,o),
(442,355,cs),
(442,341,l),
(376,346,o),
(278,344,o),
(224,333,cs),
(113,310,o),
(40,241,o),
(64,124,cs),
(84,31,o),
(178,-27,o),
(304,-2,c),
(374,19,o),
(414,60,o),
(442,114,c),
(442,0,l)
);
},
{
closed = 1;
nodes = (
(201,-2,o),
(106,40,o),
(87,126,cs),
(60,244,o),
(146,299,o),
(241,318,cs),
(290,327,o),
(381,326,o),
(442,322,c),
(442,217,ls),
(442,146,o),
(436,131,o),
(403,88,c),
(381,60,o),
(357,36,o),
(302,19,c)
);
}
);
width = 525;
},
{
layerId = m006;
shapes = (
{
closed = 1;
nodes = (
(815,0,l),
(815,341,l),
(815,356,ls),
(817,423,o),
(814,547,o),
(430,547,cs),
(164,547,o),
(59,476,o),
(54,359,c),
(392,359,l),
(395,410,o),
(416,429,o),
(451,429,cs),
(483,429,o),
(512,413,o),
(512,359,cs),
(512,326,l),
(478,330,o),
(351,342,o),
(238,333,c),
(78,320,o),
(12,250,o),
(35,124,c),
(67,-4,o),
(201,-26,o),
(341,-4,cs),
(420,9,o),
(470,34,o),
(512,99,c),
(512,0,l)
);
},
{
closed = 1;
nodes = (
(412,146,o),
(377,157,o),
(371,184,cs),
(363,220,o),
(388,238,o),
(426,244,cs),
(445,247,o),
(478,247,o),
(501,246,c),
(501,221,ls),
(501,204,o),
(497,186,o),
(484,174,cs),
(475,163,o),
(463,154,o),
(450,152,cs)
);
}
);
width = 833;
}
);
note = uni0061;
unicode = 97;
},
{
glyphname = uni0062;
kernLeft = uni0062;
kernRight = uni0062;
lastChange = "2026-04-09 08:54:05 +0000";
layers = (
{
layerId = m01;
shapes = (
{
closed = 1;
nodes = (
(61,0,l),
(152,0,l),
(152,727,l),
(61,727,l)
);
},
{
closed = 1;
nodes = (
(203,63,o),
(152,154,o),
(152,267,c),
(152,381,o),
(203,478,o),
(305,478,c),
(413,478,o),
(458,381,o),
(458,267,c),
(458,154,o),
(413,63,o),
(305,63,c)
);
},
{
closed = 1;
nodes = (
(174,545,o),
(101,426,o),
(101,273,c),
(101,119,o),
(174,-5,o),
(333,-5,c),
(487,-5,o),
(560,119,o),
(560,273,c),
(560,421,o),
(487,545,o),
(333,545,c)
);
}
);
width = 607;
},
{
layerId = F2C6FA2E-D08A-4B94-92D2-D7CA5820546A;
shapes = (
{
closed = 1;
nodes = (
(90,0,l),
(113,0,l),
(113,727,l),
(90,727,l)
);
},
{
closed = 1;
nodes = (
(179,14,o),
(113,134,o),
(113,267,c),
(113,400,o),
(179,527,o),
(321,527,c),
(462,527,o),
(528,406,o),
(528,266,c),
(528,126,o),
(462,14,o),
(321,14,c)
);
},
{
closed = 1;
nodes = (
(164,545,o),
(97,423,o),
(97,271,c),
(97,119,o),
(164,-5,o),
(321,-5,c),
(477,-5,o),
(550,118,o),
(550,270,c),
(550,422,o),
(477,545,o),
(321,545,c)
);
}
);
width = 619;
},
{
layerId = F8E60EAC-58E2-4CB8-A8B6-FD6FE89414CC;
shapes = (
{
closed = 1;
nodes = (
(44,0,l),
(384,0,l),
(384,727,l),
(44,727,l)
);
},
{
closed = 1;
nodes = (
(418,193,o),
(397,227,o),
(397,269,c),
(397,310,o),
(418,346,o),
(462,346,c),
(507,346,o),
(528,310,o),
(528,268,c),
(528,226,o),
(507,193,o),
(462,193,c)
);
},
{
closed = 1;
nodes = (
(400,546,o),
(312,423,o),
(312,271,c),
(312,119,o),
(400,-6,o),
(588,-6,c),
(776,-6,o),
(863,118,o),
(863,269,c),
(863,422,o),
(776,546,o),
(588,546,c)
);
}
);
width = 901;
},
{
layerId = m004;
shapes = (
{
closed = 1;
nodes = (
(45,0,l),
(135,0,l),
(135,727,l),
(45,727,l)
);
},
{
closed = 1;
nodes = (
(186,63,o),
(135,154,o),
(135,267,c),
(135,381,o),
(186,478,o),
(289,478,c),
(397,478,o),
(442,381,o),
(442,267,c),
(442,154,o),
(397,63,o),
(289,63,c)
);
},
{
closed = 1;
nodes = (
(158,545,o),
(85,426,o),
(85,273,c),
(85,119,o),
(158,-5,o),
(317,-5,c),
(471,-5,o),
(544,119,o),
(544,273,c),
(544,421,o),
(471,545,o),
(317,545,c)
);
}
);
width = 579;
},
{
layerId = m005;
shapes = (
{
closed = 1;
nodes = (
(67,0,l),
(89,0,l),
(89,727,l),
(67,727,l)
);
},
{
closed = 1;
nodes = (
(156,14,o),
(89,134,o),
(89,267,c),
(89,400,o),
(156,527,o),
(297,527,c),
(439,527,o),
(505,406,o),
(505,266,c),
(505,126,o),
(439,14,o),
(297,14,c)
);
},
{
closed = 1;
nodes = (
(140,545,o),
(74,423,o),
(74,271,c),
(74,119,o),
(140,-5,o),
(297,-5,c),
(454,-5,o),
(527,118,o),
(527,270,c),
(527,422,o),
(454,545,o),
(297,545,c)
);
}
);
width = 578;
},
{
layerId = m006;
shapes = (
{
closed = 1;
nodes = (
(32,0,l),
(373,0,l),
(373,727,l),
(32,727,l)
);
},
{
closed = 1;
nodes = (
(407,193,o),
(386,227,o),
(386,269,c),
(386,310,o),
(407,346,o),
(451,346,c),
(496,346,o),
(516,310,o),
(516,268,c),
(516,226,o),
(496,193,o),
(451,193,c)
);
},
{
closed = 1;
nodes = (
(389,546,o),
(300,423,o),
(300,271,c),
(300,119,o),
(389,-6,o),
(576,-6,c),
(765,-6,o),
(852,118,o),
(852,269,c),
(852,422,o),
(765,546,o),
(576,546,c)
);
}
);
width = 880;
}
);
note = uni0062;
unicode = 98;
},
{
glyphname = uni0063;
kernLeft = uni0063;
kernRight = uni006F;
lastChange = "2026-04-10 15:40:46 +0000";
layers = (
{
layerId = m01;
shapes = (
{
closed = 1;
nodes = (
(46,115,o),
(131,-11,o),
(310,-11,c),
(464,-11,o),
(546,70,o),
(565,203,c),
(464,203,l),
(448,109,o),
(396,56,o),
(307,56,c),
(199,56,o),
(147,153,o),
(147,271,c),
(147,389,o),
(199,485,o),
(307,485,c),
(397,485,o),
(450,430,o),
(465,333,c),
(566,333,l),
(548,469,o),
(466,553,o),
(310,553,c),
(131,553,o),
(46,426,o),
(46,271,c)
);
}
);
width = 609;
},
{
layerId = F2C6FA2E-D08A-4B94-92D2-D7CA5820546A;
shapes = (
{
closed = 1;
nodes = (
(69,115,o),
(147,-11,o),
(310,-11,c),
(442,-11,o),
(518,72,o),
(542,186,c),
(519,186,l),
(496,81,o),
(425,6,o),
(307,6,c),
(159,6,o),
(92,124,o),
(92,271,c),
(92,417,o),
(159,536,o),
(307,536,c),
(428,536,o),
(497,457,o),
(519,349,c),
(542,349,l),
(520,467,o),
(445,552,o),
(310,552,c),
(147,552,o),
(69,426,o),
(69,271,c)
);
}
);
width = 611;
},
{
layerId = F8E60EAC-58E2-4CB8-A8B6-FD6FE89414CC;
shapes = (
{
closed = 1;
nodes = (
(33,108,o),
(161,-11,o),
(426,-11,c),
(698,-11,o),
(812,109,o),
(818,254,c),
(485,254,l),
(483,225,o),
(473,168,o),
(426,168,c),
(374,168,o),
(366,222,o),
(366,271,c),
(366,320,o),
(374,374,o),
(426,374,c),
(468,374,o),
(483,324,o),
(485,293,c),
(818,293,l),
(807,457,o),
(664,553,o),
(426,553,c),
(161,553,o),
(33,434,o),
(33,271,c)
);
}
);
width = 852;
},
{
layerId = m004;
shapes = (
{
closed = 1;
nodes = (
(31,115,o),
(116,-11,o),
(295,-11,c),
(449,-11,o),
(531,70,o),
(550,203,c),
(449,203,l),
(433,109,o),
(381,56,o),
(292,56,c),
(184,56,o),
(132,153,o),
(132,271,c),
(132,389,o),
(184,485,o),
(292,485,c),
(382,485,o),
(435,430,o),
(450,333,c),
(551,333,l),
(533,469,o),
(451,553,o),
(295,553,c),
(116,553,o),
(31,426,o),
(31,271,c)
);
}
);
width = 580;
},
{
layerId = m005;
shapes = (
{
closed = 1;
nodes = (
(52,115,o),
(130,-11,o),
(293,-11,c),
(425,-11,o),
(501,72,o),
(525,186,c),
(502,186,l),
(479,81,o),
(408,6,o),
(290,6,c),
(142,6,o),
(75,124,o),
(75,271,c),
(75,417,o),
(142,536,o),
(290,536,c),
(411,536,o),
(480,457,o),
(502,349,c),
(525,349,l),
(502,467,o),
(428,552,o),
(293,552,c),
(130,552,o),
(52,426,o),
(52,271,c)
);
}
);
width = 577;
},
{
layerId = m006;
shapes = (
{
closed = 1;
nodes = (
(22,108,o),
(150,-11,o),
(415,-11,c),
(687,-11,o),
(801,109,o),
(807,254,c),
(474,254,l),
(472,225,o),
(462,168,o),
(415,168,c),
(363,168,o),
(355,222,o),
(355,271,c),
(355,320,o),
(363,374,o),
(415,374,c),
(457,374,o),
(472,324,o),
(474,293,c),
(807,293,l),
(796,457,o),
(653,553,o),
(415,553,c),
(150,553,o),
(22,434,o),
(22,271,c)
);
}
);
width = 830;
}
);
note = uni0063;
unicode = 99;
leftMetricsKey = "=uni006F";
},
{
glyphname = uni0064;
kernLeft = uni0064;
kernRight = uni0064;
lastChange = "2026-04-09 08:54:05 +0000";
layers = (
{
layerId = m01;
shapes = (
{
closed = 1;
nodes = (
(455,727,l),
(455,0,l),
(545,0,l),
(545,727,l)
);
},
{
closed = 1;
nodes = (
(194,63,o),
(148,154,o),
(148,267,c),
(148,381,o),
(194,478,o),
(301,478,c),
(404,478,o),
(455,381,o),
(455,267,c),
(455,154,o),
(404,63,o),
(301,63,c)
);
},
{
closed = 1;
nodes = (
(120,545,o),
(46,421,o),
(46,273,c),
(46,119,o),
(120,-5,o),
(273,-5,c),
(432,-5,o),
(506,119,o),
(506,273,c),
(506,426,o),
(432,545,o),
(273,545,c)
);
}
);
width = 607;
},
{
layerId = F2C6FA2E-D08A-4B94-92D2-D7CA5820546A;
shapes = (
{
closed = 1;
nodes = (
(506,727,l),
(506,0,l),
(529,0,l),
(529,727,l)
);
},
{
closed = 1;
nodes = (
(158,16,o),
(93,127,o),
(93,266,c),
(93,405,o),
(158,525,o),
(299,525,c),
(440,525,o),
(506,405,o),
(506,267,c),
(506,139,o),
(440,16,o),
(299,16,c)
);
},
{
closed = 1;
nodes = (
(142,545,o),
(69,422,o),
(69,270,c),
(69,118,o),
(142,-5,o),
(298,-5,c),
(455,-5,o),
(522,119,o),
(522,271,c),
(522,423,o),
(455,545,o),
(298,545,c)
);
}
);
width = 619;
},
{
layerId = F8E60EAC-58E2-4CB8-A8B6-FD6FE89414CC;
shapes = (
{
closed = 1;
nodes = (
(513,727,l),
(513,0,l),
(854,0,l),
(854,727,l)
);
},
{
closed = 1;
nodes = (
(391,193,o),
(370,226,o),
(370,268,c),
(370,310,o),
(391,346,o),
(436,346,c),
(480,346,o),
(501,310,o),
(501,269,c),
(501,227,o),
(480,193,o),
(436,193,c)
);
},
{
closed = 1;
nodes = (
(122,546,o),
(35,422,o),
(35,269,c),
(35,118,o),
(122,-6,o),
(310,-6,c),
(498,-6,o),
(586,119,o),
(586,271,c),
(586,423,o),
(498,546,o),
(310,546,c)
);
}
);
width = 894;
},
{
layerId = m004;
shapes = (
{
closed = 1;
nodes = (
(440,727,l),
(440,0,l),
(531,0,l),
(531,727,l)
);
},
{
closed = 1;
nodes = (
(179,63,o),
(134,154,o),
(134,267,c),
(134,381,o),
(179,478,o),
(287,478,c),
(389,478,o),
(440,381,o),
(440,267,c),
(440,154,o),
(389,63,o),
(287,63,c)
);
},
{
closed = 1;
nodes = (
(105,545,o),
(31,421,o),
(31,273,c),
(31,119,o),
(105,-5,o),
(259,-5,c),
(417,-5,o),
(491,119,o),
(491,273,c),
(491,426,o),
(417,545,o),
(259,545,c)
);
}
);
width = 572;
},
{
layerId = m005;
shapes = (
{
closed = 1;
nodes = (
(489,727,l),
(489,0,l),
(512,0,l),
(512,727,l)
);
},
{
closed = 1;
nodes = (
(141,16,o),
(76,127,o),
(76,266,c),
(76,405,o),
(141,525,o),
(282,525,c),
(423,525,o),
(489,405,o),
(489,267,c),
(489,139,o),
(423,16,o),
(282,16,c)
);
},
{
closed = 1;
nodes = (
(125,545,o),
(52,422,o),
(52,270,c),
(52,118,o),
(125,-5,o),
(281,-5,c),
(438,-5,o),
(505,119,o),
(505,271,c),
(505,423,o),
(438,545,o),
(281,545,c)
);
}
);
width = 578;
},
{
layerId = m006;
shapes = (
{
closed = 1;
nodes = (
(502,727,l),
(502,0,l),
(843,0,l),
(843,727,l)
);
},
{
closed = 1;
nodes = (
(379,193,o),
(359,226,o),
(359,268,c),
(359,310,o),
(379,346,o),
(424,346,c),
(468,346,o),
(489,310,o),
(489,269,c),
(489,227,o),
(468,193,o),
(424,193,c)
);
},
{
closed = 1;
nodes = (
(110,546,o),
(23,422,o),
(23,269,c),
(23,118,o),
(110,-6,o),
(299,-6,c),
(486,-6,o),
(575,119,o),
(575,271,c),
(575,423,o),
(486,546,o),
(299,546,c)
);
}
);
width = 870;
}
);
note = uni0064;
unicode = 100;
},
{
glyphname = uni0065;
kernLeft = uni0062;
kernRight = uni006F;
lastChange = "2026-04-09 08:54:05 +0000";
layers = (
{
layerId = m01;
shapes = (
{
closed = 1;
nodes = (
(373,485,o),
(433,408,o),
(433,310,c),
(138,310,l),
(148,403,o),
(195,485,o),
(284,485,c)
);
},
{
closed = 1;
nodes = (
(46,116,o),
(124,-10,o),
(287,-10,c),
(414,-10,o),
(488,67,o),
(514,176,c),
(420,176,l),
(399,112,o),
(354,58,o),
(284,58,c),
(195,58,o),
(148,139,o),
(138,232,c),
(433,232,l),
(523,232,l),
(524,245,o),
(524,258,o),
(524,271,c),
(524,426,o),
(449,553,o),
(287,553,c),
(124,553,o),
(46,426,o),
(46,271,c)
);
}
);
width = 570;
},
{
layerId = F2C6FA2E-D08A-4B94-92D2-D7CA5820546A;
shapes = (
{
closed = 1;
nodes = (
(415,532,o),
(484,412,o),
(484,254,c),
(94,254,l),
(84,409,o),
(162,532,o),
(289,532,c)
);
},
{
closed = 1;
nodes = (
(69,116,o),
(140,-10,o),
(288,-10,c),
(395,-10,o),
(461,55,o),
(489,150,c),
(466,150,l),
(444,89,o),
(400,12,o),
(286,12,c),
(190,12,o),
(104,82,o),
(94,232,c),
(421,232,l),
(504,232,l),
(505,245,o),
(505,257,o),
(505,271,c),
(505,427,o),
(436,553,o),
(288,553,c),
(140,553,o),
(69,427,o),
(69,271,c)
);
}
);
width = 574;
},
{
layerId = F8E60EAC-58E2-4CB8-A8B6-FD6FE89414CC;
shapes = (
{
closed = 1;
nodes = (
(478,425,o),
(486,370,o),
(487,326,c),
(373,326,l),
(374,370,o),
(385,425,o),
(430,425,c)
);
},
{
closed = 1;
nodes = (
(33,116,o),
(163,-10,o),
(433,-10,c),
(645,-10,o),
(787,64,o),
(822,211,c),
(485,211,l),
(485,181,o),
(469,145,o),
(430,145,c),
(379,145,o),
(365,193,o),
(365,250,c),
(675,250,l),
(827,250,l),
(827,250,o),
(828,264,o),
(828,271,c),
(828,426,o),
(703,553,o),
(433,553,c),
(163,553,o),
(33,426,o),
(33,271,c)
);
}
);
width = 862;
},
{
layerId = m004;
shapes = (
{
closed = 1;
nodes = (
(358,485,o),
(418,408,o),
(418,310,c),
(123,310,l),
(134,403,o),
(180,485,o),
(269,485,c)
);
},
{
closed = 1;
nodes = (
(31,116,o),
(109,-10,o),
(272,-10,c),
(400,-10,o),
(473,67,o),
(499,176,c),
(405,176,l),
(384,112,o),
(339,58,o),
(269,58,c),
(180,58,o),
(134,139,o),
(123,232,c),
(418,232,l),
(508,232,l),
(509,245,o),
(509,258,o),
(509,271,c),
(509,426,o),
(434,553,o),
(272,553,c),
(109,553,o),
(31,426,o),
(31,271,c)
);
}
);
width = 540;
},
{
layerId = m005;
shapes = (
{
closed = 1;
nodes = (
(398,532,o),
(467,412,o),
(467,254,c),
(77,254,l),
(67,409,o),
(145,532,o),
(272,532,c)
);
},
{
closed = 1;
nodes = (
(52,116,o),
(123,-10,o),
(271,-10,c),
(378,-10,o),
(444,55,o),
(472,150,c),
(449,150,l),
(426,89,o),
(382,12,o),
(269,12,c),
(173,12,o),
(87,82,o),
(77,232,c),
(404,232,l),
(487,232,l),
(488,245,o),
(488,257,o),
(488,271,c),
(488,427,o),
(419,553,o),
(271,553,c),
(123,553,o),
(52,427,o),
(52,271,c)
);
}
);
width = 540;
},
{
layerId = m006;
shapes = (
{
closed = 1;
nodes = (
(467,425,o),
(475,370,o),
(476,326,c),
(362,326,l),
(363,370,o),
(374,425,o),
(419,425,c)
);
},
{
closed = 1;
nodes = (
(22,116,o),
(152,-10,o),
(422,-10,c),
(634,-10,o),
(776,64,o),
(811,211,c),
(474,211,l),
(474,181,o),
(458,145,o),
(419,145,c),
(368,145,o),
(354,193,o),
(354,250,c),
(664,250,l),
(816,250,l),
(816,250,o),
(817,264,o),
(817,271,c),
(817,426,o),
(692,553,o),
(422,553,c),
(152,553,o),
(22,426,o),
(22,271,c)
);
}
);
width = 839;
}
);
note = uni0065;
unicode = 101;
leftMetricsKey = "=uni006F";
},
{
glyphname = uni0066;
kernLeft = uni0066;
kernRight = uni0066;
lastChange = "2026-04-09 08:54:05 +0000";
layers = (
{
layerId = m01;
shapes = (
{
closed = 1;
nodes = (
(228,0,l),
(228,469,l),
(341,469,l),
(341,545,l),
(228,545,l),
(228,613,ls),
(228,638,o),
(248,658,o),
(273,658,cs),
(341,658,l),
(341,738,l),
(273,738,ls),
(198,738,o),
(137,677,o),
(137,602,cs),
(137,545,l),
(46,545,l),
(46,469,l),
(137,469,l),
(137,0,l)
);
}
);
width = 375;
},
{
layerId = F2C6FA2E-D08A-4B94-92D2-D7CA5820546A;
shapes = (
{
closed = 1;
nodes = (
(174,0,l),
(174,527,l),
(321,527,l),
(321,545,l),
(174,545,l),
(174,603,ls),
(174,667,o),
(224,716,o),
(279,716,cs),
(321,716,l),
(321,738,l),
(279,738,ls),
(205,738,o),
(151,680,o),
(151,605,cs),
(151,545,l),
(71,545,l),
(71,527,l),
(151,527,l),
(151,0,l)
);
}
);
width = 363;
},
{
layerId = F8E60EAC-58E2-4CB8-A8B6-FD6FE89414CC;
shapes = (
{
closed = 1;
nodes = (
(465,0,l),
(465,373,l),
(600,373,l),
(600,516,l),
(465,516,l),
(465,551,ls),
(465,570,o),
(475,584,o),
(497,584,cs),
(600,584,l),
(600,727,l),
(273,727,ls),
(169,727,o),
(125,637,o),
(125,578,cs),
(125,516,l),
(29,516,l),
(29,373,l),
(125,373,l),
(125,0,l)
);
}
);
width = 616;
},
{
layerId = m004;
shapes = (
{
closed = 1;
nodes = (
(216,0,l),
(216,469,l),
(330,469,l),
(330,545,l),
(216,545,l),
(216,613,ls),
(216,638,o),
(236,658,o),
(261,658,cs),
(330,658,l),
(330,738,l),
(261,738,ls),
(186,738,o),
(125,677,o),
(125,602,cs),
(125,545,l),
(35,545,l),
(35,469,l),
(125,469,l),
(125,0,l)
);
}
);
width = 352;
},
{
layerId = m005;
shapes = (
{
closed = 1;
nodes = (
(156,0,l),
(156,527,l),
(303,527,l),
(303,545,l),
(156,545,l),
(156,603,ls),
(156,667,o),
(207,716,o),
(261,716,cs),
(303,716,l),
(303,738,l),
(262,738,ls),
(187,738,o),
(133,680,o),
(133,605,cs),
(133,545,l),
(53,545,l),
(53,527,l),
(133,527,l),
(133,0,l)
);
}
);
width = 332;
},
{
layerId = m006;
shapes = (
{
closed = 1;
nodes = (
(458,0,l),
(458,373,l),
(593,373,l),
(593,516,l),
(458,516,l),
(458,551,ls),
(458,570,o),
(468,584,o),
(490,584,cs),
(593,584,l),
(593,727,l),
(266,727,ls),
(162,727,o),
(118,637,o),
(118,578,cs),
(118,516,l),
(22,516,l),
(22,373,l),
(118,373,l),
(118,0,l)
);
}
);
width = 602;
}
);
note = uni0066;
unicode = 102;
},
{
glyphname = uni0067;
kernLeft = uni0063;
kernRight = uni0067;
lastChange = "2026-04-09 08:54:05 +0000";
layers = (
{
layerId = m01;
shapes = (
{
closed = 1;
nodes = (
(201,61,o),
(150,153,o),
(150,268,c),
(150,384,o),
(201,482,o),
(306,482,c),
(415,482,o),
(461,384,o),
(461,268,c),
(461,153,o),
(415,61,o),
(306,61,c)
);
},
{
closed = 1;
nodes = (
(467,545,l),
(467,459,l),
(427,517,o),
(369,551,o),
(282,551,c),
(121,551,o),
(46,430,o),
(46,275,c),
(46,119,o),
(121,-8,o),
(282,-8,c),
(369,-8,o),
(427,32,o),
(467,90,c),
(467,32,l),
(467,-54,o),
(444,-142,o),
(311,-142,c),
(219,-142,o),
(179,-95,o),
(167,-42,c),
(73,-42,l),
(102,-158,o),
(184,-216,o),
(311,-216,c),
(496,-216,o),
(559,-106,o),
(559,32,c),
(559,545,l)
);
}
);
width = 618;
},
{
layerId = F2C6FA2E-D08A-4B94-92D2-D7CA5820546A;
shapes = (
{
closed = 1;
nodes = (
(160,5,o),
(93,122,o),
(93,266,c),
(93,411,o),
(160,534,o),
(305,534,c),
(449,534,o),
(517,411,o),
(517,267,c),
(517,122,o),
(449,5,o),
(305,5,c)
);
},
{
closed = 1;
nodes = (
(517,546,l),
(517,407,l),
(484,493,o),
(414,552,o),
(304,552,c),
(144,552,o),
(69,425,o),
(69,270,c),
(69,114,o),
(144,-12,o),
(304,-12,c),
(414,-12,o),
(484,47,o),
(517,134,c),
(517,-1,l),
(517,-107,o),
(417,-192,o),
(311,-192,c),
(233,-192,o),
(152,-147,o),
(122,-81,c),
(97,-81,l),
(130,-164,o),
(224,-216,o),
(311,-216,c),
(430,-216,o),
(541,-119,o),
(541,-1,c),
(541,546,l)
);
}
);
width = 613;
},
{
layerId = F8E60EAC-58E2-4CB8-A8B6-FD6FE89414CC;
shapes = (
{
closed = 1;
nodes = (
(376,213,o),
(356,245,o),
(356,285,c),
(356,326,o),
(376,361,o),
(419,361,c),
(461,361,o),
(482,326,o),
(482,286,c),
(482,246,o),
(461,213,o),
(419,213,c)
);
},
{
closed = 1;
nodes = (
(493,545,l),
(493,479,l),
(449,523,o),
(385,551,o),
(298,551,c),
(119,551,o),
(35,432,o),
(35,287,c),
(35,141,o),
(119,23,o),
(298,23,c),
(385,23,o),
(449,50,o),
(493,95,c),
(493,9,l),
(493,-29,o),
(484,-78,o),
(429,-78,c),
(388,-78,o),
(367,-57,o),
(365,1,c),
(35,1,l),
(93,-181,o),
(222,-241,o),
(425,-241,c),
(720,-241,o),
(820,-90,o),
(820,96,c),
(820,545,l)
);
}
);
width = 863;
},
{
layerId = m004;
shapes = (
{
closed = 1;
nodes = (
(186,61,o),
(135,153,o),
(135,268,c),
(135,384,o),
(186,482,o),
(291,482,c),
(401,482,o),
(446,384,o),
(446,268,c),
(446,153,o),
(401,61,o),
(291,61,c)
);
},
{
closed = 1;
nodes = (
(452,545,l),
(452,459,l),
(412,517,o),
(354,551,o),
(267,551,c),
(106,551,o),
(31,430,o),
(31,275,c),
(31,119,o),
(106,-8,o),
(267,-8,c),
(354,-8,o),
(412,32,o),
(452,90,c),
(452,32,l),
(452,-54,o),
(429,-142,o),
(297,-142,c),
(204,-142,o),
(164,-95,o),
(152,-42,c),
(58,-42,l),
(87,-158,o),
(169,-216,o),
(297,-216,c),
(481,-216,o),
(544,-106,o),
(544,32,c),
(544,545,l)
);
}
);
width = 585;
},
{
layerId = m005;
shapes = (
{
closed = 1;
nodes = (
(143,5,o),
(76,122,o),
(76,266,c),
(76,411,o),
(143,534,o),
(288,534,c),
(432,534,o),
(500,411,o),
(500,267,c),
(500,122,o),
(432,5,o),
(288,5,c)
);
},
{
closed = 1;
nodes = (
(500,546,l),
(500,407,l),
(467,493,o),
(397,552,o),
(287,552,c),
(127,552,o),
(52,425,o),
(52,270,c),
(52,114,o),
(127,-12,o),
(287,-12,c),
(397,-12,o),
(467,47,o),
(500,134,c),
(500,-1,l),
(500,-107,o),
(400,-192,o),
(294,-192,c),
(216,-192,o),
(135,-147,o),
(105,-81,c),
(80,-81,l),
(113,-164,o),
(207,-216,o),
(294,-216,c),
(413,-216,o),
(524,-119,o),
(524,-1,c),
(524,546,l)
);
}
);
width = 578;
},
{
layerId = m006;
shapes = (
{
closed = 1;
nodes = (
(365,213,o),
(345,245,o),
(345,285,c),
(345,326,o),
(365,361,o),
(407,361,c),
(450,361,o),
(470,326,o),
(470,286,c),
(470,246,o),
(450,213,o),
(407,213,c)
);
},
{
closed = 1;
nodes = (
(481,545,l),
(481,479,l),
(438,523,o),
(374,551,o),
(287,551,c),
(107,551,o),
(23,432,o),
(23,287,c),
(23,141,o),
(107,23,o),
(287,23,c),
(374,23,o),
(438,50,o),
(481,95,c),
(481,9,l),
(481,-29,o),
(473,-78,o),
(417,-78,c),
(377,-78,o),
(356,-57,o),
(354,1,c),
(23,1,l),
(82,-181,o),
(210,-241,o),
(414,-241,c),
(709,-241,o),
(808,-90,o),
(808,96,c),
(808,545,l)
);
}
);
width = 838;
}
);
note = uni0067;
unicode = 103;
},
{
glyphname = uni0068;
lastChange = "2026-04-09 08:54:05 +0000";
layers = (
{
layerId = m01;
shapes = (
{
closed = 1;
nodes = (
(204,545,o),
(116,458,o),
(116,351,c),
(116,0,l),
(145,0,l),
(145,321,l),
(145,402,o),
(210,467,o),
(290,467,c),
(360,467,o),
(417,411,o),
(417,341,c),
(417,0,l),
(506,0,l),
(506,373,l),
(506,468,o),
(429,545,o),
(322,545,c)
);
},
{
closed = 1;
nodes = (
(55,0,l),
(145,0,l),
(145,727,l),
(55,727,l)
);
}
);
width = 554;
},
{
layerId = F2C6FA2E-D08A-4B94-92D2-D7CA5820546A;
shapes = (
{
closed = 1;
nodes = (
(174,545,o),
(82,451,o),
(82,344,c),
(82,0,l),
(105,0,l),
(105,366,l),
(105,450,o),
(189,523,o),
(289,523,c),
(380,523,o),
(457,449,o),
(457,362,c),
(457,0,l),
(479,0,l),
(479,366,l),
(479,468,o),
(395,545,o),
(289,545,c)
);
},
{
closed = 1;
nodes = (
(82,0,l),
(105,0,l),
(105,727,l),
(82,727,l)
);
}
);
width = 558;
},
{
layerId = F8E60EAC-58E2-4CB8-A8B6-FD6FE89414CC;
shapes = (
{
closed = 1;
nodes = (
(465,557,o),
(358,483,o),
(358,358,c),
(358,0,l),
(386,0,l),
(386,299,l),
(386,362,o),
(406,404,o),
(465,404,c),
(526,404,o),
(540,353,o),
(540,296,c),
(540,0,l),
(882,0,l),
(882,353,l),
(882,466,o),
(793,557,o),
(621,557,c)
);
},
{
closed = 1;
nodes = (
(45,0,l),
(386,0,l),
(386,727,l),
(45,727,l)
);
}
);
width = 913;
},
{
layerId = m004;
shapes = (
{
closed = 1;
nodes = (
(189,545,o),
(102,458,o),
(102,351,c),
(102,0,l),
(130,0,l),
(130,321,l),
(130,402,o),
(195,467,o),
(276,467,c),
(346,467,o),
(402,411,o),
(402,341,c),
(402,0,l),
(491,0,l),
(491,373,l),
(491,468,o),
(414,545,o),
(308,545,c)
);
},
{
closed = 1;
nodes = (
(40,0,l),
(130,0,l),
(130,727,l),
(40,727,l)
);
}
);
width = 523;
},
{
layerId = m005;
shapes = (
{
closed = 1;
nodes = (
(152,545,o),
(61,451,o),
(61,344,c),
(61,0,l),
(83,0,l),
(83,366,l),
(83,450,o),
(167,523,o),
(268,523,c),
(358,523,o),
(435,449,o),
(435,362,c),
(435,0,l),
(458,0,l),
(458,366,l),
(458,468,o),
(374,545,o),
(267,545,c)
);
},
{
closed = 1;
nodes = (
(60,0,l),
(83,0,l),
(83,727,l),
(60,727,l)
);
}
);
width = 515;
},
{
layerId = m006;
shapes = (
{
closed = 1;
nodes = (
(453,557,o),
(347,483,o),
(347,358,c),
(347,0,l),
(375,0,l),
(375,299,l),
(375,362,o),
(394,404,o),
(453,404,c),
(514,404,o),
(528,353,o),
(528,296,c),
(528,0,l),
(871,0,l),
(871,353,l),
(871,466,o),
(781,557,o),
(609,557,c)
);
},
{
closed = 1;
nodes = (
(33,0,l),
(375,0,l),
(375,727,l),
(33,727,l)
);
}
);
width = 889;
}
);
note = uni0068;
unicode = 104;
},
{
glyphname = uni0069;
lastChange = "2026-04-09 08:54:05 +0000";
layers = (
{
layerId = m01;
shapes = (
{
closed = 1;
nodes = (
(50,0,l),
(141,0,l),
(141,545,l),
(50,545,l)
);
},
{
closed = 1;
nodes = (
(50,636,l),
(141,636,l),
(141,727,l),
(50,727,l)
);
}
);
width = 192;
},
{
layerId = F2C6FA2E-D08A-4B94-92D2-D7CA5820546A;
shapes = (
{
closed = 1;
nodes = (
(81,0,l),
(104,0,l),
(104,545,l),
(81,545,l)
);
},
{
closed = 1;
nodes = (
(81,636,l),
(104,636,l),
(104,727,l),
(81,727,l)
);
}
);
width = 185;
},
{
layerId = F8E60EAC-58E2-4CB8-A8B6-FD6FE89414CC;
shapes = (
{
closed = 1;
nodes = (
(47,0,l),
(388,0,l),
(388,546,l),
(47,546,l)
);
},
{
closed = 1;
nodes = (
(47,585,l),
(388,585,l),
(388,727,l),
(47,727,l)
);
}
);
width = 435;
},
{
layerId = m004;
shapes = (
{
closed = 1;
nodes = (
(38,0,l),
(129,0,l),
(129,545,l),
(38,545,l)
);
},
{
closed = 1;
nodes = (
(38,636,l),
(129,636,l),
(129,727,l),
(38,727,l)
);
}
);
width = 166;
},
{
layerId = m005;
shapes = (
{
closed = 1;
nodes = (
(61,0,l),
(83,0,l),
(83,545,l),
(61,545,l)
);
},
{
closed = 1;
nodes = (
(61,636,l),
(83,636,l),
(83,727,l),
(61,727,l)
);
}
);
width = 144;
},
{
layerId = m006;
shapes = (
{
closed = 1;
nodes = (
(35,0,l),
(376,0,l),
(376,546,l),
(35,546,l)
);
},
{
closed = 1;
nodes = (
(35,585,l),
(376,585,l),
(376,727,l),
(35,727,l)
);
}
);
width = 412;
}
);
note = uni0069;
unicode = 105;
},
{
glyphname = uni006A;
lastChange = "2026-04-09 08:54:05 +0000";
layers = (
{
layerId = m01;
shapes = (
{
closed = 1;
nodes = (
(119,638,l),
(210,638,l),
(210,727,l),
(119,727,l)
);
},
{
closed = 1;
nodes = (
(210,-42,l),
(210,-118,o),
(149,-178,o),
(74,-178,c),
(30,-178,l),
(30,-99,l),
(74,-99,l),
(99,-99,o),
(119,-78,o),
(119,-54,c),
(119,545,l),
(210,545,l)
);
}
);
width = 260;
},
{
layerId = F2C6FA2E-D08A-4B94-92D2-D7CA5820546A;
shapes = (
{
closed = 1;
nodes = (
(166,636,l),
(189,636,l),
(189,727,l),
(166,727,l)
);
},
{
closed = 1;
nodes = (
(189,-44,l),
(189,-120,o),
(135,-177,o),
(60,-177,c),
(41,-177,l),
(41,-156,l),
(61,-156,l),
(115,-156,o),
(166,-106,o),
(166,-42,c),
(166,545,l),
(189,545,l)
);
}
);
width = 270;
},
{
layerId = F8E60EAC-58E2-4CB8-A8B6-FD6FE89414CC;
shapes = (
{
closed = 1;
nodes = (
(115,584,l),
(456,584,l),
(456,727,l),
(115,727,l)
);
},
{
closed = 1;
nodes = (
(456,-93,l),
(456,-152,o),
(412,-242,o),
(307,-242,c),
(23,-242,l),
(23,-22,l),
(83,-22,l),
(105,-22,o),
(115,-8,o),
(115,10,c),
(115,545,l),
(456,545,l)
);
}
);
width = 502;
},
{
layerId = m004;
shapes = (
{
closed = 1;
nodes = (
(112,638,l),
(202,638,l),
(202,727,l),
(112,727,l)
);
},
{
closed = 1;
nodes = (
(202,-42,l),
(202,-118,o),
(141,-178,o),
(66,-178,c),
(22,-178,l),
(22,-99,l),
(66,-99,l),
(92,-99,o),
(112,-78,o),
(112,-54,c),
(112,545,l),
(202,545,l)
);
}
);
width = 240;
},
{
layerId = m005;
shapes = (
{
closed = 1;
nodes = (
(156,636,l),
(179,636,l),
(179,727,l),
(156,727,l)
);
},
{
closed = 1;
nodes = (
(179,-44,l),
(179,-120,o),
(125,-177,o),
(50,-177,c),
(31,-177,l),
(31,-156,l),
(50,-156,l),
(105,-156,o),
(156,-106,o),
(156,-42,c),
(156,545,l),
(179,545,l)
);
}
);
width = 239;
},
{
layerId = m006;
shapes = (
{
closed = 1;
nodes = (
(109,584,l),
(450,584,l),
(450,727,l),
(109,727,l)
);
},
{
closed = 1;
nodes = (
(450,-93,l),
(450,-152,o),
(406,-242,o),
(301,-242,c),
(17,-242,l),
(17,-22,l),
(78,-22,l),
(99,-22,o),
(109,-8,o),
(109,10,c),
(109,545,l),
(450,545,l)
);
}
);
width = 485;
}
);
note = uni006A;
unicode = 106;
},
{
glyphname = uni006B;
kernLeft = uni006B;
kernRight = uni006B;
lastChange = "2026-04-09 08:54:05 +0000";
layers = (
{
layerId = m01;
shapes = (
{
closed = 1;
nodes = (
(499,0,l),
(260,313,l),
(482,546,l),
(368,546,l),
(146,313,l),
(385,0,l)
);
},
{
closed = 1;
nodes = (
(146,0,l),
(146,727,l),
(55,727,l),
(55,0,l)
);
}
);
width = 525;
},
{
layerId = F2C6FA2E-D08A-4B94-92D2-D7CA5820546A;
shapes = (
{
closed = 1;
nodes = (
(420,0,l),
(136,312,l),
(391,545,l),
(357,545,l),
(104,312,l),
(389,0,l)
);
},
{
closed = 1;
nodes = (
(104,0,l),
(104,727,l),
(82,727,l),
(82,0,l)
);
}
);
width = 471;
},
{
layerId = F8E60EAC-58E2-4CB8-A8B6-FD6FE89414CC;
shapes = (
{
closed = 1;
nodes = (
(978,0,l),
(739,313,l),
(961,546,l),
(608,546,l),
(386,313,l),
(625,0,l)
);
},
{
closed = 1;
nodes = (
(386,0,l),
(386,727,l),
(46,727,l),
(46,0,l)
);
}
);
width = 993;
},
{
layerId = m004;
shapes = (
{
closed = 1;
nodes = (
(484,0,l),
(245,313,l),
(467,546,l),
(353,546,l),
(131,313,l),
(370,0,l)
);
},
{
closed = 1;
nodes = (
(131,0,l),
(131,727,l),
(40,727,l),
(40,0,l)
);
}
);
width = 502;
},
{
layerId = m005;
shapes = (
{
closed = 1;
nodes = (
(399,0,l),
(115,312,l),
(370,545,l),
(335,545,l),
(83,312,l),
(368,0,l)
);
},
{
closed = 1;
nodes = (
(83,0,l),
(83,727,l),
(60,727,l),
(60,0,l)
);
}
);
width = 436;
},
{
layerId = m006;
shapes = (
{
closed = 1;
nodes = (
(966,0,l),
(727,313,l),
(949,546,l),
(596,546,l),
(374,313,l),
(613,0,l)
);
},
{
closed = 1;
nodes = (
(374,0,l),
(374,727,l),
(34,727,l),
(34,0,l)
);
}
);
width = 977;
}
);
note = uni006B;
unicode = 107;
},
{
glyphname = uni006C;
kernLeft = uni0064;
kernRight = uni006C;
lastChange = "2026-04-09 08:54:05 +0000";
layers = (
{
layerId = m01;
shapes = (
{
closed = 1;
nodes = (
(55,0,l),
(146,0,l),
(146,727,l),
(55,727,l)
);
}
);
width = 202;
},
{
layerId = F2C6FA2E-D08A-4B94-92D2-D7CA5820546A;
shapes = (
{
closed = 1;
nodes = (
(82,0,l),
(104,0,l),
(104,727,l),
(82,727,l)
);
}
);
width = 186;
},
{
layerId = F8E60EAC-58E2-4CB8-A8B6-FD6FE89414CC;
shapes = (
{
closed = 1;
nodes = (
(45,0,l),
(386,0,l),
(386,727,l),
(45,727,l)
);
}
);
width = 431;
},
{
layerId = m004;
shapes = (
{
closed = 1;
nodes = (
(40,0,l),
(131,0,l),
(131,727,l),
(40,727,l)
);
}
);
width = 172;
},
{
layerId = m005;
shapes = (
{
closed = 1;
nodes = (
(60,0,l),
(83,0,l),
(83,727,l),
(60,727,l)
);
}
);
width = 143;
},
{
layerId = m006;
shapes = (
{
closed = 1;
nodes = (
(33,0,l),
(374,0,l),
(374,727,l),
(33,727,l)
);
}
);
width = 408;
}
);
note = uni006C;
unicode = 108;
},
{
glyphname = uni006D;
kernLeft = uni006D;
kernRight = uni006D;
lastChange = "2026-04-09 08:54:05 +0000";
layers = (
{
layerId = m01;
shapes = (
{
closed = 1;
nodes = (
(200,545,o),
(113,458,o),
(113,351,c),
(113,0,l),
(141,0,l),
(141,321,l),
(141,402,o),
(206,467,o),
(287,467,c),
(357,467,o),
(414,411,o),
(414,341,c),
(414,0,l),
(502,0,l),
(502,373,l),
(502,468,o),
(425,545,o),
(319,545,c)
);
},
{
closed = 1;
nodes = (
(52,0,l),
(141,0,l),
(141,545,l),
(52,545,l)
);
},
{
closed = 1;
nodes = (
(562,545,o),
(474,458,o),
(474,351,c),
(474,0,l),
(502,0,l),
(502,321,l),
(502,402,o),
(568,467,o),
(648,467,c),
(718,467,o),
(775,411,o),
(775,341,c),
(775,0,l),
(864,0,l),
(864,373,l),
(864,468,o),
(787,545,o),
(680,545,c)
);
}
);
width = 912;
},
{
layerId = F2C6FA2E-D08A-4B94-92D2-D7CA5820546A;
shapes = (
{
closed = 1;
nodes = (
(171,545,o),
(79,451,o),
(79,344,c),
(79,0,l),
(102,0,l),
(102,370,l),
(102,455,o),
(186,523,o),
(287,523,c),
(377,523,o),
(454,449,o),
(454,362,c),
(454,0,l),
(477,0,l),
(477,366,l),
(477,468,o),
(392,545,o),
(286,545,c)
);
},
{
closed = 1;
nodes = (
(79,0,l),
(102,0,l),
(102,547,l),
(79,547,l)
);
},
{
closed = 1;
nodes = (
(545,545,o),
(454,451,o),
(454,344,c),
(454,0,l),
(477,0,l),
(477,350,l),
(477,434,o),
(560,523,o),
(661,523,c),
(751,523,o),
(828,449,o),
(828,362,c),
(828,0,l),
(851,0,l),
(851,366,l),
(851,468,o),
(767,545,o),
(661,545,c)
);
}
);
width = 930;
},
{
layerId = F8E60EAC-58E2-4CB8-A8B6-FD6FE89414CC;
shapes = (
{
closed = 1;
nodes = (
(460,557,o),
(353,483,o),
(353,358,c),
(353,0,l),
(381,0,l),
(381,299,l),
(381,362,o),
(400,404,o),
(460,404,c),
(520,404,o),
(534,353,o),
(534,296,c),
(534,0,l),
(877,0,l),
(877,353,l),
(877,466,o),
(787,557,o),
(616,557,c)
);
},
{
closed = 1;
nodes = (
(40,0,l),
(381,0,l),
(381,545,l),
(40,545,l)
);
},
{
closed = 1;
nodes = (
(956,557,o),
(849,483,o),
(849,358,c),
(849,0,l),
(877,0,l),
(877,299,l),
(877,362,o),
(896,404,o),
(956,404,c),
(1016,404,o),
(1031,353,o),
(1031,296,c),
(1031,0,l),
(1373,0,l),
(1373,353,l),
(1373,466,o),
(1283,557,o),
(1112,557,c)
);
}
);
width = 1404;
},
{
layerId = m004;
shapes = (
{
closed = 1;
nodes = (
(185,545,o),
(98,458,o),
(98,351,c),
(98,0,l),
(126,0,l),
(126,321,l),
(126,402,o),
(191,467,o),
(272,467,c),
(342,467,o),
(399,411,o),
(399,341,c),
(399,0,l),
(488,0,l),
(488,373,l),
(488,468,o),
(410,545,o),
(304,545,c)
);
},
{
closed = 1;
nodes = (
(37,0,l),
(126,0,l),
(126,545,l),
(37,545,l)
);
},
{
closed = 1;
nodes = (
(547,545,o),
(460,458,o),
(460,351,c),
(460,0,l),
(488,0,l),
(488,321,l),
(488,402,o),
(553,467,o),
(634,467,c),
(703,467,o),
(760,411,o),
(760,341,c),
(760,0,l),
(849,0,l),
(849,373,l),
(849,468,o),
(772,545,o),
(665,545,c)
);
}
);
width = 881;
},
{
layerId = m005;
shapes = (
{
closed = 1;
nodes = (
(149,545,o),
(57,451,o),
(57,344,c),
(57,0,l),
(80,0,l),
(80,370,l),
(80,455,o),
(164,523,o),
(265,523,c),
(355,523,o),
(432,449,o),
(432,362,c),
(432,0,l),
(455,0,l),
(455,366,l),
(455,468,o),
(370,545,o),
(264,545,c)
);
},
{
closed = 1;
nodes = (
(57,0,l),
(80,0,l),
(80,547,l),
(57,547,l)
);
},
{
closed = 1;
nodes = (
(523,545,o),
(432,451,o),
(432,344,c),
(432,0,l),
(455,0,l),
(455,350,l),
(455,434,o),
(538,523,o),
(639,523,c),
(729,523,o),
(806,449,o),
(806,362,c),
(806,0,l),
(829,0,l),
(829,366,l),
(829,468,o),
(745,545,o),
(638,545,c)
);
}
);
width = 886;
},
{
layerId = m006;
shapes = (
{
closed = 1;
nodes = (
(452,557,o),
(345,483,o),
(345,358,c),
(345,0,l),
(373,0,l),
(373,299,l),
(373,362,o),
(392,404,o),
(451,404,c),
(512,404,o),
(526,353,o),
(526,296,c),
(526,0,l),
(869,0,l),
(869,353,l),
(869,466,o),
(779,557,o),
(608,557,c)
);
},
{
closed = 1;
nodes = (
(32,0,l),
(373,0,l),
(373,545,l),
(32,545,l)
);
},
{
closed = 1;
nodes = (
(948,557,o),
(841,483,o),
(841,358,c),
(841,0,l),
(869,0,l),
(869,299,l),
(869,362,o),
(888,404,o),
(947,404,c),
(1008,404,o),
(1022,353,o),
(1022,296,c),
(1022,0,l),
(1365,0,l),
(1365,353,l),
(1365,466,o),
(1275,557,o),
(1104,557,c)
);
}
);
width = 1383;
}
);
note = uni006D;
unicode = 109;
leftMetricsKey = "=uni006E";
},
{
glyphname = uni006E;
kernLeft = uni006E;
kernRight = uni006D;
lastChange = "2026-04-09 08:54:05 +0000";
layers = (
{
layerId = m01;
shapes = (
{
closed = 1;
nodes = (
(200,545,o),
(113,458,o),
(113,351,c),
(113,0,l),
(141,0,l),
(141,321,l),
(141,402,o),
(206,467,o),
(287,467,c),
(357,467,o),
(414,411,o),
(414,341,c),
(414,0,l),
(502,0,l),
(502,373,l),
(502,468,o),
(425,545,o),
(319,545,c)
);
},
{
closed = 1;
nodes = (
(52,0,l),
(141,0,l),
(141,545,l),
(52,545,l)
);
}
);
width = 551;
},
{
layerId = F2C6FA2E-D08A-4B94-92D2-D7CA5820546A;
shapes = (
{
closed = 1;
nodes = (
(171,545,o),
(79,451,o),
(79,344,c),
(79,0,l),
(102,0,l),
(102,366,l),
(102,450,o),
(186,523,o),
(287,523,c),
(377,523,o),
(454,449,o),
(454,362,c),
(454,0,l),
(477,0,l),
(477,366,l),
(477,468,o),
(392,545,o),
(286,545,c)
);
},
{
closed = 1;
nodes = (
(79,0,l),
(102,0,l),
(102,547,l),
(79,547,l)
);
}
);
width = 555;
},
{
layerId = F8E60EAC-58E2-4CB8-A8B6-FD6FE89414CC;
shapes = (
{
closed = 1;
nodes = (
(460,557,o),
(353,483,o),
(353,358,c),
(353,0,l),
(381,0,l),
(381,299,l),
(381,362,o),
(400,404,o),
(460,404,c),
(520,404,o),
(534,353,o),
(534,296,c),
(534,0,l),
(877,0,l),
(877,353,l),
(877,466,o),
(787,557,o),
(616,557,c)
);
},
{
closed = 1;
nodes = (
(40,0,l),
(381,0,l),
(381,545,l),
(40,545,l)
);
}
);
width = 908;
},
{
layerId = m004;
shapes = (
{
closed = 1;
nodes = (
(185,545,o),
(98,458,o),
(98,351,c),
(98,0,l),
(126,0,l),
(126,321,l),
(126,402,o),
(191,467,o),
(272,467,c),
(342,467,o),
(399,411,o),
(399,341,c),
(399,0,l),
(488,0,l),
(488,373,l),
(488,468,o),
(410,545,o),
(304,545,c)
);
},
{
closed = 1;
nodes = (
(37,0,l),
(126,0,l),
(126,545,l),
(37,545,l)
);
}
);
width = 520;
},
{
layerId = m005;
shapes = (
{
closed = 1;
nodes = (
(149,545,o),
(57,451,o),
(57,344,c),
(57,0,l),
(80,0,l),
(80,366,l),
(80,450,o),
(164,523,o),
(265,523,c),
(355,523,o),
(432,449,o),
(432,362,c),
(432,0,l),
(455,0,l),
(455,366,l),
(455,468,o),
(370,545,o),
(264,545,c)
);
},
{
closed = 1;
nodes = (
(57,0,l),
(80,0,l),
(80,547,l),
(57,547,l)
);
}
);
width = 511;
},
{
layerId = m006;
shapes = (
{
closed = 1;
nodes = (
(452,557,o),
(345,483,o),
(345,358,c),
(345,0,l),
(373,0,l),
(373,299,l),
(373,362,o),
(392,404,o),
(451,404,c),
(512,404,o),
(526,353,o),
(526,296,c),
(526,0,l),
(869,0,l),
(869,353,l),
(869,466,o),
(779,557,o),
(608,557,c)
);
},
{
closed = 1;
nodes = (
(32,0,l),
(373,0,l),
(373,545,l),
(32,545,l)
);
}
);
width = 887;
}
);
note = uni006E;
unicode = 110;
},
{
glyphname = uni006F;
kernLeft = uni0062;
kernRight = uni006F;
lastChange = "2026-04-14 15:42:20 +0000";
layers = (
{
layerId = m01;
shapes = (
{
closed = 1;
nodes = (
(199,55,o),
(148,151,o),
(148,269,c),
(148,387,o),
(199,484,o),
(306,484,c),
(413,484,o),
(469,387,o),
(469,269,c),
(469,151,o),
(413,55,o),
(306,55,c)
);
},
{
closed = 1;
nodes = (
(131,551,o),
(46,427,o),
(46,269,c),
(46,116,o),
(131,-13,o),
(306,-13,c),
(486,-13,o),
(571,116,o),
(571,269,c),
(571,427,o),
(486,551,o),
(306,551,c)
);
}
);
width = 618;
},
{
layerId = F2C6FA2E-D08A-4B94-92D2-D7CA5820546A;
shapes = (
{
closed = 1;
nodes = (
(183,5,o),
(92,133,o),
(92,269,c),
(92,416,o),
(165,534,o),
(328,534,c),
(486,534,o),
(571,416,o),
(571,269,c),
(571,123,o),
(486,5,o),
(328,5,c)
);
},
{
closed = 1;
nodes = (
(154,551,o),
(69,427,o),
(69,269,c),
(69,117,o),
(154,-12,o),
(328,-12,c),
(509,-12,o),
(593,117,o),
(593,269,c),
(593,427,o),
(509,551,o),
(328,551,c)
);
}
);
width = 662;
},
{
layerId = F8E60EAC-58E2-4CB8-A8B6-FD6FE89414CC;
shapes = (
{
closed = 1;
nodes = (
(385,180,o),
(367,222,o),
(367,270,c),
(367,316,o),
(385,358,o),
(422,358,c),
(457,358,o),
(479,316,o),
(479,270,c),
(479,222,o),
(457,180,o),
(422,180,c)
);
},
{
closed = 1;
nodes = (
(149,553,o),
(33,426,o),
(33,270,c),
(33,113,o),
(143,-15,o),
(425,-15,c),
(701,-15,o),
(813,113,o),
(813,270,c),
(813,426,o),
(701,553,o),
(425,553,c)
);
}
);
width = 846;
},
{
layerId = m004;
shapes = (
{
closed = 1;
nodes = (
(184,55,o),
(133,151,o),
(133,269,c),
(133,387,o),
(184,484,o),
(291,484,c),
(398,484,o),
(455,387,o),
(455,269,c),
(455,151,o),
(398,55,o),
(291,55,c)
);
},
{
closed = 1;
nodes = (
(116,551,o),
(31,427,o),
(31,269,c),
(31,116,o),
(116,-13,o),
(291,-13,c),
(471,-13,o),
(556,116,o),
(556,269,c),
(556,427,o),
(471,551,o),
(291,551,c)
);
}
);
width = 588;
},
{
layerId = m005;
shapes = (
{
closed = 1;
nodes = (
(166,5,o),
(75,133,o),
(75,269,c),
(75,416,o),
(148,534,o),
(311,534,c),
(469,534,o),
(554,416,o),
(554,269,c),
(554,123,o),
(469,5,o),
(311,5,c)
);
},
{
closed = 1;
nodes = (
(137,551,o),
(52,427,o),
(52,269,c),
(52,117,o),
(137,-12,o),
(311,-12,c),
(491,-12,o),
(576,117,o),
(576,269,c),
(576,427,o),
(491,551,o),
(311,551,c)
);
}
);
width = 628;
},
{
layerId = m006;
shapes = (
{
closed = 1;
nodes = (
(374,180,o),
(356,222,o),
(356,270,c),
(356,316,o),
(374,358,o),
(411,358,c),
(446,358,o),
(468,316,o),
(468,270,c),
(468,222,o),
(446,180,o),
(411,180,c)
);
},
{
closed = 1;
nodes = (
(138,553,o),
(22,426,o),
(22,270,c),
(22,113,o),
(132,-15,o),
(414,-15,c),
(690,-15,o),
(801,113,o),
(801,270,c),
(801,426,o),
(690,553,o),
(414,553,c)
);
}
);
width = 824;
}
);
note = uni006F;
unicode = 111;
},
{
glyphname = uni0070;
kernLeft = uni0062;
kernRight = uni006D;
lastChange = "2026-04-09 08:54:05 +0000";
layers = (
{
layerId = m01;
shapes = (
{
closed = 1;
nodes = (
(142,-181,l),
(142,545,l),
(52,545,l),
(52,-181,l)
);
},
{
closed = 1;
nodes = (
(404,483,o),
(449,392,o),
(449,279,c),
(449,165,o),
(404,68,o),
(296,68,c),
(194,68,o),
(142,165,o),
(142,279,c),
(142,392,o),
(194,483,o),
(296,483,c)
);
},
{
closed = 1;
nodes = (
(478,0,o),
(551,125,o),
(551,273,c),
(551,426,o),
(478,551,o),
(324,551,c),
(165,551,o),
(92,426,o),
(92,273,c),
(92,119,o),
(165,0,o),
(324,0,c)
);
}
);
width = 597;
},
{
layerId = F2C6FA2E-D08A-4B94-92D2-D7CA5820546A;
shapes = (
{
closed = 1;
nodes = (
(102,-182,l),
(102,545,l),
(79,545,l),
(79,-182,l)
);
},
{
closed = 1;
nodes = (
(450,534,o),
(516,420,o),
(516,279,c),
(516,138,o),
(450,17,o),
(309,17,c),
(168,17,o),
(101,137,o),
(101,278,c),
(101,419,o),
(168,534,o),
(309,534,c)
);
},
{
closed = 1;
nodes = (
(466,0,o),
(539,124,o),
(539,275,c),
(539,428,o),
(466,551,o),
(309,551,c),
(152,551,o),
(79,426,o),
(79,275,c),
(79,123,o),
(152,0,o),
(309,0,c)
);
}
);
width = 608;
},
{
layerId = F8E60EAC-58E2-4CB8-A8B6-FD6FE89414CC;
shapes = (
{
closed = 1;
nodes = (
(380,-182,l),
(380,545,l),
(40,545,l),
(40,-182,l)
);
},
{
closed = 1;
nodes = (
(503,353,o),
(524,320,o),
(524,277,c),
(524,236,o),
(503,200,o),
(458,200,c),
(414,200,o),
(393,235,o),
(393,277,c),
(393,318,o),
(414,353,o),
(458,353,c)
);
},
{
closed = 1;
nodes = (
(772,0,o),
(859,124,o),
(859,276,c),
(859,428,o),
(772,551,o),
(584,551,c),
(396,551,o),
(308,426,o),
(308,275,c),
(308,123,o),
(396,0,o),
(584,0,c)
);
}
);
width = 897;
},
{
layerId = m004;
shapes = (
{
closed = 1;
nodes = (
(127,-181,l),
(127,545,l),
(37,545,l),
(37,-181,l)
);
},
{
closed = 1;
nodes = (
(389,483,o),
(434,392,o),
(434,279,c),
(434,165,o),
(389,68,o),
(281,68,c),
(179,68,o),
(127,165,o),
(127,279,c),
(127,392,o),
(179,483,o),
(281,483,c)
);
},
{
closed = 1;
nodes = (
(463,0,o),
(536,125,o),
(536,273,c),
(536,426,o),
(463,551,o),
(309,551,c),
(150,551,o),
(77,426,o),
(77,273,c),
(77,119,o),
(150,0,o),
(309,0,c)
);
}
);
width = 571;
},
{
layerId = m005;
shapes = (
{
closed = 1;
nodes = (
(80,-182,l),
(80,545,l),
(57,545,l),
(57,-182,l)
);
},
{
closed = 1;
nodes = (
(428,534,o),
(494,420,o),
(494,279,c),
(494,138,o),
(428,17,o),
(287,17,c),
(146,17,o),
(79,137,o),
(79,278,c),
(79,419,o),
(146,534,o),
(287,534,c)
);
},
{
closed = 1;
nodes = (
(444,0,o),
(517,124,o),
(517,275,c),
(517,428,o),
(444,551,o),
(287,551,c),
(130,551,o),
(57,426,o),
(57,275,c),
(57,123,o),
(130,0,o),
(287,0,c)
);
}
);
width = 569;
},
{
layerId = m006;
shapes = (
{
closed = 1;
nodes = (
(372,-182,l),
(372,545,l),
(32,545,l),
(32,-182,l)
);
},
{
closed = 1;
nodes = (
(495,353,o),
(516,320,o),
(516,277,c),
(516,236,o),
(495,200,o),
(450,200,c),
(406,200,o),
(385,235,o),
(385,277,c),
(385,318,o),
(406,353,o),
(450,353,c)
);
},
{
closed = 1;
nodes = (
(764,0,o),
(851,124,o),
(851,276,c),
(851,428,o),
(764,551,o),
(576,551,c),
(388,551,o),
(300,426,o),
(300,275,c),
(300,123,o),
(388,0,o),
(576,0,c)
);
}
);
width = 880;
}
);
note = uni0070;
unicode = 112;
},
{
glyphname = uni0071;
kernLeft = uni0063;
kernRight = uni0067;
lastChange = "2026-04-10 15:27:14 +0000";
layers = (
{
layerId = m01;
shapes = (
{
closed = 1;
nodes = (
(545,545,l),
(455,545,l),
(455,-181,l),
(545,-181,l)
);
},
{
closed = 1;
nodes = (
(404,483,o),
(455,392,o),
(455,279,c),
(455,165,o),
(404,68,o),
(301,68,c),
(194,68,o),
(148,165,o),
(148,279,c),
(148,392,o),
(194,483,o),
(301,483,c)
);
},
{
closed = 1;
nodes = (
(432,0,o),
(506,119,o),
(506,273,c),
(506,426,o),
(432,551,o),
(273,551,c),
(120,551,o),
(46,426,o),
(46,273,c),
(46,125,o),
(120,0,o),
(273,0,c)
);
}
);
width = 604;
},
{
layerId = F2C6FA2E-D08A-4B94-92D2-D7CA5820546A;
shapes = (
{
closed = 1;
nodes = (
(529,545,l),
(506,545,l),
(506,-182,l),
(529,-182,l)
);
},
{
closed = 1;
nodes = (
(440,534,o),
(506,419,o),
(506,278,c),
(506,137,o),
(440,17,o),
(299,17,c),
(157,17,o),
(92,138,o),
(92,279,c),
(92,420,o),
(157,534,o),
(299,534,c)
);
},
{
closed = 1;
nodes = (
(455,0,o),
(529,123,o),
(529,275,c),
(529,426,o),
(455,551,o),
(298,551,c),
(142,551,o),
(69,428,o),
(69,275,c),
(69,124,o),
(142,0,o),
(298,0,c)
);
}
);
width = 614;
},
{
layerId = F8E60EAC-58E2-4CB8-A8B6-FD6FE89414CC;
shapes = (
{
closed = 1;
nodes = (
(854,545,l),
(513,545,l),
(513,-182,l),
(854,-182,l)
);
},
{
closed = 1;
nodes = (
(480,353,o),
(501,318,o),
(501,277,c),
(501,235,o),
(480,200,o),
(436,200,c),
(391,200,o),
(370,236,o),
(370,277,c),
(370,320,o),
(391,353,o),
(436,353,c)
);
},
{
closed = 1;
nodes = (
(498,0,o),
(586,123,o),
(586,275,c),
(586,426,o),
(498,551,o),
(310,551,c),
(122,551,o),
(35,428,o),
(35,276,c),
(35,124,o),
(122,0,o),
(310,0,c)
);
}
);
width = 897;
},
{
layerId = m004;
shapes = (
{
closed = 1;
nodes = (
(531,545,l),
(440,545,l),
(440,-181,l),
(531,-181,l)
);
},
{
closed = 1;
nodes = (
(389,483,o),
(440,392,o),
(440,279,c),
(440,165,o),
(389,68,o),
(287,68,c),
(179,68,o),
(134,165,o),
(134,279,c),
(134,392,o),
(179,483,o),
(287,483,c)
);
},
{
closed = 1;
nodes = (
(417,0,o),
(491,119,o),
(491,273,c),
(491,426,o),
(417,551,o),
(259,551,c),
(105,551,o),
(31,426,o),
(31,273,c),
(31,125,o),
(105,0,o),
(259,0,c)
);
}
);
width = 571;
},
{
layerId = m005;
shapes = (
{
closed = 1;
nodes = (
(512,545,l),
(489,545,l),
(489,-182,l),
(512,-182,l)
);
},
{
closed = 1;
nodes = (
(423,534,o),
(489,419,o),
(489,278,c),
(489,137,o),
(423,17,o),
(282,17,c),
(140,17,o),
(75,138,o),
(75,279,c),
(75,420,o),
(140,534,o),
(282,534,c)
);
},
{
closed = 1;
nodes = (
(438,0,o),
(512,123,o),
(512,275,c),
(512,426,o),
(438,551,o),
(281,551,c),
(125,551,o),
(52,428,o),
(52,275,c),
(52,124,o),
(125,0,o),
(281,0,c)
);
}
);
width = 576;
},
{
layerId = m006;
shapes = (
{
closed = 1;
nodes = (
(843,545,l),
(502,545,l),
(502,-182,l),
(843,-182,l)
);
},
{
closed = 1;
nodes = (
(468,353,o),
(489,318,o),
(489,277,c),
(489,235,o),
(468,200,o),
(424,200,c),
(379,200,o),
(359,236,o),
(359,277,c),
(359,320,o),
(379,353,o),
(424,353,c)
);
},
{
closed = 1;
nodes = (
(486,0,o),
(575,123,o),
(575,275,c),
(575,426,o),
(486,551,o),
(299,551,c),
(110,551,o),
(23,428,o),
(23,276,c),
(23,124,o),
(110,0,o),
(299,0,c)
);
}
);
width = 873;
}
);
note = uni0071;
unicode = 113;
},
{
glyphname = uni0072;
kernLeft = uni0072;
kernRight = uni006D;
lastChange = "2026-04-09 08:54:05 +0000";
layers = (
{
layerId = m01;
shapes = (
{
closed = 1;
nodes = (
(147,319,ls),
(140,369,o),
(175,434,o),
(234,461,o),
(281,463,qs),
(290,464,o),
(316,462,o),
(325,458,q),
(325,550,l),
(318,551,o),
(297,551,o),
(295,551,qs),
(239,551,o),
(155,502,o),
(140,459,q),
(140,545,l),
(52,545,l),
(52,0,l),
(140,0,l)
);
}
);
width = 352;
},
{
layerId = F2C6FA2E-D08A-4B94-92D2-D7CA5820546A;
shapes = (
{
closed = 1;
nodes = (
(102,356,ls),
(96,419,o),
(137,493,o),
(212,531,o),
(278,527,qs),
(276,527,o),
(278,527,o),
(283,526,q),
(283,549,l),
(278,549,o),
(276,549,o),
(278,550,qs),
(201,555,o),
(108,498,o),
(96,446,q),
(96,545,l),
(73,545,l),
(73,0,l),
(96,0,l)
);
}
);
width = 328;
},
{
layerId = F8E60EAC-58E2-4CB8-A8B6-FD6FE89414CC;
shapes = (
{
closed = 1;
nodes = (
(388,155,ls),
(381,200,o),
(419,267,o),
(485,308,o),
(533,308,qs),
(551,308,o),
(609,296,o),
(630,283,q),
(630,542,l),
(614,547,o),
(577,553,o),
(566,553,qs),
(482,553,o),
(375,451,o),
(375,406,q),
(375,545,l),
(40,545,l),
(40,0,l),
(381,0,l)
);
}
);
width = 657;
},
{
layerId = m004;
shapes = (
{
closed = 1;
nodes = (
(132,319,ls),
(125,369,o),
(160,434,o),
(219,461,o),
(266,463,qs),
(275,464,o),
(301,462,o),
(310,458,q),
(310,550,l),
(303,551,o),
(282,551,o),
(280,551,qs),
(224,551,o),
(140,502,o),
(125,459,q),
(125,545,l),
(37,545,l),
(37,0,l),
(125,0,l)
);
}
);
width = 329;
},
{
layerId = m005;
shapes = (
{
closed = 1;
nodes = (
(82,356,ls),
(75,419,o),
(116,493,o),
(191,531,o),
(258,527,qs),
(255,527,o),
(258,527,o),
(262,526,q),
(262,549,l),
(258,549,o),
(255,549,o),
(258,550,qs),
(181,555,o),
(88,498,o),
(75,446,q),
(75,545,l),
(53,545,l),
(53,0,l),
(75,0,l)
);
}
);
width = 295;
},
{
layerId = m006;
shapes = (
{
closed = 1;
nodes = (
(376,155,ls),
(373,200,o),
(411,267,o),
(477,308,o),
(521,308,qs),
(543,308,o),
(601,296,o),
(622,283,q),
(622,542,l),
(605,547,o),
(569,553,o),
(554,553,qs),
(473,553,o),
(367,451,o),
(367,406,q),
(367,545,l),
(32,545,l),
(32,0,l),
(373,0,l)
);
}
);
width = 641;
}
);
note = uni0072;
unicode = 114;
},
{
glyphname = uni0073;
kernLeft = uni0063;
kernRight = uni006F;
lastChange = "2026-04-14 12:32:16 +0000";
layers = (
{
layerId = m01;
shapes = (
{
closed = 1;
nodes = (
(231,-11,o),
(190,-5,o),
(157,9,c),
(123,21,o),
(97,42,o),
(77,69,c),
(59,96,o),
(48,131,o),
(45,172,c),
(142,172,l),
(145,146,o),
(151,126,o),
(161,110,c),
(172,94,o),
(186,83,o),
(205,76,c),
(224,70,o),
(249,66,o),
(279,66,c),
(308,66,o),
(331,69,o),
(349,75,c),
(367,81,o),
(380,89,o),
(389,102,c),
(398,113,o),
(402,127,o),
(402,144,c),
(402,160,o),
(398,173,o),
(391,183,c),
(384,193,o),
(372,202,o),
(354,209,c),
(337,216,o),
(314,222,o),
(283,228,c),
(230,237,l),
(194,243,o),
(164,253,o),
(138,266,c),
(113,280,o),
(94,297,o),
(80,319,c),
(67,341,o),
(60,366,o),
(60,397,c),
(60,428,o),
(68,456,o),
(84,479,c),
(100,502,o),
(124,520,o),
(154,533,c),
(185,546,o),
(222,552,o),
(263,552,c),
(313,552,o),
(354,545,o),
(387,531,c),
(420,516,o),
(445,496,o),
(461,469,c),
(478,443,o),
(487,411,o),
(488,373,c),
(394,373,l),
(392,398,o),
(386,419,o),
(376,433,c),
(366,449,o),
(352,459,o),
(333,464,c),
(315,470,o),
(291,473,o),
(263,473,c),
(240,473,o),
(221,471,o),
(205,465,c),
(189,459,o),
(177,451,o),
(169,440,c),
(161,429,o),
(156,415,o),
(156,400,c),
(156,384,o),
(160,371,o),
(168,361,c),
(176,350,o),
(187,342,o),
(202,336,c),
(217,330,o),
(237,324,o),
(260,321,c),
(313,311,l),
(354,304,o),
(389,293,o),
(416,280,c),
(444,267,o),
(464,251,o),
(478,229,c),
(492,208,o),
(499,183,o),
(499,151,c),
(499,117,o),
(490,87,o),
(473,63,c),
(455,39,o),
(430,20,o),
(396,7,c),
(363,-5,o),
(324,-11,o),
(278,-11,c)
);
}
);
width = 534;
},
{
layerId = F2C6FA2E-D08A-4B94-92D2-D7CA5820546A;
shapes = (
{
closed = 1;
nodes = (
(237,-10,o),
(197,-2,o),
(166,12,c),
(135,27,o),
(111,48,o),
(95,74,c),
(80,100,o),
(71,129,o),
(69,163,c),
(93,163,l),
(95,132,o),
(103,105,o),
(117,83,c),
(131,60,o),
(152,42,o),
(180,29,c),
(208,17,o),
(242,11,o),
(284,11,c),
(320,11,o),
(351,15,o),
(378,24,c),
(404,32,o),
(425,46,o),
(440,65,c),
(456,85,o),
(463,108,o),
(463,138,c),
(463,161,o),
(458,180,o),
(449,196,c),
(439,211,o),
(423,225,o),
(402,235,c),
(380,245,o),
(353,253,o),
(318,259,c),
(254,268,l),
(217,275,o),
(185,284,o),
(161,295,c),
(136,307,o),
(118,322,o),
(104,341,c),
(91,361,o),
(85,385,o),
(85,413,c),
(85,442,o),
(92,467,o),
(107,487,c),
(123,507,o),
(144,523,o),
(172,534,c),
(201,545,o),
(235,551,o),
(274,551,c),
(320,551,o),
(358,544,o),
(387,532,c),
(415,518,o),
(437,501,o),
(450,478,c),
(464,456,o),
(472,430,o),
(475,401,c),
(451,401,l),
(449,427,o),
(441,450,o),
(429,469,c),
(417,488,o),
(398,503,o),
(373,513,c),
(347,524,o),
(314,529,o),
(273,529,c),
(239,529,o),
(210,525,o),
(185,516,c),
(161,507,o),
(142,494,o),
(129,477,c),
(116,459,o),
(109,438,o),
(109,413,c),
(109,389,o),
(115,368,o),
(126,352,c),
(138,335,o),
(155,323,o),
(177,313,c),
(200,304,o),
(229,295,o),
(265,290,c),
(328,279,l),
(365,273,o),
(394,265,o),
(418,253,c),
(442,241,o),
(459,225,o),
(471,207,c),
(482,188,o),
(488,165,o),
(488,140,c),
(488,104,o),
(479,76,o),
(461,54,c),
(443,32,o),
(419,16,o),
(388,5,c),
(358,-5,o),
(322,-10,o),
(283,-10,c)
);
}
);
width = 550;
},
{
layerId = F8E60EAC-58E2-4CB8-A8B6-FD6FE89414CC;
shapes = (
{
closed = 1;
nodes = (
(349,-10,o),
(277,-3,o),
(219,11,c),
(162,25,o),
(118,47,o),
(88,74,c),
(58,102,o),
(40,137,o),
(35,179,c),
(335,179,l),
(337,166,o),
(342,156,o),
(350,148,c),
(359,140,o),
(370,135,o),
(386,131,c),
(402,127,o),
(421,126,o),
(446,126,c),
(466,126,o),
(484,127,o),
(498,130,c),
(512,132,o),
(523,135,o),
(530,139,c),
(537,144,o),
(541,150,o),
(541,157,c),
(541,163,o),
(538,168,o),
(534,172,c),
(530,176,o),
(523,180,o),
(513,183,c),
(504,185,o),
(491,188,o),
(474,189,c),
(321,203,l),
(261,209,o),
(211,219,o),
(170,233,c),
(129,248,o),
(97,267,o),
(76,290,c),
(55,314,o),
(44,341,o),
(44,374,c),
(44,413,o),
(59,446,o),
(89,473,c),
(119,499,o),
(163,519,o),
(221,532,c),
(279,546,o),
(349,553,o),
(432,553,c),
(524,553,o),
(599,544,o),
(655,528,c),
(712,512,o),
(752,490,o),
(778,464,c),
(803,437,o),
(817,406,o),
(820,370,c),
(538,370,l),
(537,383,o),
(532,393,o),
(524,400,c),
(517,408,o),
(505,413,o),
(491,416,c),
(476,419,o),
(456,421,o),
(432,421,c),
(411,421,o),
(394,420,o),
(381,418,c),
(368,416,o),
(359,413,o),
(352,409,c),
(346,404,o),
(343,399,o),
(343,392,c),
(343,386,o),
(345,380,o),
(350,376,c),
(356,371,o),
(366,368,o),
(379,365,c),
(393,362,o),
(413,360,o),
(438,357,c),
(562,346,l),
(629,340,o),
(683,329,o),
(725,314,c),
(767,299,o),
(797,281,o),
(816,258,c),
(836,235,o),
(845,208,o),
(845,178,c),
(845,137,o),
(829,103,o),
(797,75,c),
(765,47,o),
(718,26,o),
(656,11,c),
(595,-3,o),
(521,-10,o),
(435,-10,c)
);
}
);
width = 865;
},
{
layerId = m004;
shapes = (
{
closed = 1;
nodes = (
(219,-11,o),
(179,-5,o),
(145,9,c),
(112,21,o),
(85,42,o),
(66,69,c),
(47,96,o),
(37,131,o),
(34,172,c),
(131,172,l),
(133,146,o),
(140,126,o),
(150,110,c),
(160,94,o),
(174,83,o),
(194,76,c),
(212,70,o),
(237,66,o),
(268,66,c),
(297,66,o),
(320,69,o),
(338,75,c),
(355,81,o),
(369,89,o),
(378,102,c),
(387,113,o),
(391,127,o),
(391,144,c),
(391,160,o),
(387,173,o),
(380,183,c),
(373,193,o),
(360,202,o),
(343,209,c),
(326,216,o),
(303,222,o),
(272,228,c),
(219,237,l),
(183,243,o),
(152,253,o),
(127,266,c),
(102,280,o),
(82,297,o),
(69,319,c),
(55,341,o),
(49,366,o),
(49,397,c),
(49,428,o),
(56,456,o),
(73,479,c),
(89,502,o),
(112,520,o),
(143,533,c),
(173,546,o),
(210,552,o),
(252,552,c),
(301,552,o),
(343,545,o),
(376,531,c),
(408,516,o),
(433,496,o),
(450,469,c),
(467,443,o),
(475,411,o),
(477,373,c),
(382,373,l),
(381,398,o),
(375,419,o),
(365,433,c),
(354,449,o),
(340,459,o),
(322,464,c),
(303,470,o),
(280,473,o),
(252,473,c),
(229,473,o),
(210,471,o),
(194,465,c),
(178,459,o),
(165,451,o),
(157,440,c),
(149,429,o),
(145,415,o),
(145,400,c),
(145,384,o),
(148,371,o),
(157,361,c),
(165,350,o),
(176,342,o),
(191,336,c),
(206,330,o),
(225,324,o),
(248,321,c),
(301,311,l),
(343,304,o),
(378,293,o),
(405,280,c),
(432,267,o),
(452,251,o),
(467,229,c),
(481,208,o),
(488,183,o),
(488,151,c),
(488,117,o),
(479,87,o),
(462,63,c),
(444,39,o),
(418,20,o),
(385,7,c),
(352,-5,o),
(313,-11,o),
(267,-11,c)
);
}
);
width = 510;
},
{
layerId = m005;
shapes = (
{
closed = 1;
nodes = (
(220,-10,o),
(180,-2,o),
(149,12,c),
(118,27,o),
(94,48,o),
(78,74,c),
(63,100,o),
(54,129,o),
(52,163,c),
(76,163,l),
(78,132,o),
(86,105,o),
(100,83,c),
(114,60,o),
(135,42,o),
(163,29,c),
(191,17,o),
(225,11,o),
(267,11,c),
(303,11,o),
(334,15,o),
(361,24,c),
(387,32,o),
(408,46,o),
(423,65,c),
(439,85,o),
(446,108,o),
(446,138,c),
(446,161,o),
(441,180,o),
(431,196,c),
(422,211,o),
(406,225,o),
(385,235,c),
(363,245,o),
(336,253,o),
(301,259,c),
(237,268,l),
(200,275,o),
(168,284,o),
(144,295,c),
(119,307,o),
(100,322,o),
(87,341,c),
(74,361,o),
(68,385,o),
(68,413,c),
(68,442,o),
(75,467,o),
(90,487,c),
(105,507,o),
(127,523,o),
(155,534,c),
(184,545,o),
(218,551,o),
(257,551,c),
(303,551,o),
(341,544,o),
(370,532,c),
(398,518,o),
(420,501,o),
(433,478,c),
(447,456,o),
(455,430,o),
(458,401,c),
(434,401,l),
(431,427,o),
(424,450,o),
(412,469,c),
(400,488,o),
(381,503,o),
(356,513,c),
(330,524,o),
(297,529,o),
(256,529,c),
(222,529,o),
(193,525,o),
(168,516,c),
(144,507,o),
(125,494,o),
(112,477,c),
(99,459,o),
(92,438,o),
(92,413,c),
(92,389,o),
(98,368,o),
(109,352,c),
(121,335,o),
(138,323,o),
(160,313,c),
(183,304,o),
(212,295,o),
(248,290,c),
(311,279,l),
(348,273,o),
(377,265,o),
(401,253,c),
(425,241,o),
(442,225,o),
(453,207,c),
(465,188,o),
(471,165,o),
(471,140,c),
(471,104,o),
(462,76,o),
(444,54,c),
(426,32,o),
(402,16,o),
(371,5,c),
(341,-5,o),
(305,-10,o),
(266,-10,c)
);
}
);
width = 515;
},
{
layerId = m006;
shapes = (
{
closed = 1;
nodes = (
(341,-10,o),
(268,-3,o),
(211,11,c),
(153,25,o),
(109,47,o),
(79,74,c),
(49,102,o),
(31,137,o),
(26,179,c),
(326,179,l),
(328,166,o),
(334,156,o),
(342,148,c),
(350,140,o),
(362,135,o),
(377,131,c),
(393,127,o),
(413,126,o),
(437,126,c),
(457,126,o),
(475,127,o),
(489,130,c),
(504,132,o),
(514,135,o),
(521,139,c),
(528,144,o),
(533,150,o),
(533,157,c),
(533,163,o),
(530,168,o),
(526,172,c),
(522,176,o),
(515,180,o),
(505,183,c),
(495,185,o),
(482,188,o),
(466,189,c),
(313,203,l),
(253,209,o),
(202,219,o),
(161,233,c),
(120,248,o),
(89,267,o),
(67,290,c),
(47,314,o),
(36,341,o),
(36,374,c),
(36,413,o),
(51,446,o),
(81,473,c),
(110,499,o),
(154,519,o),
(212,532,c),
(270,546,o),
(341,553,o),
(424,553,c),
(516,553,o),
(590,544,o),
(646,528,c),
(703,512,o),
(744,490,o),
(770,464,c),
(795,437,o),
(809,406,o),
(812,370,c),
(530,370,l),
(528,383,o),
(524,393,o),
(516,400,c),
(509,408,o),
(497,413,o),
(482,416,c),
(467,419,o),
(448,421,o),
(424,421,c),
(402,421,o),
(386,420,o),
(373,418,c),
(360,416,o),
(350,413,o),
(343,409,c),
(337,404,o),
(335,399,o),
(335,392,c),
(335,386,o),
(337,380,o),
(342,376,c),
(348,371,o),
(357,368,o),
(371,365,c),
(385,362,o),
(404,360,o),
(430,357,c),
(553,346,l),
(621,340,o),
(675,329,o),
(717,314,c),
(758,299,o),
(789,281,o),
(808,258,c),
(827,235,o),
(837,208,o),
(837,178,c),
(837,137,o),
(821,103,o),
(788,75,c),
(756,47,o),
(710,26,o),
(648,11,c),
(587,-3,o),
(513,-10,o),
(426,-10,c)
);
}
);
width = 847;
}
);
note = uni0073;
unicode = 115;
},
{
glyphname = uni0074;
kernLeft = uni006B;
kernRight = uni0074;
lastChange = "2026-04-09 08:54:05 +0000";
layers = (
{
layerId = m01;
shapes = (
{
closed = 1;
nodes = (
(321,0,l),
(321,79,l),
(263,79,ls),
(238,79,o),
(218,100,o),
(218,124,cs),
(218,473,l),
(332,473,l),
(332,545,l),
(218,545,l),
(218,727,l),
(127,685,l),
(127,545,l),
(36,545,l),
(36,473,l),
(127,473,l),
(127,136,ls),
(127,61,o),
(188,0,o),
(263,0,cs)
);
}
);
width = 358;
},
{
layerId = F2C6FA2E-D08A-4B94-92D2-D7CA5820546A;
shapes = (
{
closed = 1;
nodes = (
(295,0,l),
(295,22,l),
(257,22,ls),
(202,22,o),
(151,71,o),
(151,135,cs),
(151,527,l),
(296,527,l),
(296,545,l),
(151,545,l),
(151,727,l),
(128,714,l),
(128,545,l),
(48,545,l),
(48,527,l),
(128,527,l),
(128,133,ls),
(128,58,o),
(182,0,o),
(257,0,cs)
);
}
);
width = 333;
},
{
layerId = F8E60EAC-58E2-4CB8-A8B6-FD6FE89414CC;
shapes = (
{
closed = 1;
nodes = (
(593,0,l),
(593,143,l),
(497,143,ls),
(476,143,o),
(466,157,o),
(466,175,cs),
(466,402,l),
(596,402,l),
(596,545,l),
(466,545,l),
(466,727,l),
(125,607,l),
(125,545,l),
(29,545,l),
(29,402,l),
(125,402,l),
(125,149,ls),
(125,90,o),
(169,0,o),
(273,0,cs)
);
}
);
width = 611;
},
{
layerId = m004;
shapes = (
{
closed = 1;
nodes = (
(311,0,l),
(311,79,l),
(254,79,ls),
(228,79,o),
(208,100,o),
(208,124,cs),
(208,473,l),
(322,473,l),
(322,545,l),
(208,545,l),
(208,727,l),
(118,685,l),
(118,545,l),
(27,545,l),
(27,473,l),
(118,473,l),
(118,136,ls),
(118,61,o),
(179,0,o),
(254,0,cs)
);
}
);
width = 338;
},
{
layerId = m005;
shapes = (
{
closed = 1;
nodes = (
(283,0,l),
(283,22,l),
(245,22,ls),
(190,22,o),
(139,71,o),
(139,135,cs),
(139,527,l),
(284,527,l),
(284,545,l),
(139,545,l),
(139,727,l),
(116,714,l),
(116,545,l),
(36,545,l),
(36,527,l),
(116,527,l),
(116,133,ls),
(116,58,o),
(170,0,o),
(245,0,cs)
);
}
);
width = 308;
},
{
layerId = m006;
shapes = (
{
closed = 1;
nodes = (
(586,0,l),
(586,143,l),
(490,143,ls),
(468,143,o),
(458,157,o),
(458,175,cs),
(458,402,l),
(588,402,l),
(588,545,l),
(458,545,l),
(458,727,l),
(118,607,l),
(118,545,l),
(22,545,l),
(22,402,l),
(118,402,l),
(118,149,ls),
(118,90,o),
(162,0,o),
(266,0,cs)
);
}
);
width = 594;
}
);
note = uni0074;
unicode = 116;
},
{
glyphname = uni0075;
kernLeft = uni0075;
kernRight = uni0075;
lastChange = "2026-04-09 08:54:05 +0000";
layers = (
{
layerId = m01;
shapes = (
{
closed = 1;
nodes = (
(354,0,o),
(441,87,o),
(441,195,c),
(441,545,l),
(413,545,l),
(413,224,l),
(413,143,o),
(348,78,o),
(267,78,c),
(197,78,o),
(141,135,o),
(141,205,c),
(141,545,l),
(52,545,l),
(52,173,l),
(52,77,o),
(129,0,o),
(235,0,c)
);
},
{
closed = 1;
nodes = (
(502,545,l),
(413,545,l),
(413,0,l),
(502,0,l)
);
}
);
width = 551;
},
{
layerId = F2C6FA2E-D08A-4B94-92D2-D7CA5820546A;
shapes = (
{
closed = 1;
nodes = (
(385,1,o),
(476,95,o),
(476,203,c),
(476,547,l),
(453,547,l),
(453,181,l),
(453,96,o),
(370,23,o),
(269,23,c),
(179,23,o),
(102,98,o),
(102,185,c),
(102,547,l),
(79,547,l),
(79,181,l),
(79,78,o),
(163,1,o),
(270,1,c)
);
},
{
closed = 1;
nodes = (
(477,547,l),
(453,547,l),
(453,0,l),
(477,0,l)
);
}
);
width = 555;
},
{
layerId = F8E60EAC-58E2-4CB8-A8B6-FD6FE89414CC;
shapes = (
{
closed = 1;
nodes = (
(457,-11,o),
(564,63,o),
(564,188,c),
(564,545,l),
(536,545,l),
(536,246,l),
(536,184,o),
(517,142,o),
(457,142,c),
(397,142,o),
(382,193,o),
(382,250,c),
(382,545,l),
(40,545,l),
(40,193,l),
(40,80,o),
(130,-11,o),
(301,-11,c)
);
},
{
closed = 1;
nodes = (
(877,545,l),
(536,545,l),
(536,0,l),
(877,0,l)
);
}
);
width = 909;
},
{
layerId = m004;
shapes = (
{
closed = 1;
nodes = (
(339,0,o),
(426,87,o),
(426,195,c),
(426,545,l),
(398,545,l),
(398,224,l),
(398,143,o),
(333,78,o),
(252,78,c),
(183,78,o),
(126,135,o),
(126,205,c),
(126,545,l),
(37,545,l),
(37,173,l),
(37,77,o),
(114,0,o),
(221,0,c)
);
},
{
closed = 1;
nodes = (
(488,545,l),
(398,545,l),
(398,0,l),
(488,0,l)
);
}
);
width = 520;
},
{
layerId = m005;
shapes = (
{
closed = 1;
nodes = (
(363,1,o),
(454,95,o),
(454,203,c),
(454,547,l),
(431,547,l),
(431,181,l),
(431,96,o),
(348,23,o),
(247,23,c),
(157,23,o),
(80,98,o),
(80,185,c),
(80,547,l),
(57,547,l),
(57,181,l),
(57,78,o),
(141,1,o),
(248,1,c)
);
},
{
closed = 1;
nodes = (
(455,547,l),
(431,547,l),
(431,0,l),
(455,0,l)
);
}
);
width = 511;
},
{
layerId = m006;
shapes = (
{
closed = 1;
nodes = (
(449,-11,o),
(556,63,o),
(556,188,c),
(556,545,l),
(528,545,l),
(528,246,l),
(528,184,o),
(509,142,o),
(449,142,c),
(388,142,o),
(374,193,o),
(374,250,c),
(374,545,l),
(32,545,l),
(32,193,l),
(32,80,o),
(121,-11,o),
(293,-11,c)
);
},
{
closed = 1;
nodes = (
(869,545,l),
(528,545,l),
(528,0,l),
(869,0,l)
);
}
);
width = 888;
}
);
note = uni0075;
unicode = 117;
leftMetricsKey = "=uni006E";
},
{
glyphname = uni0076;
kernLeft = uni0076;
kernRight = uni0076;
lastChange = "2026-04-14 15:41:44 +0000";
layers = (
{
layerId = m01;
shapes = (
{
closed = 1;
nodes = (
(468,545,l),
(257,0,l),
(354,0,l),
(564,545,l)
);
},
{
closed = 1;
nodes = (
(41,545,l),
(252,0,l),
(348,0,l),
(138,545,l)
);
}
);
width = 593;
},
{
layerId = F2C6FA2E-D08A-4B94-92D2-D7CA5820546A;
shapes = (
{
closed = 1;
nodes = (
(504,545,l),
(294,0,l),
(318,0,l),
(528,545,l)
);
},
{
closed = 1;
nodes = (
(68,545,l),
(278,0,l),
(302,0,l),
(92,545,l)
);
}
);
width = 589;
},
{
layerId = F8E60EAC-58E2-4CB8-A8B6-FD6FE89414CC;
shapes = (
{
closed = 1;
nodes = (
(617,545,l),
(397,0,l),
(738,0,l),
(958,545,l)
);
},
{
closed = 1;
nodes = (
(34,545,l),
(254,0,l),
(595,0,l),
(374,545,l)
);
}
);
width = 974;
},
{
layerId = m004;
shapes = (
{
closed = 1;
nodes = (
(460,545,l),
(250,0,l),
(346,0,l),
(557,545,l)
);
},
{
closed = 1;
nodes = (
(34,545,l),
(244,0,l),
(341,0,l),
(130,545,l)
);
}
);
width = 577;
},
{
layerId = m005;
shapes = (
{
closed = 1;
nodes = (
(488,545,l),
(278,0,l),
(302,0,l),
(512,545,l)
);
},
{
closed = 1;
nodes = (
(52,545,l),
(262,0,l),
(287,0,l),
(76,545,l)
);
}
);
width = 556;
},
{
layerId = m006;
shapes = (
{
closed = 1;
nodes = (
(613,545,l),
(392,0,l),
(733,0,l),
(953,545,l)
);
},
{
closed = 1;
nodes = (
(29,545,l),
(250,0,l),
(591,0,l),
(370,545,l)
);
}
);
width = 966;
}
);
note = uni0076;
unicode = 118;
},
{
glyphname = uni0077;
kernLeft = uni0076;
kernRight = uni0076;
lastChange = "2026-04-14 12:52:43 +0000";
layers = (
{
layerId = m01;
shapes = (
{
closed = 1;
nodes = (
(45,545,l),
(227,0,l),
(319,0,l),
(137,545,l)
);
},
{
closed = 1;
nodes = (
(786,545,l),
(604,0,l),
(696,0,l),
(878,545,l)
);
},
{
closed = 1;
nodes = (
(416,545,l),
(597,0,l),
(690,0,l),
(509,545,l)
);
},
{
closed = 1;
nodes = (
(414,545,l),
(232,0,l),
(325,0,l),
(507,545,l)
);
}
);
width = 911;
},
{
layerId = F2C6FA2E-D08A-4B94-92D2-D7CA5820546A;
shapes = (
{
closed = 1;
nodes = (
(68,545,l),
(250,0,l),
(273,0,l),
(92,545,l)
);
},
{
closed = 1;
nodes = (
(817,545,l),
(635,0,l),
(659,0,l),
(841,545,l)
);
},
{
closed = 1;
nodes = (
(443,545,l),
(619,0,l),
(643,0,l),
(467,545,l)
);
},
{
closed = 1;
nodes = (
(442,545,l),
(266,0,l),
(289,0,l),
(466,545,l)
);
}
);
width = 902;
},
{
layerId = F8E60EAC-58E2-4CB8-A8B6-FD6FE89414CC;
shapes = (
{
closed = 1;
nodes = (
(36,545,l),
(218,0,l),
(559,0,l),
(377,545,l)
);
},
{
closed = 1;
nodes = (
(993,545,l),
(811,0,l),
(1152,0,l),
(1334,545,l)
);
},
{
closed = 1;
nodes = (
(572,545,l),
(753,0,l),
(979,0,l),
(799,545,l)
);
},
{
closed = 1;
nodes = (
(571,545,l),
(389,0,l),
(617,0,l),
(799,545,l)
);
}
);
width = 1352;
},
{
layerId = m004;
shapes = (
{
closed = 1;
nodes = (
(36,545,l),
(218,0,l),
(311,0,l),
(129,545,l)
);
},
{
closed = 1;
nodes = (
(777,545,l),
(595,0,l),
(688,0,l),
(870,545,l)
);
},
{
closed = 1;
nodes = (
(408,545,l),
(588,0,l),
(681,0,l),
(501,545,l)
);
},
{
closed = 1;
nodes = (
(406,545,l),
(223,0,l),
(316,0,l),
(498,545,l)
);
}
);
width = 892;
},
{
layerId = m005;
shapes = (
{
closed = 1;
nodes = (
(52,545,l),
(234,0,l),
(258,0,l),
(76,545,l)
);
},
{
closed = 1;
nodes = (
(801,545,l),
(619,0,l),
(643,0,l),
(825,545,l)
);
},
{
closed = 1;
nodes = (
(427,545,l),
(603,0,l),
(627,0,l),
(451,545,l)
);
},
{
closed = 1;
nodes = (
(426,545,l),
(250,0,l),
(274,0,l),
(450,545,l)
);
}
);
width = 869;
},
{
layerId = m006;
shapes = (
{
closed = 1;
nodes = (
(31,545,l),
(213,0,l),
(554,0,l),
(372,545,l)
);
},
{
closed = 1;
nodes = (
(988,545,l),
(806,0,l),
(1147,0,l),
(1329,545,l)
);
},
{
closed = 1;
nodes = (
(567,545,l),
(748,0,l),
(974,0,l),
(794,545,l)
);
},
{
closed = 1;
nodes = (
(566,545,l),
(384,0,l),
(612,0,l),
(794,545,l)
);
}
);
width = 1341;
}
);
note = uni0077;
unicode = 119;
},
{
glyphname = uni0078;
kernLeft = uni0078;
kernRight = uni0078;
lastChange = "2026-04-10 15:28:53 +0000";
layers = (
{
layerId = m01;
shapes = (
{
closed = 1;
nodes = (
(45,545,l),
(439,0,l),
(548,0,l),
(155,545,l)
);
},
{
closed = 1;
nodes = (
(438,545,l),
(44,0,l),
(153,0,l),
(547,545,l)
);
}
);
width = 577;
},
{
layerId = F2C6FA2E-D08A-4B94-92D2-D7CA5820546A;
shapes = (
{
closed = 1;
nodes = (
(69,545,l),
(455,0,l),
(485,0,l),
(99,545,l)
);
},
{
closed = 1;
nodes = (
(455,545,l),
(69,0,l),
(99,0,l),
(485,545,l)
);
}
);
width = 547;
},
{
layerId = F8E60EAC-58E2-4CB8-A8B6-FD6FE89414CC;
shapes = (
{
closed = 1;
nodes = (
(32,545,l),
(580,0,l),
(921,0,l),
(373,545,l)
);
},
{
closed = 1;
nodes = (
(578,545,l),
(30,0,l),
(371,0,l),
(920,545,l)
);
}
);
width = 933;
},
{
layerId = m004;
shapes = (
{
closed = 1;
nodes = (
(35,545,l),
(428,0,l),
(537,0,l),
(144,545,l)
);
},
{
closed = 1;
nodes = (
(427,545,l),
(33,0,l),
(142,0,l),
(536,545,l)
);
}
);
width = 555;
},
{
layerId = m005;
shapes = (
{
closed = 1;
nodes = (
(52,545,l),
(438,0,l),
(468,0,l),
(82,545,l)
);
},
{
closed = 1;
nodes = (
(438,545,l),
(52,0,l),
(82,0,l),
(468,545,l)
);
}
);
width = 512;
},
{
layerId = m006;
shapes = (
{
closed = 1;
nodes = (
(32,545,l),
(580,0,l),
(921,0,l),
(373,545,l)
);
},
{
closed = 1;
nodes = (
(578,545,l),
(30,0,l),
(371,0,l),
(920,545,l)
);
}
);
width = 932;
}
);
note = uni0078;
unicode = 120;
},
{
glyphname = uni0079;
kernLeft = uni0076;
kernRight = uni0076;
lastChange = "2026-04-10 15:30:08 +0000";
layers = (
{
layerId = m01;
shapes = (
{
closed = 1;
nodes = (
(461,545,l),
(169,-138,l),
(265,-138,l),
(557,545,l)
);
},
{
closed = 1;
nodes = (
(41,545,l),
(257,32,l),
(308,136,l),
(137,545,l)
);
}
);
width = 586;
},
{
layerId = F2C6FA2E-D08A-4B94-92D2-D7CA5820546A;
shapes = (
{
closed = 1;
nodes = (
(476,545,l),
(184,-138,l),
(211,-138,l),
(502,545,l)
);
},
{
closed = 1;
nodes = (
(68,545,l),
(275,42,l),
(290,68,l),
(94,545,l)
);
}
);
width = 564;
},
{
layerId = F8E60EAC-58E2-4CB8-A8B6-FD6FE89414CC;
shapes = (
{
closed = 1;
nodes = (
(566,546,l),
(269,-138,l),
(585,-138,l),
(882,546,l)
);
},
{
closed = 1;
nodes = (
(34,546,l),
(394,-83,l),
(548,162,l),
(349,546,l)
);
}
);
width = 898;
},
{
layerId = m004;
shapes = (
{
closed = 1;
nodes = (
(454,545,l),
(162,-138,l),
(257,-138,l),
(549,545,l)
);
},
{
closed = 1;
nodes = (
(34,545,l),
(249,32,l),
(300,136,l),
(130,545,l)
);
}
);
width = 569;
},
{
layerId = m005;
shapes = (
{
closed = 1;
nodes = (
(461,545,l),
(169,-138,l),
(195,-138,l),
(487,545,l)
);
},
{
closed = 1;
nodes = (
(52,545,l),
(259,42,l),
(275,68,l),
(78,545,l)
);
}
);
width = 531;
},
{
layerId = m006;
shapes = (
{
closed = 1;
nodes = (
(562,546,l),
(264,-138,l),
(580,-138,l),
(877,546,l)
);
},
{
closed = 1;
nodes = (
(29,546,l),
(390,-83,l),
(544,162,l),
(345,546,l)
);
}
);
width = 890;
}
);
note = uni0079;
unicode = 121;
},
{
glyphname = uni007A;
lastChange = "2026-04-09 08:54:05 +0000";
layers = (
{
layerId = m01;
shapes = (
{
closed = 1;
nodes = (
(55,466,l),
(464,466,l),
(464,545,l),
(55,545,l)
);
},
{
closed = 1;
nodes = (
(49,0,l),
(469,0,l),
(469,80,l),
(49,80,l)
);
},
{
closed = 1;
nodes = (
(356,466,l),
(49,80,l),
(157,80,l),
(464,466,l)
);
}
);
width = 504;
},
{
layerId = F2C6FA2E-D08A-4B94-92D2-D7CA5820546A;
shapes = (
{
closed = 1;
nodes = (
(79,522,l),
(466,522,l),
(466,545,l),
(79,545,l)
);
},
{
closed = 1;
nodes = (
(74,0,l),
(471,0,l),
(471,23,l),
(74,23,l)
);
},
{
closed = 1;
nodes = (
(439,522,l),
(74,23,l),
(99,23,l),
(466,522,l)
);
}
);
width = 533;
},
{
layerId = F8E60EAC-58E2-4CB8-A8B6-FD6FE89414CC;
shapes = (
{
closed = 1;
nodes = (
(48,347,l),
(673,347,l),
(673,545,l),
(48,545,l)
);
},
{
closed = 1;
nodes = (
(48,0,l),
(673,0,l),
(673,199,l),
(48,199,l)
);
},
{
closed = 1;
nodes = (
(323,347,l),
(48,199,l),
(397,199,l),
(673,347,l)
);
}
);
width = 707;
},
{
layerId = m004;
shapes = (
{
closed = 1;
nodes = (
(42,466,l),
(451,466,l),
(451,545,l),
(42,545,l)
);
},
{
closed = 1;
nodes = (
(37,0,l),
(457,0,l),
(457,80,l),
(37,80,l)
);
},
{
closed = 1;
nodes = (
(343,466,l),
(37,80,l),
(145,80,l),
(451,466,l)
);
}
);
width = 478;
},
{
layerId = m005;
shapes = (
{
closed = 1;
nodes = (
(60,522,l),
(447,522,l),
(447,545,l),
(60,545,l)
);
},
{
closed = 1;
nodes = (
(55,0,l),
(452,0,l),
(452,23,l),
(55,23,l)
);
},
{
closed = 1;
nodes = (
(420,522,l),
(55,23,l),
(81,23,l),
(447,522,l)
);
}
);
width = 495;
},
{
layerId = m006;
shapes = (
{
closed = 1;
nodes = (
(36,347,l),
(660,347,l),
(660,545,l),
(36,545,l)
);
},
{
closed = 1;
nodes = (
(36,0,l),
(660,0,l),
(660,199,l),
(36,199,l)
);
},
{
closed = 1;
nodes = (
(311,347,l),
(36,199,l),
(385,199,l),
(660,347,l)
);
}
);
width = 684;
}
);
note = uni007A;
unicode = 122;
},
{
glyphname = uni0024;
lastChange = "2026-04-09 08:54:05 +0000";
layers = (
{
layerId = m01;
shapes = (
{
closed = 1;
nodes = (
(393,-8,o),
(442,0,o),
(482,17,c),
(522,34,o),
(553,58,o),
(574,90,c),
(595,122,o),
(605,159,o),
(605,201,c),
(605,237,o),
(598,268,o),
(584,294,c),
(569,321,o),
(545,343,o),
(512,361,c),
(480,380,o),
(437,394,o),
(383,405,c),
(309,420,l),
(269,428,o),
(238,438,o),
(215,449,c),
(193,461,o),
(178,474,o),
(169,489,c),
(159,504,o),
(155,524,o),
(155,547,c),
(155,570,o),
(161,589,o),
(172,606,c),
(184,622,o),
(201,635,o),
(225,644,c),
(249,654,o),
(278,659,o),
(314,659,c),
(358,659,o),
(393,653,o),
(419,642,c),
(446,631,o),
(465,615,o),
(478,595,c),
(491,575,o),
(498,550,o),
(500,520,c),
(586,520,l),
(585,561,o),
(575,598,o),
(556,631,c),
(537,664,o),
(507,689,o),
(467,708,c),
(427,727,o),
(376,736,o),
(314,736,c),
(263,736,o),
(219,728,o),
(182,713,c),
(145,697,o),
(116,675,o),
(96,646,c),
(77,618,o),
(66,585,o),
(66,547,c),
(66,508,o),
(75,474,o),
(92,446,c),
(109,419,o),
(134,397,o),
(164,380,c),
(195,363,o),
(232,351,o),
(276,342,c),
(350,327,l),
(393,319,o),
(426,309,o),
(451,298,c),
(475,286,o),
(492,272,o),
(502,257,c),
(512,242,o),
(517,223,o),
(517,200,c),
(517,172,o),
(510,149,o),
(497,130,c),
(484,110,o),
(464,96,o),
(438,85,c),
(411,75,o),
(377,69,o),
(337,69,c),
(294,69,o),
(259,75,o),
(228,86,c),
(199,97,o),
(176,114,o),
(159,137,c),
(143,161,o),
(134,192,o),
(132,232,c),
(44,232,l),
(46,178,o),
(58,133,o),
(82,97,c),
(106,61,o),
(140,34,o),
(183,17,c),
(227,0,o),
(278,-8,o),
(337,-8,c)
);
},
{
closed = 1;
nodes = (
(364,-91,l),
(364,818,l),
(286,818,l),
(286,-91,l)
);
}
);
width = 639;
},
{
layerId = F2C6FA2E-D08A-4B94-92D2-D7CA5820546A;
shapes = (
{
closed = 1;
nodes = (
(400,-10,o),
(447,-1,o),
(486,15,c),
(523,32,o),
(552,55,o),
(570,84,c),
(589,114,o),
(598,147,o),
(598,186,c),
(598,220,o),
(592,249,o),
(580,273,c),
(566,298,o),
(544,318,o),
(513,335,c),
(482,353,o),
(439,367,o),
(385,377,c),
(304,392,l),
(259,401,o),
(222,412,o),
(193,427,c),
(166,441,o),
(146,459,o),
(134,480,c),
(122,502,o),
(116,528,o),
(116,559,c),
(116,589,o),
(123,616,o),
(139,640,c),
(155,663,o),
(178,682,o),
(210,695,c),
(243,708,o),
(282,715,o),
(328,715,c),
(377,715,o),
(418,708,o),
(450,694,c),
(484,681,o),
(509,661,o),
(526,636,c),
(542,610,o),
(552,580,o),
(554,545,c),
(578,545,l),
(576,582,o),
(566,616,o),
(548,644,c),
(531,673,o),
(503,695,o),
(466,712,c),
(429,728,o),
(383,737,o),
(328,737,c),
(277,737,o),
(234,729,o),
(198,714,c),
(162,699,o),
(136,678,o),
(118,651,c),
(100,625,o),
(91,593,o),
(91,559,c),
(91,525,o),
(98,495,o),
(112,470,c),
(126,445,o),
(147,425,o),
(177,409,c),
(207,392,o),
(246,379,o),
(294,371,c),
(376,355,l),
(426,346,o),
(467,333,o),
(495,318,c),
(524,303,o),
(544,284,o),
(556,263,c),
(568,241,o),
(574,216,o),
(574,186,c),
(574,152,o),
(566,122,o),
(549,96,c),
(532,69,o),
(507,49,o),
(473,34,c),
(438,19,o),
(396,12,o),
(345,12,c),
(290,12,o),
(245,19,o),
(209,33,c),
(172,46,o),
(145,67,o),
(126,94,c),
(106,123,o),
(95,158,o),
(91,200,c),
(67,200,l),
(71,153,o),
(83,114,o),
(104,83,c),
(124,52,o),
(155,29,o),
(195,13,c),
(235,-2,o),
(285,-10,o),
(346,-10,c)
);
},
{
closed = 1;
nodes = (
(350,-91,l),
(350,818,l),
(327,818,l),
(327,-91,l)
);
}
);
width = 659;
},
{
layerId = F8E60EAC-58E2-4CB8-A8B6-FD6FE89414CC;
shapes = (
{
closed = 1;
nodes = (
(626,-8,o),
(714,2,o),
(787,22,c),
(860,43,o),
(914,72,o),
(951,110,c),
(988,147,o),
(1007,192,o),
(1007,244,c),
(1007,286,o),
(993,322,o),
(965,351,c),
(938,381,o),
(896,404,o),
(839,423,c),
(783,441,o),
(710,455,o),
(622,463,c),
(504,474,l),
(478,477,o),
(457,479,o),
(441,483,c),
(424,488,o),
(398,493,o),
(390,499,c),
(383,506,o),
(379,513,o),
(379,523,c),
(379,532,o),
(384,541,o),
(392,548,c),
(400,554,o),
(429,559,o),
(448,563,c),
(467,567,o),
(491,569,o),
(521,569,c),
(554,569,o),
(580,566,o),
(600,561,c),
(621,555,o),
(636,548,o),
(645,538,c),
(656,528,o),
(662,516,o),
(664,501,c),
(976,501,l),
(970,555,o),
(947,599,o),
(909,634,c),
(871,668,o),
(819,694,o),
(751,711,c),
(684,727,o),
(603,735,o),
(510,735,c),
(395,735,o),
(305,724,o),
(238,702,c),
(171,680,o),
(124,652,o),
(98,617,c),
(71,583,o),
(57,545,o),
(57,502,c),
(57,459,o),
(71,421,o),
(99,390,c),
(127,359,o),
(165,334,o),
(214,316,c),
(263,297,o),
(321,286,o),
(387,279,c),
(515,267,l),
(554,264,o),
(584,259,o),
(605,254,c),
(627,249,o),
(643,243,o),
(652,236,c),
(662,229,o),
(667,220,o),
(667,210,c),
(667,198,o),
(661,189,o),
(651,182,c),
(642,175,o),
(627,169,o),
(607,165,c),
(586,162,o),
(560,161,o),
(528,161,c),
(494,161,o),
(465,163,o),
(442,167,c),
(420,172,o),
(402,181,o),
(388,192,c),
(375,204,o),
(367,221,o),
(364,243,c),
(32,243,l),
(36,192,o),
(56,147,o),
(93,110,c),
(129,72,o),
(183,44,o),
(255,23,c),
(326,2,o),
(415,-8,o),
(521,-8,c)
);
},
{
closed = 1;
nodes = (
(631,-91,l),
(631,818,l),
(408,818,l),
(408,-91,l)
);
}
);
width = 1024;
},
{
layerId = m004;
shapes = (
{
closed = 1;
nodes = (
(382,-8,o),
(431,0,o),
(471,17,c),
(511,34,o),
(542,58,o),
(563,90,c),
(584,122,o),
(594,159,o),
(594,201,c),
(594,237,o),
(587,268,o),
(573,294,c),
(558,321,o),
(534,343,o),
(501,361,c),
(469,380,o),
(426,394,o),
(372,405,c),
(298,420,l),
(258,428,o),
(227,438,o),
(204,449,c),
(182,461,o),
(167,474,o),
(158,489,c),
(148,504,o),
(144,524,o),
(144,547,c),
(144,570,o),
(150,589,o),
(161,606,c),
(173,622,o),
(190,635,o),
(214,644,c),
(238,654,o),
(267,659,o),
(303,659,c),
(347,659,o),
(382,653,o),
(408,642,c),
(435,631,o),
(454,615,o),
(467,595,c),
(480,575,o),
(487,550,o),
(489,520,c),
(575,520,l),
(574,561,o),
(564,598,o),
(545,631,c),
(526,664,o),
(496,689,o),
(456,708,c),
(416,727,o),
(365,736,o),
(303,736,c),
(252,736,o),
(208,728,o),
(171,713,c),
(134,697,o),
(105,675,o),
(85,646,c),
(66,618,o),
(55,585,o),
(55,547,c),
(55,508,o),
(64,474,o),
(81,446,c),
(98,419,o),
(123,397,o),
(153,380,c),
(184,363,o),
(221,351,o),
(265,342,c),
(339,327,l),
(382,319,o),
(415,309,o),
(440,298,c),
(464,286,o),
(481,272,o),
(491,257,c),
(501,242,o),
(506,223,o),
(506,200,c),
(506,172,o),
(499,149,o),
(486,130,c),
(473,110,o),
(453,96,o),
(426,85,c),
(400,75,o),
(366,69,o),
(326,69,c),
(283,69,o),
(248,75,o),
(217,86,c),
(188,97,o),
(165,114,o),
(148,137,c),
(132,161,o),
(123,192,o),
(121,232,c),
(33,232,l),
(35,178,o),
(47,133,o),
(71,97,c),
(95,61,o),
(129,34,o),
(172,17,c),
(216,0,o),
(267,-8,o),
(326,-8,c)
);
},
{
closed = 1;
nodes = (
(353,-91,l),
(353,818,l),
(275,818,l),
(275,-91,l)
);
}
);
width = 616;
},
{
layerId = m005;
shapes = (
{
closed = 1;
nodes = (
(384,-10,o),
(430,-1,o),
(469,15,c),
(506,32,o),
(535,55,o),
(554,84,c),
(572,114,o),
(582,147,o),
(582,186,c),
(582,220,o),
(575,249,o),
(563,273,c),
(550,298,o),
(528,318,o),
(497,335,c),
(466,353,o),
(422,367,o),
(368,377,c),
(288,392,l),
(242,401,o),
(205,412,o),
(176,427,c),
(149,441,o),
(129,459,o),
(117,480,c),
(105,502,o),
(99,528,o),
(99,559,c),
(99,589,o),
(107,616,o),
(122,640,c),
(138,663,o),
(162,682,o),
(194,695,c),
(226,708,o),
(265,715,o),
(311,715,c),
(360,715,o),
(401,708,o),
(434,694,c),
(467,681,o),
(492,661,o),
(509,636,c),
(526,610,o),
(535,580,o),
(537,545,c),
(561,545,l),
(559,582,o),
(549,616,o),
(532,644,c),
(514,673,o),
(487,695,o),
(450,712,c),
(412,728,o),
(366,737,o),
(311,737,c),
(260,737,o),
(217,729,o),
(181,714,c),
(146,699,o),
(119,678,o),
(101,651,c),
(83,625,o),
(74,593,o),
(74,559,c),
(74,525,o),
(81,495,o),
(95,470,c),
(109,445,o),
(130,425,o),
(160,409,c),
(190,392,o),
(229,379,o),
(277,371,c),
(360,355,l),
(410,346,o),
(450,333,o),
(479,318,c),
(507,303,o),
(528,284,o),
(539,263,c),
(551,241,o),
(558,216,o),
(558,186,c),
(558,152,o),
(549,122,o),
(532,96,c),
(516,69,o),
(491,49,o),
(456,34,c),
(422,19,o),
(379,12,o),
(328,12,c),
(273,12,o),
(228,19,o),
(192,33,c),
(156,46,o),
(128,67,o),
(109,94,c),
(89,123,o),
(78,158,o),
(75,200,c),
(50,200,l),
(54,153,o),
(66,114,o),
(87,83,c),
(108,52,o),
(138,29,o),
(178,13,c),
(218,-2,o),
(268,-10,o),
(329,-10,c)
);
},
{
closed = 1;
nodes = (
(333,-91,l),
(333,818,l),
(310,818,l),
(310,-91,l)
);
}
);
width = 625;
},
{
layerId = m006;
shapes = (
{
closed = 1;
nodes = (
(618,-8,o),
(706,2,o),
(779,22,c),
(852,43,o),
(906,72,o),
(943,110,c),
(979,147,o),
(999,192,o),
(999,244,c),
(999,286,o),
(985,322,o),
(957,351,c),
(930,381,o),
(888,404,o),
(831,423,c),
(775,441,o),
(702,455,o),
(614,463,c),
(496,474,l),
(470,477,o),
(449,479,o),
(433,483,c),
(416,488,o),
(390,493,o),
(382,499,c),
(375,506,o),
(371,513,o),
(371,523,c),
(371,532,o),
(376,541,o),
(384,548,c),
(392,554,o),
(420,559,o),
(440,563,c),
(459,567,o),
(483,569,o),
(513,569,c),
(546,569,o),
(572,566,o),
(592,561,c),
(613,555,o),
(628,548,o),
(637,538,c),
(648,528,o),
(653,516,o),
(656,501,c),
(968,501,l),
(962,555,o),
(939,599,o),
(901,634,c),
(863,668,o),
(810,694,o),
(743,711,c),
(676,727,o),
(595,735,o),
(501,735,c),
(387,735,o),
(297,724,o),
(229,702,c),
(163,680,o),
(115,652,o),
(90,617,c),
(63,583,o),
(49,545,o),
(49,502,c),
(49,459,o),
(63,421,o),
(91,390,c),
(119,359,o),
(157,334,o),
(206,316,c),
(255,297,o),
(313,286,o),
(379,279,c),
(507,267,l),
(545,264,o),
(576,259,o),
(597,254,c),
(619,249,o),
(635,243,o),
(643,236,c),
(653,229,o),
(658,220,o),
(658,210,c),
(658,198,o),
(653,189,o),
(643,182,c),
(634,175,o),
(619,169,o),
(599,165,c),
(578,162,o),
(551,161,o),
(520,161,c),
(485,161,o),
(457,163,o),
(434,167,c),
(412,172,o),
(393,181,o),
(380,192,c),
(367,204,o),
(359,221,o),
(356,243,c),
(24,243,l),
(28,192,o),
(48,147,o),
(85,110,c),
(121,72,o),
(175,44,o),
(246,23,c),
(318,2,o),
(407,-8,o),
(513,-8,c)
);
},
{
closed = 1;
nodes = (
(623,-91,l),
(623,818,l),
(400,818,l),
(400,-91,l)
);
}
);
width = 1007;
}
);
note = uni0024;
unicode = 36;
},
{
glyphname = uni20AA;
lastChange = "2026-04-09 08:44:35 +0000";
layers = (
{
layerId = m01;
shapes = (
{
closed = 1;
nodes = (
(183,0,l),
(183,467,l),
(371,467,ls),
(415,467,o),
(456,421,o),
(456,372,qs),
(456,176,l),
(544,176,l),
(544,372,ls),
(544,460,o),
(458,545,o),
(371,545,qs),
(95,545,l),
(95,0,l)
);
},
{
closed = 1;
nodes = (
(638,0,o),
(724,86,o),
(724,173,qs),
(724,540,l),
(636,540,l),
(636,173,ls),
(636,124,o),
(596,78,o),
(551,78,qs),
(364,78,l),
(364,369,l),
(276,369,l),
(276,0,l),
(551,0,ls)
);
}
);
width = 820;
},
{
layerId = F2C6FA2E-D08A-4B94-92D2-D7CA5820546A;
shapes = (
{
closed = 1;
nodes = (
(151,0,l),
(151,523,l),
(303,523,ls),
(367,523,o),
(425,456,o),
(425,388,qs),
(425,170,l),
(447,170,l),
(447,381,ls),
(447,470,o),
(372,545,o),
(297,545,qs),
(128,545,l),
(128,0,l)
);
},
{
closed = 1;
nodes = (
(520,0,o),
(595,76,o),
(595,165,qs),
(595,541,l),
(572,541,l),
(572,158,ls),
(572,90,o),
(515,23,o),
(450,23,qs),
(298,23,l),
(298,375,l),
(276,375,l),
(276,0,l),
(445,0,ls)
);
}
);
width = 724;
},
{
layerId = F8E60EAC-58E2-4CB8-A8B6-FD6FE89414CC;
shapes = (
{
closed = 1;
nodes = (
(256,0,l),
(256,399,l),
(489,399,ls),
(521,399,o),
(540,379,o),
(540,358,qs),
(540,186,l),
(728,186,l),
(728,358,ls),
(728,442,o),
(629,545,o),
(521,545,qs),
(69,545,l),
(69,0,l)
);
},
{
closed = 1;
nodes = (
(865,0,o),
(963,103,o),
(964,188,qs),
(964,538,l),
(776,538,l),
(776,188,ls),
(776,162,o),
(751,146,o),
(725,146,qs),
(492,146,l),
(492,359,l),
(305,359,l),
(305,0,l),
(756,0,ls)
);
}
);
width = 1033;
},
{
layerId = m004;
shapes = (
{
closed = 1;
nodes = (
(159,0,l),
(159,467,l),
(347,467,ls),
(392,467,o),
(432,421,o),
(432,372,qs),
(432,176,l),
(520,176,l),
(520,372,ls),
(520,460,o),
(434,545,o),
(347,545,qs),
(71,545,l),
(71,0,l)
);
},
{
closed = 1;
nodes = (
(615,0,o),
(701,86,o),
(701,173,qs),
(701,540,l),
(613,540,l),
(613,173,ls),
(613,124,o),
(572,78,o),
(527,78,qs),
(340,78,l),
(340,369,l),
(252,369,l),
(252,0,l),
(527,0,ls)
);
}
);
width = 772;
},
{
layerId = m005;
shapes = (
{
closed = 1;
nodes = (
(119,0,l),
(119,523,l),
(271,523,ls),
(335,523,o),
(393,456,o),
(393,388,qs),
(393,170,l),
(415,170,l),
(415,381,ls),
(415,470,o),
(340,545,o),
(265,545,qs),
(96,545,l),
(96,0,l)
);
},
{
closed = 1;
nodes = (
(488,0,o),
(563,76,o),
(563,165,qs),
(563,541,l),
(540,541,l),
(540,158,ls),
(540,90,o),
(483,23,o),
(418,23,qs),
(266,23,l),
(266,375,l),
(244,375,l),
(244,0,l),
(413,0,ls)
);
}
);
width = 660;
},
{
layerId = m006;
shapes = (
{
closed = 1;
nodes = (
(239,0,l),
(239,399,l),
(472,399,ls),
(504,399,o),
(523,379,o),
(523,358,qs),
(523,186,l),
(711,186,l),
(711,358,ls),
(711,442,o),
(612,545,o),
(504,545,qs),
(52,545,l),
(52,0,l)
);
},
{
closed = 1;
nodes = (
(848,0,o),
(946,103,o),
(947,188,qs),
(947,538,l),
(759,538,l),
(759,188,ls),
(759,162,o),
(734,146,o),
(708,146,qs),
(475,146,l),
(475,359,l),
(288,359,l),
(288,0,l),
(739,0,ls)
);
}
);
width = 999;
}
);
note = uni20AA;
unicode = 8362;
},
{
glyphname = uni0030;
lastChange = "2026-04-09 08:54:05 +0000";
layers = (
{
layerId = m01;
shapes = (
{
closed = 1;
nodes = (
(181,70,o),
(137,190,o),
(137,364,c),
(137,538,o),
(176,658,o),
(301,658,c),
(426,658,o),
(466,538,o),
(466,364,c),
(466,190,o),
(422,70,o),
(301,70,c)
);
},
{
closed = 1;
nodes = (
(108,737,o),
(48,586,o),
(48,364,c),
(48,141,o),
(114,-10,o),
(301,-10,c),
(489,-10,o),
(555,141,o),
(555,364,c),
(555,586,o),
(495,737,o),
(301,737,c)
);
}
);
width = 603;
},
{
layerId = F2C6FA2E-D08A-4B94-92D2-D7CA5820546A;
shapes = (
{
closed = 1;
nodes = (
(148,13,o),
(92,157,o),
(92,364,c),
(92,571,o),
(143,714,o),
(307,714,c),
(470,714,o),
(522,571,o),
(522,364,c),
(522,157,o),
(465,13,o),
(307,13,c)
);
},
{
closed = 1;
nodes = (
(127,737,o),
(70,587,o),
(70,364,c),
(70,141,o),
(132,-9,o),
(307,-9,c),
(482,-9,o),
(544,141,o),
(544,364,c),
(544,587,o),
(487,737,o),
(307,737,c)
);
}
);
width = 614;
},
{
layerId = F8E60EAC-58E2-4CB8-A8B6-FD6FE89414CC;
shapes = (
{
closed = 1;
nodes = (
(371,188,o),
(341,261,o),
(341,365,c),
(341,467,o),
(368,540,o),
(455,540,c),
(541,540,o),
(569,467,o),
(569,365,c),
(569,261,o),
(538,188,o),
(455,188,c)
);
},
{
closed = 1;
nodes = (
(141,737,o),
(42,588,o),
(42,365,c),
(42,141,o),
(150,-9,o),
(449,-9,c),
(748,-9,o),
(857,141,o),
(857,365,c),
(857,588,o),
(758,737,o),
(449,737,c)
);
}
);
width = 898;
},
{
layerId = m004;
shapes = (
{
closed = 1;
nodes = (
(169,70,o),
(125,190,o),
(125,364,c),
(125,538,o),
(164,658,o),
(289,658,c),
(414,658,o),
(454,538,o),
(454,364,c),
(454,190,o),
(410,70,o),
(289,70,c)
);
},
{
closed = 1;
nodes = (
(96,737,o),
(36,586,o),
(36,364,c),
(36,141,o),
(102,-10,o),
(289,-10,c),
(477,-10,o),
(543,141,o),
(543,364,c),
(543,586,o),
(483,737,o),
(289,737,c)
);
}
);
width = 579;
},
{
layerId = m005;
shapes = (
{
closed = 1;
nodes = (
(131,13,o),
(75,157,o),
(75,364,c),
(75,571,o),
(126,714,o),
(289,714,c),
(453,714,o),
(504,571,o),
(504,364,c),
(504,157,o),
(448,13,o),
(289,13,c)
);
},
{
closed = 1;
nodes = (
(109,737,o),
(52,587,o),
(52,364,c),
(52,141,o),
(115,-9,o),
(289,-9,c),
(464,-9,o),
(527,141,o),
(527,364,c),
(527,587,o),
(469,737,o),
(289,737,c)
);
}
);
width = 579;
},
{
layerId = m006;
shapes = (
{
closed = 1;
nodes = (
(360,188,o),
(330,261,o),
(330,365,c),
(330,467,o),
(357,540,o),
(445,540,c),
(531,540,o),
(558,467,o),
(558,365,c),
(558,261,o),
(528,188,o),
(445,188,c)
);
},
{
closed = 1;
nodes = (
(130,737,o),
(31,588,o),
(31,365,c),
(31,141,o),
(140,-9,o),
(439,-9,c),
(738,-9,o),
(846,141,o),
(846,365,c),
(846,588,o),
(747,737,o),
(439,737,c)
);
}
);
width = 877;
}
);
note = uni0030;
unicode = 48;
},
{
glyphname = uni0031;
lastChange = "2026-04-09 08:54:05 +0000";
layers = (
{
layerId = m01;
shapes = (
{
closed = 1;
nodes = (
(203,0,l),
(294,0,l),
(294,727,l),
(228,727,l),
(228,653,o),
(183,578,o),
(47,578,c),
(47,506,l),
(203,506,l)
);
}
);
width = 341;
},
{
layerId = F2C6FA2E-D08A-4B94-92D2-D7CA5820546A;
shapes = (
{
closed = 1;
nodes = (
(205,0,l),
(228,0,l),
(228,727,l),
(208,727,l),
(208,682,o),
(185,653,o),
(118,653,c),
(118,632,l),
(205,632,l)
);
}
);
width = 304;
},
{
layerId = F8E60EAC-58E2-4CB8-A8B6-FD6FE89414CC;
shapes = (
{
closed = 1;
nodes = (
(198,0,l),
(485,0,l),
(485,727,l),
(271,727,l),
(234,618,o),
(152,582,o),
(42,582,c),
(42,390,l),
(198,390,l)
);
}
);
width = 540;
},
{
layerId = m004;
shapes = (
{
closed = 1;
nodes = (
(192,0,l),
(283,0,l),
(283,727,l),
(217,727,l),
(217,653,o),
(171,578,o),
(35,578,c),
(35,506,l),
(192,506,l)
);
}
);
width = 318;
},
{
layerId = m005;
shapes = (
{
closed = 1;
nodes = (
(175,0,l),
(198,0,l),
(198,727,l),
(179,727,l),
(179,682,o),
(156,653,o),
(89,653,c),
(89,632,l),
(175,632,l)
);
}
);
width = 255;
},
{
layerId = m006;
shapes = (
{
closed = 1;
nodes = (
(187,0,l),
(475,0,l),
(475,727,l),
(260,727,l),
(224,618,o),
(141,582,o),
(31,582,c),
(31,390,l),
(187,390,l)
);
}
);
width = 516;
}
);
note = uni0031;
unicode = 49;
},
{
glyphname = uni0032;
lastChange = "2026-04-09 08:54:05 +0000";
layers = (
{
layerId = m01;
shapes = (
{
closed = 1;
nodes = (
(149,80,l),
(149,112,l),
(149,163,o),
(176,211,o),
(221,238,c),
(290,279,o),
(361,321,o),
(431,362,c),
(493,399,o),
(531,466,o),
(531,538,c),
(531,647,o),
(446,736,o),
(293,736,c),
(140,736,o),
(55,647,o),
(55,538,c),
(55,504,l),
(146,504,l),
(146,537,l),
(146,601,o),
(200,657,o),
(293,657,c),
(386,657,o),
(439,602,o),
(440,538,c),
(440,498,o),
(419,461,o),
(384,440,c),
(314,398,o),
(245,357,o),
(175,316,c),
(102,273,o),
(58,195,o),
(58,112,c),
(58,0,l),
(542,0,l),
(542,80,l)
);
}
);
width = 595;
},
{
layerId = F2C6FA2E-D08A-4B94-92D2-D7CA5820546A;
shapes = (
{
closed = 1;
nodes = (
(125,23,l),
(125,66,l),
(125,158,o),
(174,242,o),
(253,287,c),
(313,321,o),
(372,356,o),
(432,390,c),
(487,421,o),
(521,480,o),
(521,543,c),
(518,650,o),
(440,736,o),
(300,736,c),
(161,736,o),
(82,650,o),
(80,543,c),
(80,504,l),
(102,504,l),
(102,543,l),
(106,636,o),
(179,713,o),
(300,713,c),
(422,713,o),
(494,636,o),
(498,543,c),
(498,488,o),
(468,437,o),
(421,409,c),
(361,375,o),
(301,341,o),
(242,307,c),
(156,257,o),
(102,165,o),
(102,66,c),
(102,0,l),
(538,0,l),
(538,23,l)
);
}
);
width = 616;
},
{
layerId = F8E60EAC-58E2-4CB8-A8B6-FD6FE89414CC;
shapes = (
{
closed = 1;
nodes = (
(333,201,l),
(330,201,l),
(328,217,o),
(347,253,o),
(455,273,c),
(511,282,o),
(637,302,o),
(683,317,c),
(834,367,o),
(850,450,o),
(850,523,c),
(850,657,o),
(718,743,o),
(437,736,c),
(143,736,o),
(37,621,o),
(37,485,c),
(37,466,l),
(326,466,l),
(326,468,l),
(326,482,o),
(333,544,o),
(437,544,c),
(490,544,o),
(559,540,o),
(560,494,c),
(560,452,o),
(433,450,o),
(399,444,c),
(307,435,o),
(231,423,o),
(167,384,c),
(53,315,o),
(38,195,o),
(38,112,c),
(38,0,l),
(858,0,l),
(858,201,l)
);
}
);
width = 898;
},
{
layerId = m004;
shapes = (
{
closed = 1;
nodes = (
(135,80,l),
(135,112,l),
(135,163,o),
(162,211,o),
(207,238,c),
(277,279,o),
(347,321,o),
(417,362,c),
(479,399,o),
(517,466,o),
(517,538,c),
(517,647,o),
(433,736,o),
(279,736,c),
(126,736,o),
(42,647,o),
(42,538,c),
(42,504,l),
(132,504,l),
(132,537,l),
(132,601,o),
(186,657,o),
(279,657,c),
(372,657,o),
(425,602,o),
(426,538,c),
(426,498,o),
(405,461,o),
(370,440,c),
(300,398,o),
(231,357,o),
(161,316,c),
(88,273,o),
(44,195,o),
(44,112,c),
(44,0,l),
(528,0,l),
(528,80,l)
);
}
);
width = 568;
},
{
layerId = m005;
shapes = (
{
closed = 1;
nodes = (
(105,23,l),
(105,66,l),
(105,158,o),
(154,242,o),
(233,287,c),
(293,321,o),
(352,356,o),
(412,390,c),
(467,421,o),
(501,480,o),
(501,543,c),
(499,650,o),
(420,736,o),
(281,736,c),
(141,736,o),
(63,650,o),
(60,543,c),
(60,504,l),
(82,504,l),
(82,543,l),
(86,636,o),
(159,713,o),
(281,713,c),
(402,713,o),
(474,636,o),
(478,543,c),
(478,488,o),
(449,437,o),
(401,409,c),
(341,375,o),
(282,341,o),
(222,307,c),
(136,257,o),
(82,165,o),
(82,66,c),
(82,0,l),
(518,0,l),
(518,23,l)
);
}
);
width = 576;
},
{
layerId = m006;
shapes = (
{
closed = 1;
nodes = (
(324,201,l),
(320,201,l),
(319,217,o),
(338,253,o),
(445,273,c),
(501,282,o),
(628,302,o),
(674,317,c),
(825,367,o),
(841,450,o),
(841,523,c),
(841,657,o),
(709,743,o),
(428,736,c),
(134,736,o),
(28,621,o),
(28,485,c),
(28,466,l),
(317,466,l),
(317,468,l),
(317,482,o),
(324,544,o),
(428,544,c),
(481,544,o),
(549,540,o),
(551,494,c),
(551,452,o),
(424,450,o),
(390,444,c),
(298,435,o),
(222,423,o),
(158,384,c),
(43,315,o),
(29,195,o),
(29,112,c),
(29,0,l),
(849,0,l),
(849,201,l)
);
}
);
width = 879;
}
);
note = uni0032;
unicode = 50;
},
{
glyphname = uni0033;
lastChange = "2026-04-09 08:54:05 +0000";
layers = (
{
layerId = m01;
shapes = (
{
closed = 1;
nodes = (
(507,410,o),
(542,471,o),
(542,540,c),
(542,650,o),
(457,737,o),
(304,737,c),
(150,737,o),
(65,650,o),
(65,540,c),
(65,515,l),
(154,515,l),
(154,531,l),
(154,599,o),
(209,658,o),
(304,658,c),
(397,658,o),
(453,599,o),
(453,531,c),
(453,462,o),
(407,411,o),
(304,411,c),
(254,411,l),
(254,400,l),
(254,344,l),
(254,330,l),
(309,330,l),
(420,330,o),
(469,277,o),
(469,206,c),
(469,134,o),
(411,72,o),
(309,72,c),
(208,72,o),
(150,134,o),
(150,206,c),
(150,222,l),
(55,222,l),
(55,195,l),
(55,82,o),
(145,-10,o),
(310,-10,c),
(474,-10,o),
(564,82,o),
(564,195,c),
(564,273,o),
(522,340,o),
(443,375,c)
);
}
);
width = 615;
},
{
layerId = F2C6FA2E-D08A-4B94-92D2-D7CA5820546A;
shapes = (
{
closed = 1;
nodes = (
(485,405,o),
(532,472,o),
(532,551,c),
(532,653,o),
(453,736,o),
(311,736,c),
(168,736,o),
(89,653,o),
(89,551,c),
(89,515,l),
(111,515,l),
(111,551,l),
(111,638,o),
(185,713,o),
(312,713,c),
(438,713,o),
(509,638,o),
(509,551,c),
(509,464,o),
(449,388,o),
(311,388,c),
(268,388,l),
(268,383,l),
(268,372,l),
(268,366,l),
(316,366,l),
(452,366,o),
(532,283,o),
(532,190,c),
(532,96,o),
(465,13,o),
(316,13,c),
(167,13,o),
(100,96,o),
(100,190,c),
(100,215,l),
(77,215,l),
(77,190,l),
(77,79,o),
(162,-10,o),
(316,-10,c),
(470,-10,o),
(554,79,o),
(554,190,c),
(554,278,o),
(500,352,o),
(399,379,c)
);
}
);
width = 632;
},
{
layerId = F8E60EAC-58E2-4CB8-A8B6-FD6FE89414CC;
shapes = (
{
closed = 1;
nodes = (
(792,413,o),
(824,472,o),
(824,540,c),
(824,650,o),
(741,737,o),
(431,737,c),
(121,737,o),
(38,650,o),
(38,540,c),
(38,467,l),
(318,467,l),
(318,494,l),
(318,527,o),
(358,558,o),
(430,558,c),
(499,558,o),
(544,534,o),
(544,500,c),
(544,467,o),
(505,445,o),
(430,445,c),
(355,445,l),
(355,407,l),
(355,345,l),
(355,305,l),
(441,305,l),
(523,305,o),
(563,279,o),
(563,241,c),
(563,203,o),
(517,175,o),
(441,175,c),
(364,175,o),
(322,210,o),
(322,248,c),
(322,276,l),
(38,276,l),
(38,199,l),
(38,84,o),
(125,-10,o),
(442,-10,c),
(760,-10,o),
(846,84,o),
(846,199,c),
(846,275,o),
(809,342,o),
(690,376,c)
);
}
);
width = 889;
},
{
layerId = m004;
shapes = (
{
closed = 1;
nodes = (
(494,410,o),
(529,471,o),
(529,540,c),
(529,650,o),
(444,737,o),
(290,737,c),
(137,737,o),
(52,650,o),
(52,540,c),
(52,515,l),
(141,515,l),
(141,531,l),
(141,599,o),
(196,658,o),
(290,658,c),
(384,658,o),
(439,599,o),
(439,531,c),
(439,462,o),
(394,411,o),
(290,411,c),
(240,411,l),
(240,400,l),
(240,344,l),
(240,330,l),
(295,330,l),
(406,330,o),
(455,277,o),
(455,206,c),
(455,134,o),
(397,72,o),
(295,72,c),
(195,72,o),
(137,134,o),
(137,206,c),
(137,222,l),
(41,222,l),
(41,195,l),
(41,82,o),
(131,-10,o),
(297,-10,c),
(461,-10,o),
(551,82,o),
(551,195,c),
(551,273,o),
(509,340,o),
(429,375,c)
);
}
);
width = 589;
},
{
layerId = m005;
shapes = (
{
closed = 1;
nodes = (
(466,405,o),
(512,472,o),
(512,551,c),
(512,653,o),
(434,736,o),
(292,736,c),
(148,736,o),
(70,653,o),
(70,551,c),
(70,515,l),
(92,515,l),
(92,551,l),
(92,638,o),
(165,713,o),
(293,713,c),
(419,713,o),
(490,638,o),
(490,551,c),
(490,464,o),
(430,388,o),
(292,388,c),
(249,388,l),
(249,383,l),
(249,372,l),
(249,366,l),
(297,366,l),
(433,366,o),
(512,283,o),
(512,190,c),
(512,96,o),
(446,13,o),
(297,13,c),
(148,13,o),
(81,96,o),
(81,190,c),
(81,215,l),
(58,215,l),
(58,190,l),
(58,79,o),
(143,-10,o),
(297,-10,c),
(451,-10,o),
(535,79,o),
(535,190,c),
(535,278,o),
(480,352,o),
(380,379,c)
);
}
);
width = 593;
},
{
layerId = m006;
shapes = (
{
closed = 1;
nodes = (
(782,413,o),
(814,472,o),
(814,540,c),
(814,650,o),
(731,737,o),
(422,737,c),
(112,737,o),
(29,650,o),
(29,540,c),
(29,467,l),
(309,467,l),
(309,494,l),
(309,527,o),
(348,558,o),
(420,558,c),
(490,558,o),
(534,534,o),
(534,500,c),
(534,467,o),
(496,445,o),
(420,445,c),
(345,445,l),
(345,407,l),
(345,345,l),
(345,305,l),
(431,305,l),
(513,305,o),
(553,279,o),
(553,241,c),
(553,203,o),
(507,175,o),
(431,175,c),
(354,175,o),
(312,210,o),
(312,248,c),
(312,276,l),
(29,276,l),
(29,199,l),
(29,84,o),
(115,-10,o),
(433,-10,c),
(750,-10,o),
(836,84,o),
(836,199,c),
(836,275,o),
(800,342,o),
(680,376,c)
);
}
);
width = 869;
}
);
note = uni0033;
unicode = 51;
},
{
glyphname = uni0034;
lastChange = "2026-04-10 15:41:33 +0000";
layers = (
{
layerId = m01;
shapes = (
{
closed = 1;
nodes = (
(404,0,l),
(495,0,l),
(495,727,l),
(404,727,l)
);
},
{
closed = 1;
nodes = (
(47,176,l),
(598,176,l),
(598,262,l),
(47,262,l)
);
},
{
closed = 1;
nodes = (
(404,727,l),
(47,262,l),
(111,207,l),
(474,677,l)
);
}
);
width = 645;
},
{
layerId = F2C6FA2E-D08A-4B94-92D2-D7CA5820546A;
shapes = (
{
closed = 1;
nodes = (
(451,0,l),
(474,0,l),
(474,727,l),
(451,727,l)
);
},
{
closed = 1;
nodes = (
(70,193,l),
(622,193,l),
(622,216,l),
(70,216,l)
);
},
{
closed = 1;
nodes = (
(451,727,l),
(70,216,l),
(90,201,l),
(471,713,l)
);
}
);
width = 692;
},
{
layerId = F8E60EAC-58E2-4CB8-A8B6-FD6FE89414CC;
shapes = (
{
closed = 1;
nodes = (
(529,0,l),
(813,0,l),
(813,727,l),
(529,727,l)
);
},
{
closed = 1;
nodes = (
(40,80,l),
(910,80,l),
(910,262,l),
(40,262,l)
);
},
{
closed = 1;
nodes = (
(529,727,l),
(40,262,l),
(161,129,l),
(656,595,l)
);
}
);
width = 947;
},
{
layerId = m004;
shapes = (
{
closed = 1;
nodes = (
(392,0,l),
(484,0,l),
(484,727,l),
(392,727,l)
);
},
{
closed = 1;
nodes = (
(35,176,l),
(587,176,l),
(587,262,l),
(35,262,l)
);
},
{
closed = 1;
nodes = (
(392,727,l),
(35,262,l),
(99,207,l),
(462,677,l)
);
}
);
width = 622;
},
{
layerId = m005;
shapes = (
{
closed = 1;
nodes = (
(433,0,l),
(456,0,l),
(456,727,l),
(433,727,l)
);
},
{
closed = 1;
nodes = (
(53,193,l),
(604,193,l),
(604,216,l),
(53,216,l)
);
},
{
closed = 1;
nodes = (
(433,727,l),
(53,216,l),
(72,201,l),
(453,713,l)
);
}
);
width = 657;
},
{
layerId = m006;
shapes = (
{
closed = 1;
nodes = (
(520,0,l),
(803,0,l),
(803,727,l),
(520,727,l)
);
},
{
closed = 1;
nodes = (
(31,80,l),
(900,80,l),
(900,262,l),
(31,262,l)
);
},
{
closed = 1;
nodes = (
(520,727,l),
(31,262,l),
(151,129,l),
(646,595,l)
);
}
);
width = 928;
}
);
note = uni0034;
unicode = 52;
},
{
glyphname = uni0035;
lastChange = "2026-04-09 08:54:05 +0000";
layers = (
{
layerId = m01;
shapes = (
{
closed = 1;
nodes = (
(138,642,l),
(525,642,l),
(525,727,l),
(138,727,l)
);
},
{
closed = 1;
nodes = (
(110,727,l),
(71,330,l),
(161,330,l),
(201,727,l)
);
},
{
closed = 1;
nodes = (
(480,-10,o),
(570,108,o),
(570,254,c),
(570,400,o),
(480,518,o),
(312,518,c),
(175,518,o),
(100,439,o),
(74,330,c),
(171,330,l),
(196,392,o),
(238,438,o),
(313,438,c),
(419,438,o),
(479,348,o),
(479,248,c),
(479,147,o),
(428,69,o),
(313,69,c),
(210,69,o),
(157,130,o),
(147,214,c),
(56,214,l),
(71,87,o),
(159,-10,o),
(312,-10,c)
);
}
);
width = 620;
},
{
layerId = F2C6FA2E-D08A-4B94-92D2-D7CA5820546A;
shapes = (
{
closed = 1;
nodes = (
(126,704,l),
(506,704,l),
(506,727,l),
(126,727,l)
);
},
{
closed = 1;
nodes = (
(121,727,l),
(80,330,l),
(103,330,l),
(143,727,l)
);
},
{
closed = 1;
nodes = (
(468,-10,o),
(551,108,o),
(551,254,c),
(551,400,o),
(468,517,o),
(312,517,c),
(185,517,o),
(105,439,o),
(81,330,c),
(107,330,l),
(134,424,o),
(206,494,o),
(313,494,c),
(450,494,o),
(529,382,o),
(529,245,c),
(529,131,o),
(463,13,o),
(313,13,c),
(178,13,o),
(110,112,o),
(98,211,c),
(75,211,l),
(90,86,o),
(172,-10,o),
(312,-10,c)
);
}
);
width = 624;
},
{
layerId = F8E60EAC-58E2-4CB8-A8B6-FD6FE89414CC;
shapes = (
{
closed = 1;
nodes = (
(116,546,l),
(764,546,l),
(764,727,l),
(116,727,l)
);
},
{
closed = 1;
nodes = (
(88,727,l),
(45,293,l),
(333,293,l),
(372,727,l)
);
},
{
closed = 1;
nodes = (
(699,-10,o),
(836,108,o),
(836,254,c),
(836,399,o),
(756,517,o),
(497,517,c),
(262,517,o),
(69,421,o),
(47,293,c),
(345,293,l),
(363,318,o),
(397,336,o),
(443,336,c),
(513,336,o),
(554,296,o),
(554,251,c),
(554,206,o),
(519,172,o),
(443,172,c),
(391,172,o),
(360,187,o),
(344,211,c),
(47,211,l),
(72,87,o),
(206,-10,o),
(440,-10,c)
);
}
);
width = 875;
},
{
layerId = m004;
shapes = (
{
closed = 1;
nodes = (
(124,642,l),
(510,642,l),
(510,727,l),
(124,727,l)
);
},
{
closed = 1;
nodes = (
(96,727,l),
(57,330,l),
(147,330,l),
(187,727,l)
);
},
{
closed = 1;
nodes = (
(466,-10,o),
(555,108,o),
(555,254,c),
(555,400,o),
(466,518,o),
(298,518,c),
(161,518,o),
(86,439,o),
(60,330,c),
(157,330,l),
(181,392,o),
(224,438,o),
(299,438,c),
(404,438,o),
(465,348,o),
(465,248,c),
(465,147,o),
(414,69,o),
(299,69,c),
(196,69,o),
(143,130,o),
(132,214,c),
(42,214,l),
(57,87,o),
(145,-10,o),
(298,-10,c)
);
}
);
width = 593;
},
{
layerId = m005;
shapes = (
{
closed = 1;
nodes = (
(107,704,l),
(487,704,l),
(487,727,l),
(107,727,l)
);
},
{
closed = 1;
nodes = (
(102,727,l),
(61,330,l),
(85,330,l),
(125,727,l)
);
},
{
closed = 1;
nodes = (
(449,-10,o),
(532,108,o),
(532,254,c),
(532,400,o),
(449,517,o),
(293,517,c),
(166,517,o),
(86,439,o),
(62,330,c),
(88,330,l),
(115,424,o),
(188,494,o),
(294,494,c),
(431,494,o),
(510,382,o),
(510,245,c),
(510,131,o),
(444,13,o),
(294,13,c),
(159,13,o),
(91,112,o),
(79,211,c),
(56,211,l),
(71,86,o),
(153,-10,o),
(293,-10,c)
);
}
);
width = 587;
},
{
layerId = m006;
shapes = (
{
closed = 1;
nodes = (
(105,546,l),
(752,546,l),
(752,727,l),
(105,727,l)
);
},
{
closed = 1;
nodes = (
(76,727,l),
(34,293,l),
(321,293,l),
(361,727,l)
);
},
{
closed = 1;
nodes = (
(688,-10,o),
(825,108,o),
(825,254,c),
(825,399,o),
(745,517,o),
(485,517,c),
(250,517,o),
(58,421,o),
(36,293,c),
(334,293,l),
(351,318,o),
(386,336,o),
(432,336,c),
(501,336,o),
(542,296,o),
(542,251,c),
(542,206,o),
(508,172,o),
(432,172,c),
(380,172,o),
(348,187,o),
(332,211,c),
(36,211,l),
(61,87,o),
(195,-10,o),
(429,-10,c)
);
}
);
width = 854;
}
);
note = uni0035;
unicode = 53;
},
{
glyphname = uni0036;
lastChange = "2026-04-09 08:54:05 +0000";
layers = (
{
layerId = m01;
shapes = (
{
closed = 1;
nodes = (
(203,70,o),
(157,139,o),
(157,228,c),
(157,318,o),
(212,397,o),
(307,397,c),
(402,397,o),
(457,318,o),
(457,228,c),
(457,139,o),
(411,70,o),
(307,70,c)
);
},
{
closed = 1;
nodes = (
(215,477,o),
(166,434,o),
(142,396,c),
(142,409,o),
(143,422,o),
(145,434,c),
(158,560,o),
(203,658,o),
(304,658,c),
(378,658,o),
(423,616,o),
(446,545,c),
(540,545,l),
(510,665,o),
(439,737,o),
(304,737,c),
(111,737,o),
(50,587,o),
(50,364,c),
(50,289,o),
(57,224,o),
(74,169,c),
(97,65,o),
(178,-10,o),
(307,-10,c),
(462,-10,o),
(548,99,o),
(548,233,c),
(548,368,o),
(462,477,o),
(307,477,c)
);
}
);
width = 597;
},
{
layerId = F2C6FA2E-D08A-4B94-92D2-D7CA5820546A;
shapes = (
{
closed = 1;
nodes = (
(176,13,o),
(114,124,o),
(114,227,c),
(114,347,o),
(188,454,o),
(315,454,c),
(442,454,o),
(516,347,o),
(516,227,c),
(516,124,o),
(453,13,o),
(315,13,c)
);
},
{
closed = 1;
nodes = (
(196,477,o),
(121,403,o),
(98,303,c),
(97,322,o),
(97,343,o),
(97,364,c),
(97,571,o),
(149,714,o),
(312,714,c),
(421,714,o),
(480,650,o),
(508,545,c),
(532,545,l),
(503,664,o),
(437,737,o),
(312,737,c),
(131,737,o),
(74,587,o),
(74,364,c),
(74,282,o),
(83,209,o),
(102,151,c),
(129,57,o),
(202,-10,o),
(315,-10,c),
(459,-10,o),
(538,99,o),
(538,234,c),
(538,368,o),
(459,477,o),
(315,477,c)
);
}
);
width = 612;
},
{
layerId = F8E60EAC-58E2-4CB8-A8B6-FD6FE89414CC;
shapes = (
{
closed = 1;
nodes = (
(378,171,o),
(348,197,o),
(348,232,c),
(348,266,o),
(384,296,o),
(446,296,c),
(509,296,o),
(546,266,o),
(546,232,c),
(546,197,o),
(515,171,o),
(446,171,c)
);
},
{
closed = 1;
nodes = (
(407,476,o),
(344,431,o),
(327,414,c),
(327,426,o),
(326,446,o),
(329,458,c),
(338,495,o),
(374,539,o),
(421,539,c),
(460,539,o),
(487,522,o),
(505,491,c),
(800,491,l),
(765,642,o),
(653,738,o),
(426,738,c),
(141,738,o),
(38,587,o),
(38,364,c),
(38,283,o),
(50,213,o),
(79,154,c),
(131,29,o),
(293,-10,o),
(436,-10,c),
(703,-10,o),
(829,76,o),
(829,233,c),
(829,418,o),
(728,476,o),
(523,476,c)
);
}
);
width = 869;
},
{
layerId = m004;
shapes = (
{
closed = 1;
nodes = (
(191,70,o),
(145,139,o),
(145,228,c),
(145,318,o),
(200,397,o),
(295,397,c),
(390,397,o),
(445,318,o),
(445,228,c),
(445,139,o),
(399,70,o),
(295,70,c)
);
},
{
closed = 1;
nodes = (
(202,477,o),
(153,434,o),
(129,396,c),
(130,409,o),
(131,422,o),
(132,434,c),
(146,560,o),
(191,658,o),
(292,658,c),
(366,658,o),
(410,616,o),
(434,545,c),
(528,545,l),
(497,665,o),
(426,737,o),
(292,737,c),
(99,737,o),
(37,587,o),
(37,364,c),
(37,289,o),
(45,224,o),
(61,169,c),
(85,65,o),
(165,-10,o),
(295,-10,c),
(450,-10,o),
(535,99,o),
(535,233,c),
(535,368,o),
(450,477,o),
(295,477,c)
);
}
);
width = 572;
},
{
layerId = m005;
shapes = (
{
closed = 1;
nodes = (
(157,13,o),
(95,124,o),
(95,227,c),
(95,347,o),
(169,454,o),
(296,454,c),
(423,454,o),
(497,347,o),
(497,227,c),
(497,124,o),
(435,13,o),
(296,13,c)
);
},
{
closed = 1;
nodes = (
(178,477,o),
(103,403,o),
(80,303,c),
(79,322,o),
(78,343,o),
(78,364,c),
(78,571,o),
(130,714,o),
(293,714,c),
(403,714,o),
(462,650,o),
(489,545,c),
(513,545,l),
(484,664,o),
(419,737,o),
(293,737,c),
(113,737,o),
(55,587,o),
(55,364,c),
(55,282,o),
(64,209,o),
(83,151,c),
(110,57,o),
(183,-10,o),
(296,-10,c),
(440,-10,o),
(520,99,o),
(520,234,c),
(520,368,o),
(440,477,o),
(296,477,c)
);
}
);
width = 575;
},
{
layerId = m006;
shapes = (
{
closed = 1;
nodes = (
(369,171,o),
(338,197,o),
(338,232,c),
(338,266,o),
(374,296,o),
(436,296,c),
(500,296,o),
(536,266,o),
(536,232,c),
(536,197,o),
(506,171,o),
(436,171,c)
);
},
{
closed = 1;
nodes = (
(397,476,o),
(335,431,o),
(317,414,c),
(317,426,o),
(317,446,o),
(320,458,c),
(329,495,o),
(365,539,o),
(412,539,c),
(450,539,o),
(478,522,o),
(495,491,c),
(791,491,l),
(755,642,o),
(643,738,o),
(417,738,c),
(131,738,o),
(29,587,o),
(29,364,c),
(29,283,o),
(40,213,o),
(70,154,c),
(121,29,o),
(284,-10,o),
(426,-10,c),
(694,-10,o),
(819,76,o),
(819,233,c),
(819,418,o),
(719,476,o),
(513,476,c)
);
}
);
width = 850;
}
);
note = uni0036;
unicode = 54;
},
{
glyphname = uni0037;
lastChange = "2026-04-09 08:54:05 +0000";
layers = (
{
layerId = m01;
shapes = (
{
closed = 1;
nodes = (
(254,0,l),
(249,95,o),
(267,211,o),
(310,330,cs),
(357,464,o),
(425,577,o),
(496,648,c),
(496,727,l),
(42,727,l),
(42,648,l),
(404,648,l),
(333,577,o),
(265,464,o),
(218,330,cs),
(176,211,o),
(158,95,o),
(162,0,c)
);
}
);
width = 543;
},
{
layerId = F2C6FA2E-D08A-4B94-92D2-D7CA5820546A;
shapes = (
{
closed = 1;
nodes = (
(257,0,l),
(253,104,o),
(271,229,o),
(313,359,cs),
(360,505,o),
(428,627,o),
(500,705,c),
(500,727,l),
(63,727,l),
(63,705,l),
(470,705,l),
(399,627,o),
(334,505,o),
(286,359,cs),
(245,229,o),
(227,104,o),
(230,0,c)
);
}
);
width = 567;
},
{
layerId = F8E60EAC-58E2-4CB8-A8B6-FD6FE89414CC;
shapes = (
{
closed = 1;
nodes = (
(454,0,l),
(482,90,o),
(528,187,o),
(591,282,cs),
(663,391,o),
(748,481,o),
(830,545,c),
(830,727,l),
(36,727,l),
(36,545,l),
(562,545,l),
(493,494,o),
(425,427,o),
(361,349,cs),
(266,232,o),
(199,109,o),
(166,0,c)
);
}
);
width = 873;
},
{
layerId = m004;
shapes = (
{
closed = 1;
nodes = (
(243,0,l),
(239,95,o),
(257,211,o),
(299,330,cs),
(346,464,o),
(415,577,o),
(486,648,c),
(486,727,l),
(31,727,l),
(31,648,l),
(394,648,l),
(322,577,o),
(254,464,o),
(207,330,cs),
(165,211,o),
(147,95,o),
(151,0,c)
);
}
);
width = 521;
},
{
layerId = m005;
shapes = (
{
closed = 1;
nodes = (
(241,0,l),
(238,104,o),
(256,229,o),
(297,359,cs),
(344,505,o),
(413,627,o),
(484,705,c),
(484,727,l),
(47,727,l),
(47,705,l),
(455,705,l),
(383,627,o),
(318,505,o),
(271,359,cs),
(229,229,o),
(211,104,o),
(214,0,c)
);
}
);
width = 534;
},
{
layerId = m006;
shapes = (
{
closed = 1;
nodes = (
(445,0,l),
(473,90,o),
(519,187,o),
(582,282,cs),
(654,391,o),
(739,481,o),
(821,545,c),
(821,727,l),
(27,727,l),
(27,545,l),
(553,545,l),
(484,494,o),
(416,427,o),
(352,349,cs),
(257,232,o),
(190,109,o),
(157,0,c)
);
}
);
width = 853;
}
);
note = uni0037;
unicode = 55;
},
{
glyphname = uni0038;
lastChange = "2026-04-09 08:54:05 +0000";
layers = (
{
layerId = m01;
shapes = (
{
closed = 1;
nodes = (
(212,431,o),
(167,483,o),
(167,545,c),
(167,605,o),
(221,657,o),
(312,657,c),
(402,657,o),
(456,605,o),
(456,545,c),
(456,483,o),
(411,431,o),
(312,431,c)
);
},
{
closed = 1;
nodes = (
(160,737,o),
(76,654,o),
(76,553,c),
(76,451,o),
(160,369,o),
(312,369,c),
(462,369,o),
(547,451,o),
(547,553,c),
(547,654,o),
(462,737,o),
(311,737,c)
);
},
{
closed = 1;
nodes = (
(202,75,o),
(139,140,o),
(139,214,c),
(139,287,o),
(192,353,o),
(312,353,c),
(431,353,o),
(483,287,o),
(483,214,c),
(483,140,o),
(421,75,o),
(312,75,c)
);
},
{
closed = 1;
nodes = (
(143,420,o),
(48,324,o),
(48,206,c),
(48,86,o),
(143,-10,o),
(312,-10,c),
(480,-10,o),
(574,86,o),
(574,206,c),
(574,324,o),
(480,420,o),
(312,420,c)
);
}
);
width = 623;
},
{
layerId = F2C6FA2E-D08A-4B94-92D2-D7CA5820546A;
shapes = (
{
closed = 1;
nodes = (
(183,409,o),
(122,477,o),
(122,561,c),
(122,645,o),
(195,714,o),
(317,714,c),
(440,714,o),
(513,645,o),
(513,561,c),
(513,477,o),
(452,409,o),
(317,409,c)
);
},
{
closed = 1;
nodes = (
(176,737,o),
(99,658,o),
(99,561,c),
(99,464,o),
(176,386,o),
(316,386,c),
(457,386,o),
(536,464,o),
(536,561,c),
(536,658,o),
(457,737,o),
(316,737,c)
);
},
{
closed = 1;
nodes = (
(176,13,o),
(94,100,o),
(94,195,c),
(94,292,o),
(163,381,o),
(317,381,c),
(472,381,o),
(541,292,o),
(541,195,c),
(541,100,o),
(459,13,o),
(317,13,c)
);
},
{
closed = 1;
nodes = (
(159,402,o),
(71,310,o),
(71,196,c),
(71,82,o),
(159,-10,o),
(317,-10,c),
(475,-10,o),
(564,82,o),
(564,196,c),
(564,310,o),
(475,402,o),
(317,402,c)
);
}
);
width = 635;
},
{
layerId = F8E60EAC-58E2-4CB8-A8B6-FD6FE89414CC;
shapes = (
{
closed = 1;
nodes = (
(381,436,o),
(352,464,o),
(352,499,c),
(352,533,o),
(387,561,o),
(448,561,c),
(509,561,o),
(544,533,o),
(544,499,c),
(544,464,o),
(514,436,o),
(448,436,c)
);
},
{
closed = 1;
nodes = (
(205,737,o),
(85,666,o),
(85,541,c),
(85,417,o),
(199,346,o),
(451,346,c),
(702,346,o),
(816,417,o),
(816,541,c),
(816,666,o),
(696,737,o),
(451,737,c)
);
},
{
closed = 1;
nodes = (
(371,161,o),
(325,196,o),
(325,236,c),
(325,276,o),
(363,311,o),
(449,311,c),
(536,311,o),
(574,276,o),
(574,236,c),
(574,196,o),
(528,161,o),
(449,161,c)
);
},
{
closed = 1;
nodes = (
(170,397,o),
(40,333,o),
(40,193,c),
(40,54,o),
(170,-11,o),
(449,-11,c),
(729,-11,o),
(859,54,o),
(859,193,c),
(859,333,o),
(729,397,o),
(449,397,c)
);
}
);
width = 898;
},
{
layerId = m004;
shapes = (
{
closed = 1;
nodes = (
(200,431,o),
(155,483,o),
(155,545,c),
(155,605,o),
(208,657,o),
(300,657,c),
(390,657,o),
(444,605,o),
(444,545,c),
(444,483,o),
(399,431,o),
(300,431,c)
);
},
{
closed = 1;
nodes = (
(148,737,o),
(64,654,o),
(64,553,c),
(64,451,o),
(148,369,o),
(300,369,c),
(450,369,o),
(534,451,o),
(534,553,c),
(534,654,o),
(450,737,o),
(299,737,c)
);
},
{
closed = 1;
nodes = (
(190,75,o),
(127,140,o),
(127,214,c),
(127,287,o),
(180,353,o),
(300,353,c),
(419,353,o),
(471,287,o),
(471,214,c),
(471,140,o),
(409,75,o),
(300,75,c)
);
},
{
closed = 1;
nodes = (
(131,420,o),
(36,324,o),
(36,206,c),
(36,86,o),
(131,-10,o),
(300,-10,c),
(468,-10,o),
(562,86,o),
(562,206,c),
(562,324,o),
(468,420,o),
(300,420,c)
);
}
);
width = 598;
},
{
layerId = m005;
shapes = (
{
closed = 1;
nodes = (
(165,409,o),
(104,477,o),
(104,561,c),
(104,645,o),
(177,714,o),
(300,714,c),
(422,714,o),
(495,645,o),
(495,561,c),
(495,477,o),
(434,409,o),
(300,409,c)
);
},
{
closed = 1;
nodes = (
(158,737,o),
(81,658,o),
(81,561,c),
(81,464,o),
(158,386,o),
(299,386,c),
(439,386,o),
(518,464,o),
(518,561,c),
(518,658,o),
(439,737,o),
(299,737,c)
);
},
{
closed = 1;
nodes = (
(158,13,o),
(76,100,o),
(76,195,c),
(76,292,o),
(145,381,o),
(300,381,c),
(454,381,o),
(523,292,o),
(523,195,c),
(523,100,o),
(441,13,o),
(300,13,c)
);
},
{
closed = 1;
nodes = (
(142,402,o),
(53,310,o),
(53,196,c),
(53,82,o),
(142,-10,o),
(300,-10,c),
(457,-10,o),
(546,82,o),
(546,196,c),
(546,310,o),
(457,402,o),
(300,402,c)
);
}
);
width = 599;
},
{
layerId = m006;
shapes = (
{
closed = 1;
nodes = (
(371,436,o),
(342,464,o),
(342,499,c),
(342,533,o),
(377,561,o),
(438,561,c),
(499,561,o),
(534,533,o),
(534,499,c),
(534,464,o),
(504,436,o),
(438,436,c)
);
},
{
closed = 1;
nodes = (
(195,737,o),
(75,666,o),
(75,541,c),
(75,417,o),
(189,346,o),
(441,346,c),
(692,346,o),
(806,417,o),
(806,541,c),
(806,666,o),
(686,737,o),
(441,737,c)
);
},
{
closed = 1;
nodes = (
(361,161,o),
(315,196,o),
(315,236,c),
(315,276,o),
(353,311,o),
(439,311,c),
(526,311,o),
(564,276,o),
(564,236,c),
(564,196,o),
(518,161,o),
(439,161,c)
);
},
{
closed = 1;
nodes = (
(160,397,o),
(30,333,o),
(30,193,c),
(30,54,o),
(160,-11,o),
(439,-11,c),
(719,-11,o),
(849,54,o),
(849,193,c),
(849,333,o),
(719,397,o),
(439,397,c)
);
}
);
width = 879;
}
);
note = uni0038;
unicode = 56;
},
{
glyphname = uni0039;
lastChange = "2026-04-09 08:54:05 +0000";
layers = (
{
layerId = m01;
shapes = (
{
closed = 1;
nodes = (
(394,658,o),
(440,588,o),
(440,499,c),
(440,409,o),
(385,330,o),
(290,330,c),
(195,330,o),
(140,409,o),
(140,499,c),
(140,588,o),
(186,658,o),
(290,658,c)
);
},
{
closed = 1;
nodes = (
(382,250,o),
(431,293,o),
(456,332,c),
(456,332,o),
(456,293,o),
(456,293,c),
(455,167,o),
(394,69,o),
(293,69,c),
(219,69,o),
(175,112,o),
(151,182,c),
(57,182,l),
(88,62,o),
(158,-10,o),
(293,-10,c),
(486,-10,o),
(548,140,o),
(548,363,c),
(548,438,o),
(540,504,o),
(524,559,c),
(500,662,o),
(420,737,o),
(290,737,c),
(135,737,o),
(50,628,o),
(50,494,c),
(50,360,o),
(135,250,o),
(290,250,c)
);
}
);
width = 597;
},
{
layerId = F2C6FA2E-D08A-4B94-92D2-D7CA5820546A;
shapes = (
{
closed = 1;
nodes = (
(436,714,o),
(499,604,o),
(499,500,c),
(499,380,o),
(425,273,o),
(298,273,c),
(170,273,o),
(97,380,o),
(97,500,c),
(97,604,o),
(159,714,o),
(298,714,c)
);
},
{
closed = 1;
nodes = (
(416,251,o),
(491,324,o),
(514,425,c),
(515,406,o),
(516,385,o),
(516,364,c),
(516,157,o),
(463,13,o),
(300,13,c),
(191,13,o),
(132,78,o),
(104,183,c),
(81,183,l),
(109,63,o),
(175,-10,o),
(300,-10,c),
(481,-10,o),
(538,141,o),
(538,364,c),
(538,446,o),
(529,518,o),
(510,577,c),
(484,671,o),
(411,737,o),
(298,737,c),
(153,737,o),
(74,629,o),
(74,494,c),
(74,360,o),
(153,251,o),
(298,251,c)
);
}
);
width = 612;
},
{
layerId = F8E60EAC-58E2-4CB8-A8B6-FD6FE89414CC;
shapes = (
{
closed = 1;
nodes = (
(491,556,o),
(522,530,o),
(522,496,c),
(522,462,o),
(486,431,o),
(423,431,c),
(360,431,o),
(324,462,o),
(324,496,c),
(324,530,o),
(354,556,o),
(423,556,c)
);
},
{
closed = 1;
nodes = (
(441,250,o),
(525,271,o),
(543,288,c),
(543,288,o),
(543,274,o),
(543,268,c),
(543,234,o),
(515,188,o),
(448,188,c),
(409,188,o),
(382,205,o),
(365,236,c),
(69,236,l),
(105,85,o),
(216,-10,o),
(443,-10,c),
(728,-10,o),
(831,140,o),
(831,364,c),
(831,444,o),
(819,515,o),
(790,573,c),
(739,698,o),
(576,738,o),
(433,738,c),
(141,738,o),
(40,645,o),
(40,494,c),
(40,343,o),
(131,250,o),
(378,250,c)
);
}
);
width = 869;
},
{
layerId = m004;
shapes = (
{
closed = 1;
nodes = (
(381,658,o),
(428,588,o),
(428,499,c),
(428,409,o),
(373,330,o),
(278,330,c),
(183,330,o),
(128,409,o),
(128,499,c),
(128,588,o),
(174,658,o),
(278,658,c)
);
},
{
closed = 1;
nodes = (
(370,250,o),
(419,293,o),
(443,332,c),
(443,332,o),
(443,293,o),
(443,293,c),
(443,167,o),
(381,69,o),
(281,69,c),
(207,69,o),
(162,112,o),
(139,182,c),
(45,182,l),
(75,62,o),
(146,-10,o),
(281,-10,c),
(474,-10,o),
(535,140,o),
(535,363,c),
(535,438,o),
(528,504,o),
(511,559,c),
(488,662,o),
(407,737,o),
(278,737,c),
(123,737,o),
(37,628,o),
(37,494,c),
(37,360,o),
(123,250,o),
(278,250,c)
);
}
);
width = 572;
},
{
layerId = m005;
shapes = (
{
closed = 1;
nodes = (
(418,714,o),
(480,604,o),
(480,500,c),
(480,380,o),
(406,273,o),
(279,273,c),
(152,273,o),
(78,380,o),
(78,500,c),
(78,604,o),
(141,714,o),
(279,714,c)
);
},
{
closed = 1;
nodes = (
(398,251,o),
(472,324,o),
(495,425,c),
(496,406,o),
(497,385,o),
(497,364,c),
(497,157,o),
(445,13,o),
(282,13,c),
(173,13,o),
(114,78,o),
(86,183,c),
(62,183,l),
(91,63,o),
(157,-10,o),
(282,-10,c),
(463,-10,o),
(520,141,o),
(520,364,c),
(520,446,o),
(511,518,o),
(492,577,c),
(465,671,o),
(392,737,o),
(279,737,c),
(135,737,o),
(55,629,o),
(55,494,c),
(55,360,o),
(135,251,o),
(279,251,c)
);
}
);
width = 575;
},
{
layerId = m006;
shapes = (
{
closed = 1;
nodes = (
(481,556,o),
(512,530,o),
(512,496,c),
(512,462,o),
(476,431,o),
(413,431,c),
(350,431,o),
(314,462,o),
(314,496,c),
(314,530,o),
(344,556,o),
(413,556,c)
);
},
{
closed = 1;
nodes = (
(431,250,o),
(515,271,o),
(533,288,c),
(533,288,o),
(533,274,o),
(533,268,c),
(533,234,o),
(505,188,o),
(438,188,c),
(400,188,o),
(372,205,o),
(355,236,c),
(59,236,l),
(95,85,o),
(206,-10,o),
(433,-10,c),
(718,-10,o),
(821,140,o),
(821,364,c),
(821,444,o),
(809,515,o),
(780,573,c),
(729,698,o),
(566,738,o),
(423,738,c),
(131,738,o),
(31,645,o),
(31,494,c),
(31,343,o),
(121,250,o),
(368,250,c)
);
}
);
width = 850;
}
);
note = uni0039;
unicode = 57;
},
{
glyphname = uni0026;
lastChange = "2026-04-09 08:54:05 +0000";
layers = (
{
layerId = m01;
shapes = (
{
closed = 1;
nodes = (
(456,29,o),
(491,68,qs),
(496,74,o),
(503,84,o),
(507,89,q),
(520,102,o),
(562,154,o),
(595,246,o),
(595,318,q),
(514,318,l),
(514,260,o),
(477,166,o),
(413,99,o),
(335,64,o),
(294,64,qs),
(251,64,o),
(186,100,o),
(151,159,o),
(151,193,qs),
(151,208,o),
(185,276,o),
(234,313,qs),
(379,420,ls),
(424,453,o),
(476,530,o),
(476,582,qs),
(476,623,o),
(433,692,o),
(354,734,o),
(300,734,qs),
(246,734,o),
(167,693,o),
(124,619,o),
(124,570,qs),
(124,527,o),
(161,454,o),
(223,379,o),
(261,332,qs),
(537,0,l),
(638,0,l),
(304,408,ls),
(281,436,o),
(237,490,o),
(209,543,o),
(209,568,qs),
(209,591,o),
(233,634,o),
(275,662,o),
(303,662,qs),
(342,662,o),
(391,610,o),
(391,582,qs),
(391,545,o),
(353,499,o),
(322,479,q),
(217,401,l),
(173,370,o),
(104,309,o),
(65,239,o),
(65,193,qs),
(65,134,o),
(121,43,o),
(225,-10,o),
(297,-10,qs),
(349,-10,o)
);
}
);
width = 668;
},
{
layerId = F2C6FA2E-D08A-4B94-92D2-D7CA5820546A;
shapes = (
{
closed = 1;
nodes = (
(453,34,o),
(490,72,qs),
(494,77,o),
(503,88,o),
(507,94,qs),
(522,116,o),
(549,170,o),
(569,231,o),
(574,261,q),
(551,264,l),
(542,209,o),
(500,118,o),
(436,51,o),
(351,14,o),
(298,13,qs),
(247,13,o),
(164,59,o),
(116,135,o),
(116,182,qs),
(116,225,o),
(168,298,o),
(233,348,qs),
(339,428,ls),
(395,471,o),
(443,546,o),
(443,589,qs),
(443,632,o),
(406,699,o),
(341,737,o),
(299,737,qs),
(257,737,o),
(187,695,o),
(145,625,o),
(145,584,qs),
(145,556,o),
(168,505,o),
(213,444,o),
(247,402,qs),
(565,0,l),
(593,0,l),
(264,416,ls),
(230,458,o),
(188,515,o),
(167,560,o),
(167,584,qs),
(167,619,o),
(204,678,o),
(264,714,o),
(299,714,qs),
(352,714,o),
(420,644,o),
(420,589,qs),
(420,551,o),
(376,486,o),
(325,446,qs),
(218,366,ls),
(172,331,o),
(118,272,o),
(93,214,o),
(93,182,qs),
(93,129,o),
(148,42,o),
(240,-10,o),
(298,-10,qs),
(351,-10,o)
);
}
);
width = 643;
},
{
layerId = F8E60EAC-58E2-4CB8-A8B6-FD6FE89414CC;
shapes = (
{
closed = 1;
nodes = (
(683,12,o),
(754,40,q),
(778,47,o),
(824,61,o),
(848,68,q),
(925,102,o),
(1020,199,o),
(1063,316,o),
(1063,379,q),
(776,379,l),
(776,328,o),
(752,241,o),
(654,177,o),
(536,142,o),
(477,142,qs),
(438,142,o),
(381,158,o),
(350,187,o),
(350,207,qs),
(350,232,o),
(391,263,o),
(419,276,qs),
(664,382,ls),
(739,415,o),
(820,503,o),
(820,554,qs),
(820,604,o),
(743,688,o),
(599,739,o),
(500,739,qs),
(396,739,o),
(240,684,o),
(154,592,o),
(154,537,qs),
(154,487,o),
(216,403,o),
(283,336,o),
(318,313,qs),
(791,0,l),
(1141,0,l),
(580,388,l),
(537,419,o),
(452,469,o),
(419,513,o),
(419,534,qs),
(419,549,o),
(434,571,o),
(473,595,o),
(500,594,qs),
(537,594,o),
(578,557,o),
(578,540,qs),
(578,527,o),
(549,493,o),
(509,477,qs),
(249,375,l),
(188,349,o),
(86,297,o),
(35,234,o),
(35,193,qs),
(35,137,o),
(133,44,o),
(327,-11,o),
(454,-11,qs),
(528,-11,o)
);
}
);
width = 1152;
},
{
layerId = m004;
shapes = (
{
closed = 1;
nodes = (
(440,29,o),
(475,68,qs),
(479,74,o),
(487,84,o),
(491,89,q),
(504,102,o),
(545,154,o),
(579,246,o),
(579,318,q),
(498,318,l),
(498,260,o),
(461,166,o),
(397,99,o),
(319,64,o),
(278,64,qs),
(234,64,o),
(170,100,o),
(134,159,o),
(134,193,qs),
(134,208,o),
(169,276,o),
(218,313,qs),
(363,420,ls),
(408,453,o),
(460,530,o),
(460,582,qs),
(460,623,o),
(417,692,o),
(338,734,o),
(283,734,qs),
(230,734,o),
(151,693,o),
(107,619,o),
(107,570,qs),
(107,527,o),
(144,454,o),
(207,379,o),
(245,332,qs),
(521,0,l),
(621,0,l),
(288,408,ls),
(264,436,o),
(221,490,o),
(192,543,o),
(192,568,qs),
(192,591,o),
(216,634,o),
(259,662,o),
(286,662,qs),
(326,662,o),
(374,610,o),
(374,582,qs),
(374,545,o),
(337,499,o),
(306,479,q),
(201,401,l),
(156,370,o),
(88,309,o),
(49,239,o),
(49,193,qs),
(49,134,o),
(105,43,o),
(209,-10,o),
(281,-10,qs),
(333,-10,o)
);
}
);
width = 644;
},
{
layerId = m005;
shapes = (
{
closed = 1;
nodes = (
(430,34,o),
(466,72,qs),
(471,77,o),
(479,88,o),
(483,94,qs),
(499,116,o),
(526,170,o),
(545,231,o),
(550,261,q),
(527,264,l),
(518,209,o),
(477,118,o),
(413,51,o),
(328,14,o),
(275,13,qs),
(223,13,o),
(141,59,o),
(93,135,o),
(93,182,qs),
(93,225,o),
(144,298,o),
(209,348,qs),
(316,428,ls),
(371,471,o),
(419,546,o),
(419,589,qs),
(419,632,o),
(382,699,o),
(317,737,o),
(276,737,qs),
(234,737,o),
(164,695,o),
(121,625,o),
(121,584,qs),
(121,556,o),
(145,505,o),
(190,444,o),
(223,402,qs),
(542,0,l),
(570,0,l),
(240,416,ls),
(207,458,o),
(164,515,o),
(144,560,o),
(144,584,qs),
(144,619,o),
(180,678,o),
(240,714,o),
(276,714,qs),
(328,714,o),
(397,644,o),
(397,589,qs),
(397,551,o),
(353,486,o),
(301,446,qs),
(195,366,ls),
(149,331,o),
(94,272,o),
(70,214,o),
(70,182,qs),
(70,129,o),
(124,42,o),
(217,-10,o),
(275,-10,qs),
(328,-10,o)
);
}
);
width = 607;
},
{
layerId = m006;
shapes = (
{
closed = 1;
nodes = (
(674,12,o),
(745,40,q),
(769,47,o),
(815,61,o),
(839,68,q),
(917,102,o),
(1011,199,o),
(1054,316,o),
(1054,379,q),
(767,379,l),
(767,328,o),
(743,241,o),
(645,177,o),
(527,142,o),
(468,142,qs),
(429,142,o),
(372,158,o),
(341,187,o),
(341,207,qs),
(341,232,o),
(382,263,o),
(411,276,qs),
(655,382,ls),
(730,415,o),
(811,503,o),
(811,554,qs),
(811,604,o),
(734,688,o),
(590,739,o),
(491,739,qs),
(387,739,o),
(232,684,o),
(145,592,o),
(145,537,qs),
(145,487,o),
(207,403,o),
(274,336,o),
(309,313,qs),
(782,0,l),
(1132,0,l),
(571,388,l),
(528,419,o),
(443,469,o),
(411,513,o),
(411,534,qs),
(411,549,o),
(425,571,o),
(464,595,o),
(491,594,qs),
(528,594,o),
(569,557,o),
(569,540,qs),
(569,527,o),
(540,493,o),
(500,477,qs),
(240,375,l),
(179,349,o),
(77,297,o),
(26,234,o),
(26,193,qs),
(26,137,o),
(124,44,o),
(318,-11,o),
(445,-11,qs),
(520,-11,o)
);
}
);
width = 1141;
}
);
note = uni0026;
unicode = 38;
},
{
glyphname = uni0021;
lastChange = "2026-04-09 08:54:05 +0000";
layers = (
{
layerId = m01;
shapes = (
{
closed = 1;
nodes = (
(51,727,l),
(63,182,l),
(131,182,l),
(142,727,l)
);
},
{
closed = 1;
nodes = (
(51,0,l),
(142,0,l),
(142,91,l),
(51,91,l)
);
}
);
width = 194;
},
{
layerId = F2C6FA2E-D08A-4B94-92D2-D7CA5820546A;
shapes = (
{
closed = 1;
nodes = (
(89,727,l),
(93,182,l),
(115,182,l),
(119,727,l)
);
},
{
closed = 1;
nodes = (
(93,0,l),
(115,0,l),
(115,91,l),
(93,91,l)
);
}
);
width = 208;
},
{
layerId = F8E60EAC-58E2-4CB8-A8B6-FD6FE89414CC;
shapes = (
{
closed = 1;
nodes = (
(36,727,l),
(61,225,l),
(313,225,l),
(335,727,l)
);
},
{
closed = 1;
nodes = (
(61,0,l),
(313,0,l),
(313,192,l),
(61,192,l)
);
}
);
width = 371;
},
{
layerId = m004;
shapes = (
{
closed = 1;
nodes = (
(39,727,l),
(50,182,l),
(118,182,l),
(130,727,l)
);
},
{
closed = 1;
nodes = (
(39,0,l),
(130,0,l),
(130,91,l),
(39,91,l)
);
}
);
width = 168;
},
{
layerId = m005;
shapes = (
{
closed = 1;
nodes = (
(67,727,l),
(70,182,l),
(93,182,l),
(97,727,l)
);
},
{
closed = 1;
nodes = (
(70,0,l),
(93,0,l),
(93,91,l),
(70,91,l)
);
}
);
width = 163;
},
{
layerId = m006;
shapes = (
{
closed = 1;
nodes = (
(27,727,l),
(52,225,l),
(303,225,l),
(325,727,l)
);
},
{
closed = 1;
nodes = (
(52,0,l),
(303,0,l),
(303,192,l),
(52,192,l)
);
}
);
width = 352;
}
);
note = uni0021;
unicode = 33;
},
{
glyphname = uni003F;
lastChange = "2026-04-09 08:54:05 +0000";
layers = (
{
layerId = m01;
shapes = (
{
closed = 1;
nodes = (
(233,0,l),
(321,0,l),
(321,89,l),
(233,89,l)
);
},
{
closed = 1;
nodes = (
(180,653,o),
(143,597,o),
(143,536,c),
(143,494,l),
(54,494,l),
(54,536,l),
(54,647,o),
(132,737,o),
(281,737,c),
(431,737,o),
(509,646,o),
(509,536,c),
(509,475,o),
(482,417,o),
(434,379,c),
(363,322,l),
(337,301,o),
(321,268,o),
(321,235,c),
(321,187,l),
(233,187,l),
(233,235,l),
(233,296,o),
(260,353,o),
(308,392,c),
(378,448,l),
(404,469,o),
(419,502,o),
(419,536,c),
(419,597,o),
(382,653,o),
(282,653,c)
);
}
);
width = 573;
},
{
layerId = F2C6FA2E-D08A-4B94-92D2-D7CA5820546A;
shapes = (
{
closed = 1;
nodes = (
(259,0,l),
(285,1,l),
(285,91,l),
(259,91,l)
);
},
{
closed = 1;
nodes = (
(152,720,o),
(98,648,o),
(98,565,c),
(98,522,l),
(76,522,l),
(76,565,l),
(76,661,o),
(140,737,o),
(275,737,c),
(409,737,o),
(473,659,o),
(473,565,c),
(473,513,o),
(450,464,o),
(409,432,c),
(337,373,l),
(302,346,o),
(282,302,o),
(282,258,c),
(282,209,l),
(259,209,l),
(259,258,l),
(259,310,o),
(282,358,o),
(323,391,c),
(395,450,l),
(430,478,o),
(450,520,o),
(450,565,c),
(450,647,o),
(397,720,o),
(275,720,c)
);
}
);
width = 560;
},
{
layerId = F8E60EAC-58E2-4CB8-A8B6-FD6FE89414CC;
shapes = (
{
closed = 1;
nodes = (
(332,0,l),
(611,0,l),
(611,192,l),
(332,192,l)
);
},
{
closed = 1;
nodes = (
(329,554,o),
(332,502,o),
(332,494,c),
(332,458,l),
(54,458,l),
(54,494,l),
(54,628,o),
(147,737,o),
(477,737,c),
(807,737,o),
(900,628,o),
(900,494,c),
(900,393,o),
(821,327,o),
(703,295,c),
(654,281,l),
(632,273,o),
(611,262,o),
(611,240,c),
(611,222,l),
(329,222,l),
(329,229,l),
(329,333,o),
(412,401,o),
(529,437,c),
(575,451,l),
(600,456,o),
(621,470,o),
(621,494,c),
(621,502,o),
(632,554,o),
(477,554,c)
);
}
);
width = 961;
},
{
layerId = m004;
shapes = (
{
closed = 1;
nodes = (
(219,0,l),
(308,0,l),
(308,89,l),
(219,89,l)
);
},
{
closed = 1;
nodes = (
(167,653,o),
(129,597,o),
(129,536,c),
(129,494,l),
(40,494,l),
(40,536,l),
(40,647,o),
(118,737,o),
(268,737,c),
(418,737,o),
(496,646,o),
(496,536,c),
(496,475,o),
(468,417,o),
(421,379,c),
(350,322,l),
(324,301,o),
(308,268,o),
(308,235,c),
(308,187,l),
(219,187,l),
(219,235,l),
(219,296,o),
(247,353,o),
(294,392,c),
(365,448,l),
(390,469,o),
(406,502,o),
(406,536,c),
(406,597,o),
(369,653,o),
(268,653,c)
);
}
);
width = 544;
},
{
layerId = m005;
shapes = (
{
closed = 1;
nodes = (
(239,0,l),
(266,1,l),
(266,91,l),
(239,91,l)
);
},
{
closed = 1;
nodes = (
(133,720,o),
(79,648,o),
(79,565,c),
(79,522,l),
(57,522,l),
(57,565,l),
(57,661,o),
(121,737,o),
(255,737,c),
(390,737,o),
(454,659,o),
(454,565,c),
(454,513,o),
(431,464,o),
(390,432,c),
(317,373,l),
(283,346,o),
(263,302,o),
(263,258,c),
(263,209,l),
(239,209,l),
(239,258,l),
(239,310,o),
(263,358,o),
(304,391,c),
(375,450,l),
(411,478,o),
(431,520,o),
(431,565,c),
(431,647,o),
(378,720,o),
(256,720,c)
);
}
);
width = 519;
},
{
layerId = m006;
shapes = (
{
closed = 1;
nodes = (
(319,0,l),
(597,0,l),
(597,192,l),
(319,192,l)
);
},
{
closed = 1;
nodes = (
(316,554,o),
(319,502,o),
(319,494,c),
(319,458,l),
(40,458,l),
(40,494,l),
(40,628,o),
(133,737,o),
(463,737,c),
(794,737,o),
(887,628,o),
(887,494,c),
(887,393,o),
(808,327,o),
(690,295,c),
(641,281,l),
(619,273,o),
(597,262,o),
(597,240,c),
(597,222,l),
(316,222,l),
(316,229,l),
(316,333,o),
(398,401,o),
(515,437,c),
(562,451,l),
(586,456,o),
(608,470,o),
(608,494,c),
(608,502,o),
(619,554,o),
(463,554,c)
);
}
);
width = 932;
}
);
note = uni003F;
unicode = 63;
},
{
glyphname = uni0028;
kernLeft = uni0028;
kernRight = uni0028;
lastChange = "2026-04-09 08:54:05 +0000";
layers = (
{
layerId = m01;
shapes = (
{
attr = {
fillColor = (
0,
255
);
};
closed = 1;
nodes = (
(245,821,l),
(175,710,o),
(131,538,o),
(131,361,c),
(131,184,o),
(173,24,o),
(238,-87,c),
(329,-87,l),
(263,24,o),
(222,178,o),
(222,361,c),
(222,544,o),
(266,710,o),
(336,821,c)
);
}
);
width = 407;
},
{
layerId = F2C6FA2E-D08A-4B94-92D2-D7CA5820546A;
shapes = (
{
attr = {
fillColor = (
0,
255
);
};
closed = 1;
nodes = (
(260,814,l),
(190,703,o),
(146,532,o),
(146,354,c),
(146,177,o),
(188,17,o),
(253,-94,c),
(276,-94,l),
(210,17,o),
(169,171,o),
(169,354,c),
(169,538,o),
(213,703,o),
(283,814,c)
);
}
);
width = 382;
},
{
layerId = F8E60EAC-58E2-4CB8-A8B6-FD6FE89414CC;
shapes = (
{
attr = {
fillColor = (
0,
255
);
};
closed = 1;
nodes = (
(218,806,l),
(149,697,o),
(105,529,o),
(105,355,c),
(105,181,o),
(146,23,o),
(211,-86,c),
(490,-86,l),
(425,23,o),
(384,174,o),
(384,355,c),
(384,536,o),
(428,697,o),
(497,806,c)
);
}
);
width = 531;
},
{
layerId = m004;
shapes = (
{
attr = {
fillColor = (
0,
255
);
};
closed = 1;
nodes = (
(213,821,l),
(143,710,o),
(99,538,o),
(99,361,c),
(99,184,o),
(140,24,o),
(206,-87,c),
(296,-87,l),
(230,24,o),
(189,178,o),
(189,361,c),
(189,544,o),
(233,710,o),
(303,821,c)
);
}
);
width = 357;
},
{
layerId = m005;
shapes = (
{
attr = {
fillColor = (
0,
255
);
};
closed = 1;
nodes = (
(224,814,l),
(154,703,o),
(109,532,o),
(109,354,c),
(109,177,o),
(151,17,o),
(216,-94,c),
(239,-94,l),
(173,17,o),
(132,171,o),
(132,354,c),
(132,538,o),
(176,703,o),
(246,814,c)
);
}
);
width = 320;
},
{
layerId = m006;
shapes = (
{
attr = {
fillColor = (
0,
255
);
};
closed = 1;
nodes = (
(192,806,l),
(123,697,o),
(79,529,o),
(79,355,c),
(79,181,o),
(120,23,o),
(185,-86,c),
(463,-86,l),
(399,23,o),
(358,174,o),
(358,355,c),
(358,536,o),
(402,697,o),
(471,806,c)
);
}
);
width = 496;
}
);
note = uni0028;
unicode = 40;
},
{
glyphname = uni0029;
kernLeft = uni0029;
kernRight = uni0029;
lastChange = "2026-04-09 08:54:05 +0000";
layers = (
{
layerId = m01;
shapes = (
{
attr = {
fillColor = (
0,
255
);
};
closed = 1;
nodes = (
(141,702,o),
(185,537,o),
(185,354,c),
(185,170,o),
(144,17,o),
(78,-94,c),
(169,-94,l),
(235,17,o),
(276,177,o),
(276,354,c),
(276,531,o),
(232,702,o),
(162,814,c),
(72,814,l)
);
}
);
width = 407;
},
{
layerId = F2C6FA2E-D08A-4B94-92D2-D7CA5820546A;
shapes = (
{
attr = {
fillColor = (
0,
255
);
};
closed = 1;
nodes = (
(169,703,o),
(213,538,o),
(213,354,c),
(213,171,o),
(172,17,o),
(106,-94,c),
(129,-94,l),
(194,17,o),
(236,177,o),
(236,354,c),
(236,532,o),
(191,703,o),
(121,814,c),
(99,814,l)
);
}
);
width = 382;
},
{
layerId = F8E60EAC-58E2-4CB8-A8B6-FD6FE89414CC;
shapes = (
{
attr = {
fillColor = (
0,
255
);
};
closed = 1;
nodes = (
(103,697,o),
(147,535,o),
(147,354,c),
(147,174,o),
(106,23,o),
(42,-86,c),
(320,-86,l),
(385,23,o),
(426,180,o),
(426,354,c),
(426,529,o),
(382,697,o),
(313,806,c),
(34,806,l)
);
}
);
width = 531;
},
{
layerId = m004;
shapes = (
{
attr = {
fillColor = (
0,
255
);
};
closed = 1;
nodes = (
(124,702,o),
(168,537,o),
(168,354,c),
(168,170,o),
(126,17,o),
(61,-94,c),
(151,-94,l),
(217,17,o),
(258,177,o),
(258,354,c),
(258,531,o),
(214,702,o),
(144,814,c),
(54,814,l)
);
}
);
width = 357;
},
{
layerId = m005;
shapes = (
{
attr = {
fillColor = (
0,
255
);
};
closed = 1;
nodes = (
(144,703,o),
(188,538,o),
(188,354,c),
(188,171,o),
(147,17,o),
(81,-94,c),
(104,-94,l),
(169,17,o),
(211,177,o),
(211,354,c),
(211,532,o),
(167,703,o),
(97,814,c),
(74,814,l)
);
}
);
width = 320;
},
{
layerId = m006;
shapes = (
{
attr = {
fillColor = (
0,
255
);
};
closed = 1;
nodes = (
(95,697,o),
(138,535,o),
(138,354,c),
(138,174,o),
(98,23,o),
(33,-86,c),
(312,-86,l),
(377,23,o),
(417,180,o),
(417,354,c),
(417,529,o),
(374,697,o),
(305,806,c),
(26,806,l)
);
}
);
width = 496;
}
);
note = uni0029;
unicode = 41;
},
